<?xml version="1.0" standalone="no"?>
<!DOCTYPE svg PUBLIC "-//W3C//DTD SVG 1.1//EN" "http://www.w3.org/Graphics/SVG/1.1/DTD/svg11.dtd" >
<svg xmlns="http://www.w3.org/2000/svg" xmlns:xlink="http://www.w3.org/1999/xlink" version="1.1">
<metadata>
Created by FontForge 20170910 at Tue Jun  6 05:07:31 2017
 By Jimmy Wärting
Copyright (c) 2016 by Greg Lindy. All rights reserved.
</metadata>
<defs>
<font id="Fabriga-Regular" horiz-adv-x="496" >
  <font-face 
    font-family="Fabriga Regular"
    font-weight="600"
    font-stretch="normal"
    units-per-em="1000"
    panose-1="2 11 5 3 3 2 2 4 2 4"
    ascent="800"
    descent="-200"
    x-height="500"
    cap-height="650"
    bbox="-137 -231 1324 972.998"
    underline-thickness="50"
    underline-position="-100"
    unicode-range="U+000D-FF3F"
  />
<missing-glyph horiz-adv-x="176" 
 />
    <glyph glyph-name="fi" unicode="fi" horiz-adv-x="618" 
d="M564 654c0 -18 -6.33301 -32.333 -19 -43s-28 -16 -46 -16s-33.333 5.33301 -46 16s-19 25 -19 43v3c0 18.667 6.33301 33 19 43s28 15 46 15s33.333 -5 46 -15s19 -24.333 19 -43v-3zM453 0v500h91v-500h-91zM41 476l74.999 21.001v44
c0 57.333 13.167 100.666 39.5 129.999s65.833 44 118.5 44c14.667 0 27.834 -1 39.501 -3s25.167 -5.33301 40.5 -10v-75h-16c-10 4 -20 6.83301 -30 8.5s-19.667 2.5 -29 2.5c-26 0 -44.5 -6.66699 -55.5 -20s-16.5 -35 -16.5 -65v-53h144v-74h-144v-426h-91v426h-75v50z
" />
    <glyph glyph-name="fl" unicode="fl" horiz-adv-x="679" 
d="M41 476l74.999 21.001v44c0 57.333 13.167 100.666 39.5 129.999s65.833 44 118.5 44c14.667 0 27.834 -1 39.501 -3s25.167 -5.33301 40.5 -10v-75h-16c-10 4 -20 6.83301 -30 8.5s-19.667 2.5 -29 2.5c-26 0 -44.5 -6.66699 -55.5 -20s-16.5 -35 -16.5 -65v-53h144v-74
h-144v-426h-91v426h-75v50zM547.999 149.001c0 -31.333 7.83203 -51.833 23.499 -61.5s36.5 -12.167 62.5 -7.5h15v-78c-6.66699 -1.33301 -16.167 -2.5 -28.5 -3.5s-23.166 -1.5 -32.499 -1.5c-43.333 0 -76 12.167 -98 36.5s-33 58.833 -33 103.5v563h91v-551z" />
    <glyph glyph-name="f_dotlessi" unicode="f&#x131;" horiz-adv-x="618" 
d="M41 476l74.999 21.001v44c0 57.333 13.167 100.666 39.5 129.999s65.833 44 118.5 44c14.667 0 27.834 -1 39.501 -3s25.167 -5.33301 40.5 -10v-75h-16c-10 4 -20 6.83301 -30 8.5s-19.667 2.5 -29 2.5c-26 0 -44.5 -6.66699 -55.5 -20s-16.5 -35 -16.5 -65v-53h144v-74
h-144v-426h-91v426h-75v50zM452.999 0.000976562v500h91v-500h-91z" />
    <glyph glyph-name=".notdef" horiz-adv-x="176" 
 />
    <glyph glyph-name=".null" horiz-adv-x="0" 
 />
    <glyph glyph-name=".null" horiz-adv-x="0" 
 />
    <glyph glyph-name="nonmarkingreturn" unicode="&#xd;" horiz-adv-x="250" 
 />
    <glyph glyph-name="space" unicode=" " horiz-adv-x="176" 
 />
    <glyph glyph-name="exclam" unicode="!" horiz-adv-x="306" 
d="M114 200l-11 435v15h101v-15l-12 -435h-78zM218 53c0 -18.667 -6.33301 -33.334 -19 -44.001s-28 -16 -46 -16s-33.333 5.33301 -46 16s-19 25.334 -19 44.001v3c0 19.333 6.33301 34 19 44s28 15 46 15s33.333 -5 46 -15s19 -24.667 19 -44v-3z" />
    <glyph glyph-name="quotedbl" unicode="&#x22;" horiz-adv-x="381" 
d="M219 635v15h89v-15l-14 -213h-61zM73 635v15h89v-15l-14 -213h-61z" />
    <glyph glyph-name="numbersign" unicode="#" horiz-adv-x="653" 
d="M401 401h-132l-17 -134h133zM377 200h-133l-24 -200h-70v15l23 185h-102v67h110l16 134h-102v66h111l22 183h69v-15l-20 -168h133l22 183h68v-15l-20 -168h102v-66h-110l-17 -134h103v-67h-111l-24 -200h-69v15z" />
    <glyph glyph-name="dollar" unicode="$" horiz-adv-x="528" 
d="M164 418c6 -6 13.667 -11.168 23 -15.501s20 -8.16602 32 -11.499v176c-28 -5.33301 -48.167 -16 -60.5 -32s-18.5 -34.333 -18.5 -55c0 -25.333 8 -46 24 -62zM361 250.999c-7.33301 7.33301 -16.333 13.667 -27 19s-22 10 -34 14v-198
c26.667 4.66699 47.667 15.167 63 31.5s23 37.5 23 63.5c0 15.333 -1.83301 28.5 -5.5 39.5s-10.167 21.167 -19.5 30.5zM224 -105v113.996c-25.333 3.33301 -48.833 10 -70.5 20s-40.5 23 -56.5 39s-28.667 34.667 -38 56s-14.333 45.333 -15 72v8h90
c1.33301 -30.667 9.83301 -56 25.5 -76s37.5 -33.333 65.5 -40v215c-25.333 6 -49.833 13.167 -73.5 21.5s-43.5 20.5 -59.5 36.5c-14.667 14 -25.667 29.5 -33 46.5s-11 37.5 -11 61.5v9c0 24 4.66699 45.5 14 64.5s22 35.5 38 49.5s34.333 25.167 55 33.5
s42.334 13.833 65.001 16.5v89h74v-90c46 -7.33301 84 -24.666 114 -51.999s45.667 -65 47 -113v-8h-83c-2 21.333 -9.16699 41 -21.5 59s-31.166 30.667 -56.499 38v-193c25.333 -6.66699 50.166 -14.667 74.499 -24s45.166 -22.666 62.499 -39.999
c15.333 -14.667 26.666 -32 33.999 -52s11 -40 11 -60v-9c0 -29.333 -5.16699 -54.666 -15.5 -75.999s-23.666 -39.166 -39.999 -53.499s-35 -25.5 -56 -33.5s-42.5 -13.333 -64.5 -16v-113h-76z" />
    <glyph glyph-name="percent" unicode="%" horiz-adv-x="636" 
d="M46 522c0 20.667 3.66699 39.167 11 55.5s17.166 30.166 29.499 41.499s26.5 20 42.5 26s32.667 9 50 9s34 -3 50 -9s30 -14.667 42 -26s21.667 -25.166 29 -41.499s11 -34.833 11 -55.5v-9c0 -20.667 -3.66699 -39.167 -11 -55.5s-17.166 -30.166 -29.499 -41.499
s-26.5 -20 -42.5 -26s-32.667 -9 -50 -9s-34 3 -50 9s-30 14.667 -42 26s-21.667 25.166 -29 41.499s-11 34.833 -11 55.5v9zM105 0v15l357 635h69v-15l-360 -635h-66zM113 517c0 -21.333 5.66699 -39.333 17 -54s27.666 -22 48.999 -22s37.5 7.33301 48.5 22
s16.5 32.667 16.5 54s-5.5 39.5 -16.5 54.5s-27.167 22.5 -48.5 22.5s-37.666 -7.5 -48.999 -22.5s-17 -33.167 -17 -54.5zM326 136c0 20.667 3.66699 39.167 11 55.5s17 30.166 29 41.499s26 20 42 26s32.667 9 50 9s34 -3 50 -9s30 -14.667 42 -26
s21.667 -25.166 29 -41.499s11 -34.833 11 -55.5v-9c0 -20.667 -3.66699 -39.167 -11 -55.5s-17 -30.166 -29 -41.499s-26 -20 -42 -26s-32.667 -9 -50 -9s-34 3 -50 9s-30 14.667 -42 26s-21.667 25.166 -29 41.499s-11 34.833 -11 55.5v9zM393 131
c0 -21.333 5.5 -39.333 16.5 -54s27.167 -22 48.5 -22s37.5 7.33301 48.5 22s16.5 32.667 16.5 54s-5.5 39.5 -16.5 54.5s-27.167 22.5 -48.5 22.5s-37.5 -7.5 -48.5 -22.5s-16.5 -33.167 -16.5 -54.5z" />
    <glyph glyph-name="ampersand" unicode="&#x26;" horiz-adv-x="709" 
d="M324 622c-22.667 0 -41.333 -7.66797 -56 -23.001s-22 -37.666 -22 -66.999c0 -18.667 3.33301 -38 10 -58s15.667 -40 27 -60c14.667 8 28.667 16.167 42 24.5s25 17.833 35 28.5s17.833 22.5 23.5 35.5s8.5 28.5 8.5 46.5c0 21.333 -6.33301 38.833 -19 52.5
s-29 20.5 -49 20.5zM172.001 174.999c0 -38.667 14.001 -67.167 42.001 -85.5s62.667 -27.5 104 -27.5c21.333 0 42.666 2.66699 63.999 8s40 12.666 56 21.999c-8 7.33301 -16.167 14.833 -24.5 22.5s-16.833 15.5 -25.5 23.5c-26 25.333 -50.833 52.166 -74.5 80.499
s-45.167 57.5 -64.5 87.5c-23.333 -15.333 -42 -33.666 -56 -54.999s-21 -46.666 -21 -75.999zM675.002 5.99902l-95 -17.9951c-11.333 6.66699 -23.5 14 -36.5 22s-26.167 17 -39.5 27c-23.333 -16 -51 -28.833 -83 -38.5s-68 -14.5 -108 -14.5
c-32 0 -62.167 3.5 -90.5 10.5s-53 18 -74 33s-37.667 34.333 -50 58s-18.5 51.834 -18.5 84.501v12c0 22.667 3.5 43.5 10.5 62.5s16.333 36.5 28 52.5s25 30.333 40 43s30.5 24 46.5 34c-13.333 25.333 -25 50.166 -35 74.499s-15 48.166 -15 71.499v16
c0 22 3.5 42.667 10.5 62s17.5 36.166 31.5 50.499s31.333 25.666 52 33.999s44.334 12.5 71.001 12.5c25.333 0 47.666 -3.83301 66.999 -11.5s35.5 -17.834 48.5 -30.501s23 -27.334 30 -44.001s10.5 -34 10.5 -52v-13c0 -26 -4.5 -48.667 -13.5 -68
s-20.667 -36.5 -35 -51.5s-30.666 -28.5 -48.999 -40.5s-36.5 -23.667 -54.5 -35c18.667 -28 39.834 -55.5 63.501 -82.5s48.5 -53.5 74.5 -79.5l38 -38c9.33301 14 16.166 27.833 20.499 41.5s6.5 28.5 6.5 44.5c0 25.333 -3.5 49 -10.5 71s-15.833 41.333 -26.5 58v15h85
c13.333 -22 23.166 -46 29.499 -72s9.5 -50.667 9.5 -74c0 -48 -15.667 -93.667 -47 -137c19.333 -14.667 38 -28.167 56 -40.5s35.333 -23.833 52 -34.5v-15z" />
    <glyph glyph-name="quotesingle" unicode="'" horiz-adv-x="235" 
d="M73 635v15h89v-15l-14 -213h-61z" />
    <glyph glyph-name="parenleft" unicode="(" horiz-adv-x="308" 
d="M251 696v-12.998c-29.333 -68.667 -50.333 -136.334 -63 -203.001s-19 -131.667 -19 -195c0 -62.667 6.5 -127 19.5 -193s34.167 -133.667 63.5 -203v-13h-71c-38.667 72.667 -66.167 142.667 -82.5 210s-24.5 133.666 -24.5 198.999c0 66.667 8.16699 133.667 24.5 201
s43.833 137.333 82.5 210h70z" />
    <glyph glyph-name="parenright" unicode=")" horiz-adv-x="308" 
d="M57 -124v12.998c29.333 68.667 50.333 136.334 63 203.001s19 131.667 19 195c0 62.667 -6.5 127 -19.5 193s-34.167 133.667 -63.5 203v13h71c38.667 -72.667 66.167 -142.667 82.5 -210s24.5 -133.666 24.5 -198.999c0 -66.667 -8.16699 -133.667 -24.5 -201
s-43.833 -137.333 -82.5 -210h-70z" />
    <glyph glyph-name="asterisk" unicode="*" horiz-adv-x="413" 
d="M166 695h80l-14 -95l86 46l27 -82l-97 -14l67 -69l-66 -50l-42 88l-43 -88l-69 49l71 69l-98 16l28 81l86 -46z" />
    <glyph glyph-name="plus" unicode="+" horiz-adv-x="605" 
d="M50 370h207v214h90v-214h208v-83h-208v-214h-90v214h-207v83z" />
    <glyph glyph-name="comma" unicode="," horiz-adv-x="306" 
d="M116 132h115v-12l-99 -247h-65z" />
    <glyph glyph-name="hyphen" unicode="-" horiz-adv-x="432" 
d="M71 334h290v-82h-290v82z" />
    <glyph glyph-name="period" unicode="." horiz-adv-x="306" 
d="M218 53c0 -18.667 -6.33301 -33.334 -19 -44.001s-28 -16 -46 -16s-33.333 5.33301 -46 16s-19 25.334 -19 44.001v3c0 19.333 6.33301 34 19 44s28 15 46 15s33.333 -5 46 -15s19 -24.667 19 -44v-3z" />
    <glyph glyph-name="slash" unicode="/" horiz-adv-x="493" 
d="M123 -124h-89v14l336 806h89v-14z" />
    <glyph glyph-name="zero" unicode="0" horiz-adv-x="592" 
d="M540 315c0 -48 -5.16699 -92.333 -15.5 -133s-25.833 -75.5 -46.5 -104.5s-46.167 -51.667 -76.5 -68s-65.5 -24.5 -105.5 -24.5s-75.167 8.16699 -105.5 24.5s-55.833 39 -76.5 68s-36.167 63.833 -46.5 104.5s-15.5 85 -15.5 133v18
c0 48.667 5.16699 93.334 15.5 134.001s25.833 75.667 46.5 105s46.167 52.166 76.5 68.499s65.5 24.5 105.5 24.5s75.167 -8.16699 105.5 -24.5s55.833 -39.166 76.5 -68.499s36.167 -64.333 46.5 -105s15.5 -85.334 15.5 -134.001v-18zM296 69c28 0 51.333 6.5 70 19.5
s33.834 31 45.501 54s19.834 50 24.501 81s7 64.5 7 100.5s-2.33301 69.667 -7 101s-12.834 58.5 -24.501 81.5s-26.834 41 -45.501 54s-42 19.5 -70 19.5s-51.333 -6.5 -70 -19.5s-33.834 -31 -45.501 -54s-19.834 -49.833 -24.501 -80.5s-7 -64 -7 -100
c0 -36.667 2.33301 -70.667 7 -102s12.834 -58.5 24.501 -81.5s26.834 -41 45.501 -54s42 -19.5 70 -19.5z" />
    <glyph glyph-name="one" unicode="1" horiz-adv-x="314" 
d="M124 0l0.000976562 492.001h-112v64c18.667 1.33301 36 3.5 52 6.5s30.167 8.16699 42.5 15.5s22.666 17.166 30.999 29.499s13.833 27.833 16.5 46.5h65v-654h-95z" />
    <glyph glyph-name="two" unicode="2" horiz-adv-x="553" 
d="M482 463c0 -30 -6.50098 -60.001 -19.501 -90.001s-34.167 -62.333 -63.5 -97c-30 -35.333 -59.667 -67.666 -89 -96.999s-62.333 -61 -99 -95v-2h284v-82h-434v59c21.333 18 43.5 38.167 66.5 60.5s46 45 69 68s45 45.833 66 68.5s39.5 43.334 55.5 62.001
c18.667 21.333 34.667 43.5 48 66.5s20 52.5 20 88.5c0 32.667 -9.66699 59.334 -29 80.001s-47 31 -83 31c-21.333 0 -40 -3.33301 -56 -10s-29.167 -15.334 -39.5 -26.001s-18 -22.5 -23 -35.5s-7.5 -26.167 -7.5 -39.5c0 -15.333 1.66699 -31.333 5 -48v-14h-86
c-6 21.333 -9 41.666 -9 60.999c0 29.333 5.16699 56 15.5 80s24.833 44.333 43.5 61s41.334 29.5 68.001 38.5s56.334 13.5 89.001 13.5c30 0 57.667 -4.33301 83 -13s47.166 -21 65.499 -37s32.833 -35.5 43.5 -58.5s16 -49.167 16 -78.5v-15z" />
    <glyph glyph-name="three" unicode="3" horiz-adv-x="534" 
d="M170 379l158.998 188.999v2h-268l-1 80h391v-58l-153 -188c26.667 -4 51.334 -11.333 74.001 -22s42.334 -24.5 59.001 -41.5s29.667 -36.5 39 -58.5s14 -46 14 -72v-10c0 -34 -6 -64.333 -18 -91s-28.333 -49.167 -49 -67.5s-44.834 -32.333 -72.501 -42
s-57.5 -14.5 -89.5 -14.5c-70.667 0 -124.5 17 -161.5 51s-57.167 79 -60.5 135v8h93c2 -34.667 13.833 -62.667 35.5 -84s54.167 -32 97.5 -32c38.667 0 70 11.833 94 35.5s36 55.834 36 96.501c0 38.667 -12.167 70.667 -36.5 96s-61.166 38 -110.499 38
c-6 0 -13.5 -0.333008 -22.5 -1s-17.167 -1.66699 -24.5 -3l-14 10z" />
    <glyph glyph-name="four" unicode="4" horiz-adv-x="585" 
d="M19 231l332 419h103v-408h93v-84h-93v-158h-95v158h-328zM133 241c7.33301 0.666992 16.332 0.999023 26.999 0.999023h22h179v225v36.5c0 15 0.333008 27.167 1 36.5h-2c-5.33301 -10 -12.166 -20.667 -20.499 -32s-15.5 -20.666 -21.5 -27.999l-154 -201
c-3.33301 -3.33301 -8.33301 -9 -15 -17s-12 -14.333 -16 -19v-2z" />
    <glyph glyph-name="five" unicode="5" horiz-adv-x="528" 
d="M81 308l35.0029 341.998h337v-80h-257l-18 -177c5.33301 0.666992 14.166 1.16699 26.499 1.5s21.166 0.5 26.499 0.5c30 0 60 -3.66699 90 -11s56.667 -18.833 80 -34.5s42.333 -36 57 -61s22 -55.167 22 -90.5v-12c0 -30 -6.66699 -57.5 -20 -82.5
s-31 -46.167 -53 -63.5s-47.167 -30.833 -75.5 -40.5s-57.833 -14.5 -88.5 -14.5c-32 0 -65.333 3.16699 -100 9.5s-66 17.833 -94 34.5v98h16c24.667 -17.333 50.667 -31.166 78 -41.499s56.666 -15.5 87.999 -15.5c50 0 88.167 11.5 114.5 34.5s39.5 51.5 39.5 85.5
c0 22 -4.5 40.667 -13.5 56s-21 28 -36 38s-32 17.333 -51 22s-38.833 7 -59.5 7c-25.333 0 -49 -1.66699 -71 -5s-41.667 -7.66602 -59 -12.999z" />
    <glyph glyph-name="six" unicode="6" horiz-adv-x="554" 
d="M47 217c0 21.333 2.66309 42.6631 7.99609 63.9961s12.333 42.5 21 63.5s18.667 41.333 30 61s23 37.834 35 54.501c25.333 34.667 52.833 68.667 82.5 102s59.834 62.666 90.501 87.999h112v-15c-21.333 -17.333 -42.166 -34.666 -62.499 -51.999
s-40.166 -36.666 -59.499 -57.999c-7.33301 -8 -15.5 -17 -24.5 -27s-18 -20.167 -27 -30.5s-17.5 -20.666 -25.5 -30.999s-14.667 -20.166 -20 -29.499l1 -1c10.667 5.33301 24.167 9.83301 40.5 13.5s30.833 5.5 43.5 5.5c30 0 58.5 -4.66699 85.5 -14s50.667 -23 71 -41
s36.5 -40.167 48.5 -66.5s18 -56.166 18 -89.499v-13c0 -32.667 -6.16699 -62.334 -18.5 -89.001s-29 -49.5 -50 -68.5s-45.333 -33.667 -73 -44s-56.5 -15.5 -86.5 -15.5c-38.667 0 -73 5.5 -103 16.5s-55.167 26.167 -75.5 45.5s-35.666 42.5 -45.999 69.5
s-15.5 56.167 -15.5 87.5v14zM278.996 342.997c-47.333 0 -81.834 -13.166 -103.501 -39.499s-32.5 -59.833 -32.5 -100.5c0 -17.333 2.83301 -34.333 8.5 -51s14.334 -31.5 26.001 -44.5s26.5 -23.5 44.5 -31.5s39 -12 63 -12c22 0 41.5 4 58.5 12s31 18.5 42 31.5
s19.333 27.667 25 44s8.5 33.166 8.5 50.499c0 19.333 -2.83301 37.5 -8.5 54.5s-14.167 32 -25.5 45s-25.833 23.167 -43.5 30.5s-38.5 11 -62.5 11z" />
    <glyph glyph-name="seven" unicode="7" horiz-adv-x="539" 
d="M52 650h465.001v-82c-43.333 -34.667 -82.666 -74.5 -117.999 -119.5s-66.333 -92.333 -93 -142s-49.167 -100.667 -67.5 -153s-32.5 -103.5 -42.5 -153.5h-90v15c8 48 20.833 97.833 38.5 149.5s39.167 102.167 64.5 151.5s54.166 95.833 86.499 139.5
s67.166 81.167 104.499 112.5v2h-348v80z" />
    <glyph glyph-name="eight" unicode="8" horiz-adv-x="565" 
d="M512 170c0 -30.667 -5.66992 -57.5 -17.0029 -80.5s-27.333 -42.333 -48 -58s-45 -27.5 -73 -35.5s-58.667 -12 -92 -12c-32.667 0 -63 4 -91 12s-52.333 19.833 -73 35.5s-36.667 35 -48 58s-17 49.833 -17 80.5v8c0 16.667 2.66699 33 8 49s12.5 30.667 21.5 44
s19.333 25.5 31 36.5s24.167 19.833 37.5 26.5v2c-9.33301 6 -18.5 13.833 -27.5 23.5s-17.167 20.5 -24.5 32.5s-13.166 24.667 -17.499 38s-6.5 27 -6.5 41v8c0 30 5.33301 56.667 16 80s25.334 42.833 44.001 58.5s40.667 27.5 66 35.5s52.333 12 81 12
c29.333 0 56.666 -4 81.999 -12s47.333 -19.833 66 -35.5s33.334 -35.167 44.001 -58.5s16 -50 16 -80v-8c0 -14 -2.16699 -27.667 -6.5 -41s-10.166 -26 -17.499 -38s-15.5 -22.833 -24.5 -32.5s-18.167 -17.5 -27.5 -23.5v-2c13.333 -6.66699 25.833 -15.5 37.5 -26.5
s22 -23.167 31 -36.5s16.167 -28 21.5 -44s8 -32.333 8 -49v-8zM397.997 478c0 32 -10.333 58.667 -31 80s-49 32 -85 32c-35.333 0 -63.333 -10.667 -84 -32s-31 -48 -31 -80c0 -13.333 2.66699 -26.333 8 -39s12.833 -24 22.5 -34s21.667 -18.167 36 -24.5
s30.5 -9.5 48.5 -9.5s34.167 3.16699 48.5 9.5s26.5 14.5 36.5 24.5s17.667 21.333 23 34s8 25.667 8 39zM419.997 174c0 36 -13.001 64.167 -39.001 84.5s-59 30.5 -99 30.5s-72.833 -10.167 -98.5 -30.5s-38.5 -48.5 -38.5 -84.5c0 -31.333 12.333 -57.666 37 -78.999
s58 -32 100 -32c42.667 0 76.334 10.667 101.001 32s37 47.666 37 78.999z" />
    <glyph glyph-name="nine" unicode="9" horiz-adv-x="554" 
d="M507 433c0 -20.667 -2.66309 -41.8311 -7.99609 -63.498s-12.333 -43 -21 -64s-18.667 -41.167 -30 -60.5s-23 -37.666 -35 -54.999c-25.333 -34.667 -52.833 -68.667 -82.5 -102s-59.834 -62.666 -90.501 -87.999h-112v15c21.333 17.333 42.166 34.666 62.499 51.999
s40.166 36.666 59.499 57.999c7.33301 8 15.5 17 24.5 27s18 20.167 27 30.5s17.5 20.666 25.5 30.999s14.667 20.166 20 29.499l-1 1c-10.667 -5.33301 -24.167 -9.83301 -40.5 -13.5s-30.833 -5.5 -43.5 -5.5c-30 0 -58.5 4.66699 -85.5 14s-50.667 23 -71 41
s-36.5 40.167 -48.5 66.5s-18 56.166 -18 89.499v13c0 32.667 6.33301 62.334 19 89.001s29.5 49.5 50.5 68.5s45.167 33.667 72.5 44s56 15.5 86 15.5c38.667 0 73 -5.5 103 -16.5s55.167 -26.167 75.5 -45.5s35.666 -42.5 45.999 -69.5s15.5 -56.167 15.5 -87.5v-14z
M275.004 307.003c47.333 0 81.834 13.166 103.501 39.499s32.5 59.833 32.5 100.5c0 17.333 -2.83301 34.333 -8.5 51s-14.334 31.5 -26.001 44.5s-26.5 23.5 -44.5 31.5s-39 12 -63 12c-22 0 -41.5 -4 -58.5 -12s-31 -18.5 -42 -31.5s-19.333 -27.667 -25 -44
s-8.5 -33.166 -8.5 -50.499c0 -19.333 2.83301 -37.5 8.5 -54.5s14.167 -32 25.5 -45s25.833 -23.167 43.5 -30.5s38.5 -11 62.5 -11z" />
    <glyph glyph-name="colon" unicode=":" horiz-adv-x="306" 
d="M218 53c0 -18.667 -6.33301 -33.334 -19 -44.001s-28 -16 -46 -16s-33.333 5.33301 -46 16s-19 25.334 -19 44.001v3c0 19.333 6.33301 34 19 44s28 15 46 15s33.333 -5 46 -15s19 -24.667 19 -44v-3zM218 400c0 -18.667 -6.33301 -33.334 -19 -44.001s-28 -16 -46 -16
s-33.333 5.33301 -46 16s-19 25.334 -19 44.001v3c0 19.333 6.33301 34 19 44s28 15 46 15s33.333 -5 46 -15s19 -24.667 19 -44v-3z" />
    <glyph glyph-name="semicolon" unicode=";" horiz-adv-x="306" 
d="M96 132h115v-12l-99 -247h-65zM225 400c0 -18.667 -6.33301 -33.334 -19 -44.001s-28 -16 -46 -16s-33.333 5.33301 -46 16s-19 25.334 -19 44.001v3c0 19.333 6.33301 34 19 44s28 15 46 15s33.333 -5 46 -15s19 -24.667 19 -44v-3z" />
    <glyph glyph-name="less" unicode="&#x3c;" horiz-adv-x="635" 
d="M191 332v-2l364 -178v-102l-485 245v69l484 243v-98z" />
    <glyph glyph-name="equal" unicode="=" horiz-adv-x="645" 
d="M70 455h505v-81h-505v81zM70 280h505v-81h-505v81z" />
    <glyph glyph-name="greater" unicode="&#x3e;" horiz-adv-x="635" 
d="M81 509v98l484 -243v-69l-485 -245v102l364 178v2z" />
    <glyph glyph-name="question" unicode="?" horiz-adv-x="481" 
d="M202 202l-5.99902 172l7 7c18.667 1.33301 36.167 4.16602 52.5 8.49902s30.5 10.833 42.5 19.5s21.5 19.667 28.5 33s10.5 30 10.5 50c0 26.667 -8.66699 49.5 -26 68.5s-40.333 28.5 -69 28.5c-18.667 0 -34.334 -2.5 -47.001 -7.5s-22.834 -11.667 -30.501 -20
s-13.167 -18 -16.5 -29s-5 -22.5 -5 -34.5h-89v8c2 27.333 8.33301 51 19 71s24.5 36.5 41.5 49.5s36.5 22.5 58.5 28.5s45 9 69 9c26 0 50.167 -3.83301 72.5 -11.5s42 -18.667 59 -33s30.333 -31.666 40 -51.999s14.5 -43.166 14.5 -68.499v-6
c0 -21.333 -3.83301 -41.333 -11.5 -60s-18.167 -35.334 -31.5 -50.001s-28.666 -27.167 -45.999 -37.5s-36 -18.5 -56 -24.5l-3 -119h-78zM306.001 53c0 -18.667 -6.5 -33.334 -19.5 -44.001s-28.167 -16 -45.5 -16c-18 0 -33.5 5.33301 -46.5 16
s-19.5 25.334 -19.5 44.001v3c0 19.333 6.5 34 19.5 44s28.5 15 46.5 15c17.333 0 32.5 -5 45.5 -15s19.5 -24.667 19.5 -44v-3z" />
    <glyph glyph-name="at" unicode="@" horiz-adv-x="778" 
d="M472 310c0 13.333 -1.00293 25.1611 -3.00293 35.4941s-6.16699 19.166 -12.5 26.499s-15.5 13 -27.5 17s-28 6 -48 6c-16.667 0 -33.5 -2 -50.5 -6s-32.833 -10.667 -47.5 -20h-12v56c30 18 70.333 27 121 27c21.333 0 40.833 -2.33301 58.5 -7
s32.834 -12.167 45.501 -22.5s22.667 -24.166 30 -41.499s11 -38.666 11 -63.999v-82c0 -26.667 4.33301 -45.334 13 -56.001s20 -16 34 -16c52.667 0 79 45 79 135c0 40 -7.16699 75.333 -21.5 106s-33.5 56.5 -57.5 77.5s-51.833 36.833 -83.5 47.5s-65.167 16 -100.5 16
c-39.333 0 -76 -6.5 -110 -19.5s-63.667 -31.167 -89 -54.5s-45.333 -51.166 -60 -83.499s-22 -67.833 -22 -106.5c0 -44 7.5 -84 22.5 -120s35.5 -66.667 61.5 -92s56.833 -45 92.5 -59s74.5 -21 116.5 -21c34 0 65.667 3.5 95 10.5s57.333 17.167 84 30.5h14v-57
c-29.333 -14.667 -58.166 -25.667 -86.499 -33s-63.5 -11 -105.5 -11c-52 0 -100 8.66699 -144 26s-82.167 41.5 -114.5 72.5s-57.5 67.833 -75.5 110.5s-27 89.667 -27 141c0 46.667 8.83301 89.834 26.5 129.501s42.167 74 73.5 103s68.333 51.833 111 68.5
s88.667 25 138 25c48 0 92 -7.83301 132 -23.5s74.167 -37.167 102.5 -64.5s50.5 -59.666 66.5 -96.999s24 -77.666 24 -120.999c0 -62 -13 -109.833 -39 -143.5s-61.333 -50.5 -106 -50.5c-17.333 0 -34.166 3.33301 -50.499 10s-29.5 18.667 -39.5 36
c-12 -21.333 -29.5 -36.666 -52.5 -45.999s-45.833 -14 -68.5 -14c-16.667 0 -32.667 2.66699 -48 8s-28.833 12.833 -40.5 22.5s-21 21.167 -28 34.5s-10.5 28 -10.5 44v6c0 33.333 11.833 60.5 35.5 81.5s55.167 31.5 94.5 31.5c19.333 0 36.833 -2.16699 52.5 -6.5
s31.167 -11.166 46.5 -20.499v18zM309.997 205.995c0 -20 6.99707 -35 20.9971 -45s30.667 -15 50 -15c12 0 23.333 2.16699 34 6.5s20.167 10.333 28.5 18s15 16.167 20 25.5s7.5 19 7.5 29v12c-13.333 9.33301 -26.166 16.833 -38.499 22.5s-29.166 8.5 -50.499 8.5
c-23.333 0 -41.166 -5.66699 -53.499 -17s-18.5 -26.333 -18.5 -45z" />
    <glyph glyph-name="A" unicode="A" horiz-adv-x="663" 
d="M328 533l-5.50098 -16.502l-7 -21c-2.33301 -7 -4.5 -13.333 -6.5 -19s-3.66699 -9.83398 -5 -12.501l-91 -226h232l-92 228c-0.666992 2.66699 -2.16699 6.83398 -4.5 12.501s-4.66602 11.834 -6.99902 18.501s-4.5 13.334 -6.5 20.001s-3.66699 12 -5 16h-2z
M478.999 153.998h-299l-62 -154h-96v15l268 635h82l269 -635v-15h-100z" />
    <glyph glyph-name="B" unicode="B" horiz-adv-x="603" 
d="M451 338c13.333 -4.66699 26.501 -11.835 39.501 -21.502s24.5 -21.167 34.5 -34.5s18.167 -28.166 24.5 -44.499s9.5 -33.5 9.5 -51.5v-6c0 -30 -5 -56.333 -15 -79s-24 -41.5 -42 -56.5s-39.333 -26.167 -64 -33.5s-51.334 -11 -80.001 -11h-270v650h240
c28 0 54.167 -3.33301 78.5 -10s45.5 -16.834 63.5 -30.501s32.167 -31.167 42.5 -52.5s15.5 -47 15.5 -77v-6c0 -33.333 -7.16699 -61.166 -21.5 -83.499s-32.833 -39.166 -55.5 -50.499v-2zM182.001 566.999v-194.998h164c16.667 0 30.5 3.16699 41.5 9.5
s19.833 14.5 26.5 24.5s11.5 21.167 14.5 33.5s4.5 24.5 4.5 36.5c0 9.33301 -1.33301 19.166 -4 29.499s-7.5 20.166 -14.5 29.499s-16.667 17 -29 23s-27.833 9 -46.5 9h-157zM182.001 290.001l-0.000976562 -206.999h174c23.333 0 42 3.33301 56 10s24.833 15 32.5 25
s12.834 21 15.501 33s4 23.667 4 35c0 10 -1.33301 21.167 -4 33.5s-8 23.666 -16 33.999s-19 19 -33 26s-32 10.5 -54 10.5h-175z" />
    <glyph glyph-name="C" unicode="C" horiz-adv-x="693" 
d="M52 338c0 48 8.17188 92.001 24.5049 132.001s38.5 74.5 66.5 103.5s60.833 51.5 98.5 67.5s78.167 24 121.5 24c42.667 0 80.667 -6 114 -18s62 -28.167 86 -48.5s43 -44.166 57 -71.499s22.333 -56.666 25 -87.999v-8h-92c-4.66699 20 -11.334 39 -20.001 57
s-20.334 33.667 -35.001 47s-33 24 -55 32s-49 12 -81 12c-32.667 0 -62.334 -6.16699 -89.001 -18.5s-49.167 -29.5 -67.5 -51.5s-32.5 -48.333 -42.5 -79s-15 -64.334 -15 -101.001c0 -38.667 5.33301 -73.834 16 -105.501s25.667 -58.834 45 -81.501
s42.5 -40.167 69.5 -52.5s56.833 -18.5 89.5 -18.5c30.667 0 57 4.16699 79 12.5s40.333 19.833 55 34.5s26.334 31.667 35.001 51s14.667 40 18 62h93v-8c-4.66699 -36 -14.834 -68.667 -30.501 -98s-35.834 -54.333 -60.501 -75s-53.334 -36.667 -86.001 -48
s-68 -17 -106 -17c-44 0 -85.167 7.83301 -123.5 23.5s-71.5 38 -99.5 67s-50 63.833 -66 104.5s-24 86 -24 136v22z" />
    <glyph glyph-name="D" unicode="D" horiz-adv-x="685" 
d="M315 650c97.333 0 175.667 -29.668 235 -89.001c25.333 -25.333 45.5 -57.666 60.5 -96.999s22.5 -82.333 22.5 -129v-22c0 -49.333 -8.33301 -93.333 -25 -132s-37.667 -70.667 -63 -96c-26 -26 -59.333 -46.667 -100 -62s-84 -23 -130 -23h-227v650h227z
M182.001 565.999l-0.000976562 -481.999h125c74 0 128.667 17.667 164 53c23.333 23.333 40.333 50.666 51 81.999s16 66.333 16 105c0 38 -5.33301 72.833 -16 104.5s-26.667 58.167 -48 79.5c-19.333 19.333 -42.666 33.833 -69.999 43.5s-60.333 14.5 -99 14.5h-123z" />
    <glyph glyph-name="E" unicode="E" horiz-adv-x="554" 
d="M488 650v-84h-306v-193h263v-84h-263v-205h306v-84h-400v650h400z" />
    <glyph glyph-name="F" unicode="F" horiz-adv-x="545" 
d="M498 650v-84h-316v-213h273v-84h-273v-269h-94v650h410z" />
    <glyph glyph-name="G" unicode="G" horiz-adv-x="732" 
d="M662 116c-30.667 -38 -70.1699 -69.3311 -118.503 -93.998s-104.166 -37 -167.499 -37c-50 0 -95 8.33301 -135 25s-74 39.5 -102 68.5s-49.5 63.5 -64.5 103.5s-22.5 83.333 -22.5 130v22c0 50 8 95.333 24 136s38 75.5 66 104.5s61.333 51.333 100 67
s80.334 23.5 125.001 23.5c34 0 66.833 -4 98.5 -12s60.167 -20.5 85.5 -37.5s46.166 -38.833 62.499 -65.5s26.166 -58.334 29.499 -95.001v-9h-94c-5.33301 47.333 -24.666 81.333 -57.999 102s-74.333 31 -123 31c-35.333 0 -66.666 -6.33301 -93.999 -19
s-50.5 -30.334 -69.5 -53.001s-33.333 -49.667 -43 -81s-14.5 -65.333 -14.5 -102c0 -36 5 -69.5 15 -100.5s25 -57.833 45 -80.5s45.333 -40.5 76 -53.5s66.334 -19.5 107.001 -19.5c36 0 68.833 6 98.5 18s56.5 29.333 80.5 52v119h-191v84h284v-227z" />
    <glyph glyph-name="H" unicode="H" horiz-adv-x="723" 
d="M88 0v650h94v-277h359v277h94v-650h-94v289h-359v-289h-94z" />
    <glyph glyph-name="I" unicode="I" horiz-adv-x="270" 
d="M88 0v650h94v-650h-94z" />
    <glyph glyph-name="J" unicode="J" horiz-adv-x="410" 
d="M54 87c11.333 -5.33301 23.3311 -9.66602 35.998 -12.999s26 -5 40 -5s26.833 1.66699 38.5 5s21.834 9 30.501 17c10.667 10 18.5 22.833 23.5 38.5s7.5 36.167 7.5 61.5v459h92v-466c0 -24 -2.83301 -47.833 -8.5 -71.5s-15.334 -45 -29.001 -64s-32 -34.5 -55 -46.5
s-52.167 -18 -87.5 -18c-15.333 0 -32.666 1.16699 -51.999 3.5s-36.666 7.16602 -51.999 14.499v85h16z" />
    <glyph glyph-name="K" unicode="K" horiz-adv-x="616" 
d="M182 317v-317h-94v650h94v-284l276 284h105v-15l-284 -289l303 -331v-15h-109z" />
    <glyph glyph-name="L" unicode="L" horiz-adv-x="524" 
d="M88 650h94v-566h296v-84h-390v650z" />
    <glyph glyph-name="M" unicode="M" horiz-adv-x="915" 
d="M489 10h-63l-155 368c-8.66699 21.333 -16.834 43.166 -24.501 65.499s-14.167 43.833 -19.5 64.5h-2c-2 -21.333 -4.16699 -42.5 -6.5 -63.5s-5.16602 -43.167 -8.49902 -66.5l-54 -378h-94v15l97 635h95l204 -496l203 496h95l97 -635v-15h-94l-55 378
c-3.33301 23.333 -6.16602 45.5 -8.49902 66.5s-4.5 42.167 -6.5 63.5h-2c-5.33301 -20.667 -11.833 -42.167 -19.5 -64.5s-15.834 -44.166 -24.501 -65.499z" />
    <glyph glyph-name="N" unicode="N" horiz-adv-x="718" 
d="M88 0v650.002h100l263 -373c4.66699 -6 11 -15 19 -27s16.167 -24.5 24.5 -37.5s16.333 -25.333 24 -37s13.167 -20.5 16.5 -26.5h3c0 7.33301 -0.166992 17.166 -0.5 29.499s-0.666016 25.5 -0.999023 39.5s-0.5 27.333 -0.5 40v30v362h94v-650h-95l-265 373
c-4 6 -10.167 15 -18.5 27s-17 24.667 -26 38s-17.333 26 -25 38s-13.5 21 -17.5 27h-3c0 -6.66699 0.166992 -16.334 0.5 -29.001s0.666016 -26 0.999023 -40s0.5 -27.5 0.5 -40.5v-30.5v-363h-94z" />
    <glyph glyph-name="O" unicode="O" horiz-adv-x="741" 
d="M689 313c0 -48.667 -8.16992 -93.167 -24.5029 -133.5s-38.833 -74.833 -67.5 -103.5s-62.334 -51 -101.001 -67s-80.334 -24 -125.001 -24s-86.5 8 -125.5 24s-72.833 38.333 -101.5 67s-51.167 63.167 -67.5 103.5s-24.5 84.833 -24.5 133.5v24
c0 48.667 8.33301 93.167 25 133.5s39.334 74.833 68.001 103.5s62.334 51 101.001 67s80.334 24 125.001 24c44 0 85.333 -8 124 -24s72.334 -38.333 101.001 -67s51.334 -63.167 68.001 -103.5s25 -84.833 25 -133.5v-24zM370.997 71c36 0 67.834 6.66699 95.501 20
s51 31.5 70 54.5s33.333 50 43 81s14.5 63.833 14.5 98.5s-4.83301 67.5 -14.5 98.5s-23.834 58 -42.501 81s-42 41.167 -70 54.5s-60.333 20 -97 20s-69 -6.66699 -97 -20s-51.333 -31.5 -70 -54.5s-32.667 -50 -42 -81s-14 -63.833 -14 -98.5s5 -67.5 15 -98.5
s24.5 -58 43.5 -81s42.333 -41.167 70 -54.5s59.5 -20 95.5 -20z" />
    <glyph glyph-name="P" unicode="P" horiz-adv-x="602" 
d="M568 415c0 -34.667 -6.00195 -65.499 -18.002 -92.499s-28.5 -49.833 -49.5 -68.5s-45.667 -32.834 -74 -42.501s-58.5 -14.5 -90.5 -14.5h-154v-197h-94v650h261c30.667 0 59.334 -4.83301 86.001 -14.5s49.834 -23.667 69.501 -42s35.167 -41 46.5 -68
s17 -57.833 17 -92.5v-18zM340.998 281.001c22.667 0 42.167 3.83496 58.5 11.502s30 18 41 31s19.167 28 24.5 45s8 34.833 8 53.5c0 19.333 -2.33301 37.666 -7 54.999s-12 32.666 -22 45.999s-23 23.833 -39 31.5s-35 11.5 -57 11.5h-166v-285h159z" />
    <glyph glyph-name="Q" unicode="Q" horiz-adv-x="741" 
d="M530 -114l-90.0049 106c-20.667 -4.66699 -43.667 -7 -69 -7c-44.667 0 -86.5 8 -125.5 24s-72.833 38.333 -101.5 67s-51.167 63.167 -67.5 103.5s-24.5 84.833 -24.5 133.5v24c0 48.667 8.33301 93.167 25 133.5s39.334 74.833 68.001 103.5s62.334 51 101.001 67
s80.334 24 125.001 24c44 0 85.333 -8 124 -24s72.334 -38.333 101.001 -67s51.334 -63.167 68.001 -103.5s25 -84.833 25 -133.5v-24c0 -66.667 -14.667 -124.667 -44 -174s-68 -87.333 -116 -114l109 -126v-13h-108zM370.995 71c36 0 67.834 6.66699 95.501 20
s51 31.5 70 54.5s33.333 50 43 81s14.5 63.833 14.5 98.5s-4.83301 67.5 -14.5 98.5s-23.834 58 -42.501 81s-42 41.167 -70 54.5s-60.333 20 -97 20s-69 -6.66699 -97 -20s-51.333 -31.5 -70 -54.5s-32.667 -50 -42 -81s-14 -63.833 -14 -98.5s5 -67.5 15 -98.5
s24.5 -58 43.5 -81s42.333 -41.167 70 -54.5s59.5 -20 95.5 -20z" />
    <glyph glyph-name="R" unicode="R" horiz-adv-x="608" 
d="M330 332c20.667 0 38.667 3.16699 54 9.5s28 14.833 38 25.5s17.5 23 22.5 37s7.5 28.667 7.5 44c0 32.667 -8.83301 60.5 -26.5 83.5s-47.167 34.5 -88.5 34.5h-155v-234h148zM88 0l0.000976562 650.001h250c29.333 0 56.666 -4.16699 81.999 -12.5
s47.333 -20.5 66 -36.5s33.5 -35.833 44.5 -59.5s16.5 -51.167 16.5 -82.5v-17c0 -26 -4.16699 -49.333 -12.5 -70s-19.833 -38.834 -34.5 -54.501s-32 -28.5 -52 -38.5s-41.667 -17.333 -65 -22l187 -242v-15h-108l-189 246h-91v-246h-94z" />
    <glyph glyph-name="S" unicode="S" horiz-adv-x="569" 
d="M62 486c0 28 6.16406 52.9951 18.4971 74.9951s28.5 40.5 48.5 55.5s42.833 26.333 68.5 34s51.834 11.5 78.501 11.5c30 0 58.167 -3.83301 84.5 -11.5s49.166 -19 68.499 -34s34.833 -33.667 46.5 -56s17.834 -48.166 18.501 -77.499v-8h-88
c-1.33301 14 -4.66602 27.5 -9.99902 40.5s-13.166 24.5 -23.499 34.5s-23.166 18 -38.499 24s-33.333 9 -54 9c-42 0 -72.667 -9.5 -92 -28.5s-29 -41.167 -29 -66.5c0 -14.667 2 -27 6 -37s10.667 -19.667 20 -29c11.333 -11.333 29 -20.333 53 -27s50 -13.5 78 -20.5
s55.833 -15.5 83.5 -25.5s50.834 -24.667 69.501 -44c15.333 -15.333 27.166 -33.666 35.499 -54.999s12.5 -42.666 12.5 -63.999v-10c0 -35.333 -7 -65.166 -21 -89.499s-31.833 -44.166 -53.5 -59.499s-45.834 -26.333 -72.501 -33s-52.667 -10 -78 -10
c-32 0 -62.167 4.5 -90.5 13.5s-53 22.167 -74 39.5s-37.833 38.5 -50.5 63.5s-19.334 53.5 -20.001 85.5v8h96c1.33301 -40 14.333 -71.333 39 -94s59 -34 103 -34c38 0 68.5 9 91.5 27s34.5 43.667 34.5 77c0 31.333 -9 56 -27 74
c-14.667 15.333 -34.667 26.666 -60 33.999s-51.833 14.333 -79.5 21s-54.667 14.334 -81 23.001s-48.166 21.667 -65.499 39c-15.333 15.333 -26.833 32 -34.5 50s-11.5 39.667 -11.5 65v10z" />
    <glyph glyph-name="T" unicode="T" horiz-adv-x="566" 
d="M43 650h480v-84h-188v-566h-95v566h-197v84z" />
    <glyph glyph-name="U" unicode="U" horiz-adv-x="671" 
d="M588 650l0.000976562 -422.999c0 -83.333 -21.833 -144.5 -65.5 -183.5s-105.834 -58.5 -186.501 -58.5c-81.333 0 -143.833 19.5 -187.5 58.5s-65.5 100.167 -65.5 183.5v423h94v-435c0 -52.667 14.333 -90.334 43 -113.001s68 -34 118 -34
c45.333 0 82.833 11.5 112.5 34.5s44.5 60.5 44.5 112.5v435h93z" />
    <glyph glyph-name="V" unicode="V" horiz-adv-x="664" 
d="M335 117l5.50098 16.501l7 21c2.33301 7 4.66602 13.333 6.99902 19s3.83301 9.83398 4.5 12.501l188 464h95v-15l-269 -635h-82l-269 635v15h98l190 -466c1.33301 -2.66699 3 -6.83398 5 -12.501s4.16699 -11.834 6.5 -18.501l7 -20
c2.33301 -6.66699 3.83301 -12 4.5 -16h2z" />
    <glyph glyph-name="W" unicode="W" horiz-adv-x="906" 
d="M506 650l117.002 -444c1.33301 -4.66699 3 -11.167 5 -19.5s4 -16.833 6 -25.5s4 -16.834 6 -24.501s3.33301 -13.834 4 -18.501h2c1.33301 4.66699 2.83301 10.834 4.5 18.501s3.5 15.834 5.5 24.501s4.16699 17.167 6.5 25.5s4.16602 14.833 5.49902 19.5l128 444h94
v-15l-191 -635h-102l-144 527h-2l-142 -527h-102l-191 635v15h94l128 -444c1.33301 -4.66699 3.16602 -11.167 5.49902 -19.5s4.5 -16.833 6.5 -25.5s4 -16.834 6 -24.501s3.33301 -13.834 4 -18.501h2c1.33301 4.66699 2.83301 10.834 4.5 18.501s3.5 15.834 5.5 24.501
s4 17.167 6 25.5s3.66699 14.833 5 19.5l117 444h106z" />
    <glyph glyph-name="X" unicode="X" horiz-adv-x="626" 
d="M264 345l-184 290v15h99l140 -230l146 230h96v-15l-189 -288l223 -332v-15h-98l-180 273l-189 -273h-97v15z" />
    <glyph glyph-name="Y" unicode="Y" horiz-adv-x="608" 
d="M257 0v254l-239 381v15h104l185 -307l186 307h97v-15l-238 -381v-254h-95z" />
    <glyph glyph-name="Z" unicode="Z" horiz-adv-x="596" 
d="M84 650h460v-58l-350 -506v-2h341v-84h-468v59l349 505v2h-332v84z" />
    <glyph glyph-name="bracketleft" unicode="[" horiz-adv-x="340" 
d="M87 696h181v-76h-95v-668h95v-76h-181v820z" />
    <glyph glyph-name="backslash" unicode="\" horiz-adv-x="493" 
d="M34 682v14h89l336 -806v-14h-89z" />
    <glyph glyph-name="bracketright" unicode="]" horiz-adv-x="340" 
d="M253 -124h-181v76h95v668h-95v76h181v-820z" />
    <glyph glyph-name="asciicircum" unicode="^" horiz-adv-x="443" 
d="M411 388h-91l-101 179l-98 -179h-89l149 262h79z" />
    <glyph glyph-name="underscore" unicode="_" horiz-adv-x="292" 
d="M-2 -121h296v-77h-296v77z" />
    <glyph glyph-name="grave" unicode="`" 
d="M353 543l-235 113l46 81l218 -142z" />
    <glyph glyph-name="a" unicode="a" horiz-adv-x="535" 
d="M244 61c14 0 28.8311 2.83105 44.498 8.49805s30 13.834 43 24.501s23.667 23.5 32 38.5s12.5 31.5 12.5 49.5v40c-15.333 5.33301 -32.166 9.5 -50.499 12.5s-36.166 4.5 -53.499 4.5c-15.333 0 -30.5 -1.66699 -45.5 -5s-28.333 -8.66602 -40 -15.999
s-21.167 -16.833 -28.5 -28.5s-11 -25.5 -11 -41.5c0 -28 8.83301 -49.5 26.5 -64.5s41.167 -22.5 70.5 -22.5zM379.998 54.998c-16.667 -22 -38.665 -39.3359 -65.998 -52.0029s-56 -19 -86 -19c-24 0 -46.5 3.66699 -67.5 11s-39.333 17.833 -55 31.5s-28 30 -37 49
s-13.5 40.167 -13.5 63.5v7c0 23.333 3.66699 43.5 11 60.5s17.666 32.167 30.999 45.5c9.33301 10 20.666 18.667 33.999 26s27.666 13.333 42.999 18s31 8.16699 47 10.5s31.333 3.5 46 3.5c18 0 36.5 -1.16699 55.5 -3.5s36.833 -5.83301 53.5 -10.5v37
c0 34 -8.66699 60.5 -26 79.5s-45 28.5 -83 28.5c-28.667 0 -52.167 -6.5 -70.5 -19.5s-28.166 -33.5 -29.499 -61.5h-86v8c2.66699 26 9.5 48.333 20.5 67s24.833 33.834 41.5 45.501s36 20.334 58 26.001s45.333 8.5 70 8.5c28.667 0 55 -3.5 79 -10.5
s44.667 -18.5 62 -34.5s30.833 -36.667 40.5 -62s14.5 -56.666 14.5 -93.999v-314h-68l-17 55h-2z" />
    <glyph glyph-name="b" unicode="b" horiz-adv-x="627" 
d="M575 244c0 -37.333 -5.5 -72 -16.5 -104s-27 -59.5 -48 -82.5s-47.167 -41 -78.5 -54s-67 -19.5 -107 -19.5c-33.333 0 -64.666 7.33301 -93.999 22s-51.666 32 -66.999 52h-3l-19 -58h-64v700h91v-258h2c19.333 25.333 43.666 43.833 72.999 55.5s61 17.5 95 17.5
c29.333 0 58.166 -5.5 86.499 -16.5s53.5 -27.167 75.5 -48.5s39.833 -47.833 53.5 -79.5s20.5 -68.167 20.5 -109.5v-17zM322 61c28 0 52.165 4.83203 72.498 14.499s37 23 50 40s22.667 37 29 60s9.5 47.833 9.5 74.5c0 26 -3.16699 50.333 -9.5 73
s-16.166 42.5 -29.499 59.5s-30.166 30.333 -50.499 40s-44.166 14.5 -71.499 14.5c-26.667 0 -49.834 -5 -69.501 -15s-35.834 -23.5 -48.501 -40.5s-22.167 -36.833 -28.5 -59.5s-9.5 -46.667 -9.5 -72s3 -49.333 9 -72s15.333 -42.667 28 -60
s28.834 -31.166 48.501 -41.499s43.167 -15.5 70.5 -15.5z" />
    <glyph glyph-name="c" unicode="c" horiz-adv-x="564" 
d="M52 257c0 37.333 6.33496 71.832 19.002 103.499s30 59 52 82s48.167 40.833 78.5 53.5s63.5 19 99.5 19c29.333 0 56.833 -4 82.5 -12s48.167 -19.5 67.5 -34.5s35.333 -33.667 48 -56s20.667 -48.166 24 -77.499v-8h-83c-5.33301 36.667 -19.833 64.334 -43.5 83.001
s-54.834 28 -93.501 28c-24 0 -45.833 -4.83301 -65.5 -14.5s-36.334 -22.834 -50.001 -39.501s-24.334 -36.5 -32.001 -59.5s-11.5 -48.167 -11.5 -75.5c0 -26.667 3.66699 -51.5 11 -74.5s17.833 -42.833 31.5 -59.5s30 -29.667 49 -39s40.5 -14 64.5 -14c40 0 72 9 96 27
s39 46 45 84h84v-8c-3.33301 -27.333 -11.166 -52.166 -23.499 -74.499s-28.5 -41.333 -48.5 -57s-43 -27.834 -69 -36.501s-54 -13 -84 -13c-36.667 0 -70.167 6.33301 -100.5 19s-56.5 30.5 -78.5 53.5s-39 50.333 -51 82s-18 66.5 -18 104.5v14z" />
    <glyph glyph-name="d" unicode="d" horiz-adv-x="627" 
d="M305 438c-28 0 -52.165 -4.83203 -72.498 -14.499s-37 -23 -50 -40s-22.667 -37 -29 -60s-9.5 -47.833 -9.5 -74.5c0 -26 3.16699 -50.333 9.5 -73s16.166 -42.5 29.499 -59.5s30.166 -30.333 50.499 -40s44.166 -14.5 71.499 -14.5c26.667 0 49.834 5 69.501 15
s35.834 23.5 48.501 40.5s22.167 36.833 28.5 59.5s9.5 46.667 9.5 72s-3 49.333 -9 72s-15.333 42.667 -28 60s-28.834 31.166 -48.501 41.499s-43.167 15.5 -70.5 15.5zM52.002 253.001c0 37.333 5.49805 72.001 16.498 104.001s27.167 59.667 48.5 83
s47.5 41.666 78.5 54.999s66.167 20 105.5 20c35.333 0 66 -6 92 -18s47 -28.333 63 -49h2v252h91v-700h-68l-19 60h-2c-18 -25.333 -42.5 -44.333 -73.5 -57s-63.5 -19 -97.5 -19c-29.333 0 -58.166 5.5 -86.499 16.5s-53.666 27.167 -75.999 48.5s-40.333 47.833 -54 79.5
s-20.5 68.167 -20.5 109.5v15z" />
    <glyph glyph-name="e" unicode="e" horiz-adv-x="569" 
d="M509 140c-12 -50 -37.333 -88.502 -76 -115.502s-85.667 -40.5 -141 -40.5c-34.667 0 -66.667 6.16699 -96 18.5s-54.666 29.833 -75.999 52.5s-38 50 -50 82s-18 67.333 -18 106v14c0 38.667 5.83301 73.834 17.5 105.501s27.834 58.834 48.501 81.501
s45.667 40.167 75 52.5s61.333 18.5 96 18.5c37.333 0 70.166 -6.66699 98.499 -20s52.166 -31.666 71.499 -54.999s33.833 -50.5 43.5 -81.5s14.5 -64.167 14.5 -99.5v-18.5c0 -5 -0.333008 -11.167 -1 -18.5h-371c4 -46 18.333 -84.167 43 -114.5s60 -45.5 106 -45.5
c32.667 0 59.167 6.66699 79.5 20s35.5 32.666 45.5 57.999h90zM424 296.998c-1.33301 17.333 -4.83203 34.334 -10.499 51.001s-13.834 31.667 -24.501 45s-24 24.166 -40 32.499s-35 12.5 -57 12.5c-44 0 -77.5 -13 -100.5 -39s-37.833 -60 -44.5 -102h277z" />
    <glyph glyph-name="f" unicode="f" horiz-adv-x="396" 
d="M41 476l74.999 21.001v44c0 57.333 13.167 100.666 39.5 129.999s65.833 44 118.5 44c30 0 60 -4.33301 90 -13v-75h-16c-10 4 -21.667 6.83301 -35 8.5s-24.666 2.5 -33.999 2.5c-26 0 -44.5 -6.66699 -55.5 -20s-16.5 -35 -16.5 -65v-53h154v-74h-154v-426h-91v426h-75
v50z" />
    <glyph glyph-name="g" unicode="g" horiz-adv-x="546" 
d="M278 441c-35.333 0 -63.333 -8.5 -84 -25.5s-31 -41.5 -31 -73.5c0 -32.667 10.333 -57.334 31 -74.001s48.667 -25 84 -25c36 0 64.167 8.33301 84.5 25s30.5 41.334 30.5 74.001c0 32 -10.167 56.5 -30.5 73.5s-48.5 25.5 -84.5 25.5zM521 -40
c0 -26.667 -7.50293 -49.6631 -22.5029 -68.9961s-34.333 -35.333 -58 -48s-50.167 -22.167 -79.5 -28.5s-58.666 -9.5 -87.999 -9.5c-28 0 -56 2.66699 -84 8s-53.167 13.5 -75.5 24.5s-40.333 24.833 -54 41.5s-20.5 36.667 -20.5 60v6c0 23.333 6.5 45.166 19.5 65.499
s28.833 34.5 47.5 42.5c-8.66699 9.33301 -16.5 20.166 -23.5 32.499s-10.5 26.5 -10.5 42.5c0 19.333 4.33301 36.166 13 50.499s21.667 27.166 39 38.499c-15.333 13.333 -27.5 29.833 -36.5 49.5s-13.5 42.834 -13.5 69.501v11c0 28 5.33301 52.667 16 74
s25.167 39 43.5 53s39.833 24.5 64.5 31.5s51.334 10.5 80.001 10.5c26.667 0 51.334 -3 74.001 -9l80 94h89v-13l-97 -115c18 -14 32.167 -31.5 42.5 -52.5s15.5 -45.5 15.5 -73.5v-12c0 -27.333 -5.5 -51.166 -16.5 -71.499s-25.833 -37.333 -44.5 -51
s-40.667 -24 -66 -31s-52.333 -10.5 -81 -10.5c-34 0 -64 4.33301 -90 13c-10 -4.66699 -17.5 -11.167 -22.5 -19.5s-7.5 -16.833 -7.5 -25.5c0 -13.333 4 -24.5 12 -33.5s21 -13.5 39 -13.5h144c24 0 46.5 -2.83301 67.5 -8.5s39.167 -13.834 54.5 -24.501
s27.5 -23.834 36.5 -39.501s13.5 -33.167 13.5 -52.5v-7zM276.997 -119.996c45.333 0 82.167 6.49902 110.5 19.499s42.5 33.5 42.5 61.5c0 16 -7.16699 28.667 -21.5 38s-36.833 14 -67.5 14h-164c-14 -5.33301 -25.5 -13.5 -34.5 -24.5s-13.5 -24.167 -13.5 -39.5
c0 -21.333 12.333 -38.166 37 -50.499s61.667 -18.5 111 -18.5z" />
    <glyph glyph-name="h" unicode="h" horiz-adv-x="568" 
d="M169 0l-90.999 -0.000976562v700h91v-253h2c18 22.667 39.5 39.667 64.5 51s50.833 17 77.5 17c60.667 0 107.667 -17.667 141 -53c30.667 -32 46 -79 46 -141v-321h-90v305c0 25.333 -2.33301 45.833 -7 61.5s-12 28.5 -22 38.5c-20 20 -48.333 30 -85 30
c-20 0 -38.333 -3 -55 -9s-31.334 -16 -44.001 -30c-18.667 -19.333 -28 -53.666 -28 -102.999v-293z" />
    <glyph glyph-name="i" unicode="i" horiz-adv-x="239" 
d="M185 654c0 -18 -6.33301 -32.333 -19 -43s-28 -16 -46 -16s-33.333 5.33301 -46 16s-19 25 -19 43v3c0 18.667 6.33301 33 19 43s28 15 46 15s33.333 -5 46 -15s19 -24.333 19 -43v-3zM74 0v500h91v-500h-91z" />
    <glyph glyph-name="j" unicode="j" horiz-adv-x="240" 
d="M185 654c0 -18 -6.33301 -32.333 -19 -43s-28 -16 -46 -16s-33.333 5.33301 -46 16s-19 25 -19 43v3c0 18.667 6.33301 33 19 43s28 15 46 15s33.333 -5 46 -15s19 -24.333 19 -43v-3zM-22 -180l-0.000976562 12.999c18 12.667 33.167 28.167 45.5 46.5
s22.333 37.333 30 57s13 39.667 16 60s4.5 38.833 4.5 55.5v448h92v-455c0 -46 -8.66699 -89.167 -26 -129.5s-41.666 -72.166 -72.999 -95.499h-89z" />
    <glyph glyph-name="k" unicode="k" horiz-adv-x="514" 
d="M169 244v-244h-91v700h91v-417l186 217h98v-13l-187 -217l236 -257v-13h-109z" />
    <glyph glyph-name="l" unicode="l" horiz-adv-x="295" 
d="M164 149c0 -31.333 7.83203 -51.833 23.499 -61.5s36.5 -12.167 62.5 -7.5h15v-78c-6.66699 -1.33301 -16.167 -2.5 -28.5 -3.5s-23.166 -1.5 -32.499 -1.5c-43.333 0 -76 12.167 -98 36.5s-33 58.833 -33 103.5v563h91v-551z" />
    <glyph glyph-name="m" unicode="m" horiz-adv-x="852" 
d="M169 0h-90.999v500h68l18 -59h2c17.333 25.333 37.833 44 61.5 56s48.167 18 73.5 18c36 0 67 -7.66699 93 -23s46 -36.333 60 -63h2c17.333 28.667 40 50.167 68 64.5s57 21.5 87 21.5c54 0 96.333 -15 127 -45s46 -73 46 -129v-341h-91v314c0 80.667 -35 121 -105 121
c-33.333 0 -60.333 -11.333 -81 -34s-31 -54 -31 -94v-307h-90v314c0 80.667 -35.333 121 -106 121c-34 0 -60.833 -11.5 -80.5 -34.5s-29.834 -54.5 -30.501 -94.5v-306z" />
    <glyph glyph-name="n" unicode="n" horiz-adv-x="568" 
d="M169 0l-91 -0.000976562v500h68l18 -59h2c18.667 25.333 40.834 44 66.501 56s52.5 18 80.5 18c60.667 0 107.667 -17.667 141 -53c30.667 -32 46 -79 46 -141v-321h-90v305c0 25.333 -2.33301 45.833 -7 61.5s-12 28.5 -22 38.5c-20 20 -48.333 30 -85 30
c-20 0 -38.333 -3 -55 -9s-31.334 -16 -44.001 -30c-18.667 -19.333 -28 -53.666 -28 -102.999v-293z" />
    <glyph glyph-name="o" unicode="o" horiz-adv-x="603" 
d="M52 258c0 41.333 6.66309 78 19.9961 110s31.333 58.833 54 80.5s49 38.167 79 49.5s62 17 96 17s66.167 -5.66699 96.5 -17s56.833 -27.833 79.5 -49.5s40.5 -48.5 53.5 -80.5s19.5 -68.667 19.5 -110v-17c0 -40.667 -6.66699 -77 -20 -109s-31.166 -59 -53.499 -81
s-48.666 -38.667 -78.999 -50s-62.5 -17 -96.5 -17s-66.167 5.66699 -96.5 17s-56.666 28 -78.999 50s-40.166 49 -53.499 81s-20 68.333 -20 109v17zM143.996 250c0 -26 3.16699 -50.5 9.5 -73.5s16 -43 29 -60s29.333 -30.333 49 -40s42.834 -14.5 69.501 -14.5
s49.834 4.83301 69.501 14.5s36 23 49 40s22.667 37 29 60s9.5 47.5 9.5 73.5c0 26.667 -3.16699 51.334 -9.5 74.001s-16 42.5 -29 59.5s-29.333 30.333 -49 40s-42.834 14.5 -69.501 14.5s-49.834 -4.83301 -69.501 -14.5s-36 -23 -49 -40s-22.667 -36.833 -29 -59.5
s-9.5 -47.334 -9.5 -74.001z" />
    <glyph glyph-name="p" unicode="p" horiz-adv-x="627" 
d="M322 62c28 0 52.165 4.83203 72.498 14.499s37 23 50 40s22.667 37 29 60s9.5 47.833 9.5 74.5c0 26 -3.16699 50.333 -9.5 73s-16.166 42.5 -29.499 59.5s-30.166 30.333 -50.499 40s-44.166 14.5 -71.499 14.5c-26.667 0 -49.834 -5 -69.501 -15
s-35.834 -23.5 -48.501 -40.5s-22.167 -36.833 -28.5 -59.5s-9.5 -46.667 -9.5 -72s3 -49.333 9 -72s15.333 -42.667 28 -60s28.834 -31.166 48.501 -41.499s43.167 -15.5 70.5 -15.5zM574.998 246.999c0 -37.333 -5.49805 -72.001 -16.498 -104.001
s-27.167 -59.667 -48.5 -83s-47.5 -41.666 -78.5 -54.999s-66.167 -20 -105.5 -20c-35.333 0 -66 6 -92 18s-47 28.333 -63 49h-2v-232h-91v680h68l19 -60h2c18 25.333 42.5 44.333 73.5 57s63.5 19 97.5 19c29.333 0 58.166 -5.5 86.499 -16.5s53.666 -27.167 75.999 -48.5
s40.333 -47.833 54 -79.5s20.5 -68.167 20.5 -109.5v-15z" />
    <glyph glyph-name="q" unicode="q" horiz-adv-x="627" 
d="M52 256c0 37.333 5.5 72 16.5 104s27 59.5 48 82.5s47.167 41 78.5 54s67 19.5 107 19.5c33.333 0 64.666 -7.33301 93.999 -22s51.666 -32 66.999 -52h3l19 58h64v-680h-91v238h-2c-19.333 -25.333 -43.666 -43.833 -72.999 -55.5s-61 -17.5 -95 -17.5
c-29.333 0 -58.166 5.5 -86.499 16.5s-53.5 27.167 -75.5 48.5s-39.833 47.833 -53.5 79.5s-20.5 68.167 -20.5 109.5v17zM305 439c-28 0 -52.165 -4.83203 -72.498 -14.499s-37 -23 -50 -40s-22.667 -37 -29 -60s-9.5 -47.833 -9.5 -74.5c0 -26 3.16699 -50.333 9.5 -73
s16.166 -42.5 29.499 -59.5s30.166 -30.333 50.499 -40s44.166 -14.5 71.499 -14.5c26.667 0 49.834 5 69.501 15s35.834 23.5 48.501 40.5s22.167 36.833 28.5 59.5s9.5 46.667 9.5 72s-3 49.333 -9 72s-15.333 42.667 -28 60s-28.834 31.166 -48.501 41.499
s-43.167 15.5 -70.5 15.5z" />
    <glyph glyph-name="r" unicode="r" horiz-adv-x="368" 
d="M169 0h-91v500h61l23 -88h2c10 30 29 52.833 57 68.5s58 23.5 90 23.5c3.33301 0 8.5 -0.166992 15.5 -0.5s12.167 -0.833008 15.5 -1.5v-90h-28c-33.333 0 -59.666 -4.83301 -78.999 -14.5s-33.833 -22.5 -43.5 -38.5s-15.834 -34.5 -18.501 -55.5s-4 -42.833 -4 -65.5
v-238z" />
    <glyph glyph-name="s" unicode="s" horiz-adv-x="493" 
d="M254 -15c-60.667 0 -109.168 13.6699 -145.501 41.0029s-55.5 68.666 -57.5 123.999v8h87c0 -66.667 38.333 -100 115 -100c34 0 59.333 6.5 76 19.5s25 31.167 25 54.5c0 19.333 -6.33301 35.333 -19 48c-12 12 -28.167 20.833 -48.5 26.5s-42 11 -65 16
s-45.833 11.5 -68.5 19.5s-42 20 -58 36c-9.33301 9.33301 -17.666 21.833 -24.999 37.5s-11 32.167 -11 49.5v7c0 25.333 5.16699 47 15.5 65s24 32.833 41 44.5s36.5 20.167 58.5 25.5s44.333 8 67 8c24.667 0 48 -2.83301 70 -8.5s41.333 -14.334 58 -26.001
s30 -26.167 40 -43.5s15 -38 15 -62v-8h-87c-1.33301 29.333 -10.833 49.5 -28.5 60.5s-41.167 16.5 -70.5 16.5c-28.667 0 -50.667 -5.83301 -66 -17.5s-23 -26.834 -23 -45.501c0 -17.333 6 -32 18 -44c11.333 -11.333 27.166 -19.666 47.499 -24.999s42 -10.5 65 -15.5
s45.833 -11.5 68.5 -19.5s42.334 -20.333 59.001 -37c11.333 -11.333 20.166 -24.833 26.499 -40.5s9.5 -35.167 9.5 -58.5c0 -28.667 -5.5 -52.834 -16.5 -72.501s-25.5 -35.667 -43.5 -48s-38.167 -21.333 -60.5 -27s-45.166 -8.5 -68.499 -8.5z" />
    <glyph glyph-name="t" unicode="t" horiz-adv-x="391" 
d="M338 500v-74h-139v-281c0 -30 7 -50.167 21 -60.5s30.333 -15.5 49 -15.5c27.333 0 51.333 7.66699 72 23h16v-77c-12 -6.66699 -27.167 -12.334 -45.5 -17.001s-35.166 -7 -50.499 -7c-54 0 -93.167 13.667 -117.5 41s-36.5 64 -36.5 110v284h-72v44
c19.333 6.66699 35.666 15.334 48.999 26.001s24.5 22.334 33.5 35.001s16.333 26.167 22 40.5s10.167 28.166 13.5 41.499h46v-113h139z" />
    <glyph glyph-name="u" unicode="u" horiz-adv-x="546" 
d="M155 500v-307c0 -24.667 3.33301 -45.334 10 -62.001s15.5 -30 26.5 -40s23.667 -17 38 -21s28.833 -6 43.5 -6s29.167 2 43.5 6s27 11 38 21s19.833 23.333 26.5 40s10 37.334 10 62.001v307h90v-311c0 -36 -5.83301 -67 -17.5 -93s-27.167 -47.167 -46.5 -63.5
s-41.5 -28.5 -66.5 -36.5s-50.833 -12 -77.5 -12s-52.5 4 -77.5 12s-47.167 20.167 -66.5 36.5s-34.833 37.5 -46.5 63.5s-17.5 57 -17.5 93v311h90z" />
    <glyph glyph-name="v" unicode="v" horiz-adv-x="512" 
d="M411 500l91 0.000976562v-13l-202 -487h-88l-202 487v13h95l127 -331l6 -15c2.66699 -6.66699 5.33398 -13.834 8.00098 -21.501s5.16699 -15 7.5 -22l5.5 -16.5h2c1.33301 4 3 9.5 5 16.5s4.33301 14.167 7 21.5s5.16699 14.333 7.5 21s4.16602 12 5.49902 16z" />
    <glyph glyph-name="w" unicode="w" horiz-adv-x="805" 
d="M403 385l-1.00195 1.99805l-124 -387h-94l-155 487v13h90l96 -317c1.33301 -4 3 -9.16699 5 -15.5s4 -13.166 6 -20.499s3.83301 -14.166 5.5 -20.499s2.83398 -11.5 3.50098 -15.5h2c0.666992 4 1.66699 9.16699 3 15.5s3 13 5 20s3.83301 13.667 5.5 20
s3.16699 11.5 4.5 15.5l98 318h103l99 -319c1.33301 -4 2.83301 -9.16699 4.5 -15.5s3.5 -12.833 5.5 -19.5s3.83301 -13.167 5.5 -19.5s2.83398 -11.5 3.50098 -15.5h2c0.666992 4 1.66699 9 3 15s3 12.5 5 19.5s3.83301 13.5 5.5 19.5s3.16699 11 4.5 15l97 320h85v-13
l-156 -487h-94z" />
    <glyph glyph-name="x" unicode="x" horiz-adv-x="522" 
d="M316 263l184 -250v-13h-97l-143 195l-146 -195h-92v13l185 246l-159 228v13h100l116 -171l116 171h94v-13z" />
    <glyph glyph-name="y" unicode="y" horiz-adv-x="504" 
d="M203 23l-192.999 463.999v13h95l122 -317c1.33301 -3.33301 3.33301 -8.5 6 -15.5s5.33398 -14.167 8.00098 -21.5s5.16699 -14.666 7.5 -21.999s4.16602 -13 5.49902 -17h2c1.33301 4 3 9.5 5 16.5s4.33301 14.167 7 21.5s5.16699 14.333 7.5 21s4.16602 12 5.49902 16
l122 318h91v-13l-276 -667h-95v13z" />
    <glyph glyph-name="z" unicode="z" horiz-adv-x="488" 
d="M62 500h364v-58l-256 -366v-2h258v-74h-375v56l256 368v2h-247v74z" />
    <glyph glyph-name="braceleft" unicode="{" horiz-adv-x="392" 
d="M141 138c0 37.333 -5.5 66.9961 -16.5 88.9961s-30.5 39.333 -58.5 52v16c28 12 47.5 29 58.5 51s16.5 51.667 16.5 89v143c0 37.333 9.66699 66.333 29 87s50.333 31 93 31h42v-76h-45c-15.333 0 -24.5 -6.66699 -27.5 -20s-4.5 -28.666 -4.5 -45.999v-135
c0 -25.333 -2 -45.833 -6 -61.5s-9.16699 -28.167 -15.5 -37.5s-13.333 -16.166 -21 -20.499s-15.167 -8.16602 -22.5 -11.499v-2c7.33301 -3.33301 14.833 -7.33301 22.5 -12s14.667 -11.667 21 -21s11.5 -22 15.5 -38s6 -36.667 6 -62v-135
c0 -17.333 1.5 -32.666 4.5 -45.999s12.167 -20 27.5 -20h45v-76h-42c-42.667 0 -73.667 10.333 -93 31s-29 49.667 -29 87v144z" />
    <glyph glyph-name="bar" unicode="|" horiz-adv-x="519" 
d="M301 774v-900h-83v900h83z" />
    <glyph glyph-name="braceright" unicode="}" horiz-adv-x="392" 
d="M251 138v-143.996c0 -37.333 -9.66699 -66.333 -29 -87s-50.333 -31 -93 -31h-42v76h45c15.333 0 24.5 6.66699 27.5 20s4.5 28.666 4.5 45.999v135c0 25.333 2 46 6 62s9.16699 28.667 15.5 38s13.333 16.333 21 21s15.167 8.66699 22.5 12v2
c-7.33301 3.33301 -14.833 7.16602 -22.5 11.499s-14.667 11.166 -21 20.499s-11.5 21.833 -15.5 37.5s-6 36.167 -6 61.5v135c0 17.333 -1.5 32.666 -4.5 45.999s-12.167 20 -27.5 20h-45v76h42c42.667 0 73.667 -10.333 93 -31s29 -49.667 29 -87v-143
c0 -37.333 5.5 -67 16.5 -89s30.5 -39 58.5 -51v-16c-28 -12.667 -47.5 -30 -58.5 -52s-16.5 -51.667 -16.5 -89z" />
    <glyph glyph-name="asciitilde" unicode="~" horiz-adv-x="555" 
d="M71 311c19.333 12 38.6689 20.832 58.002 26.499s37.666 8.5 54.999 8.5c16.667 0 32.834 -2 48.501 -6s31.167 -8.16699 46.5 -12.5s30.666 -8.5 45.999 -12.5s31.333 -6 48 -6c35.333 0 72.333 12.667 111 38v-78c-18.667 -12 -37.334 -20.667 -56.001 -26
s-36.667 -8 -54 -8c-16.667 0 -32.667 1.83301 -48 5.5s-30.833 7.5 -46.5 11.5s-31.167 7.83301 -46.5 11.5s-31.333 5.5 -48 5.5c-17.333 0 -35.833 -3.16699 -55.5 -9.5s-39.167 -15.166 -58.5 -26.499v78z" />
    <glyph glyph-name="uni00A0" unicode="&#xa0;" horiz-adv-x="176" 
 />
    <glyph glyph-name="exclamdown" unicode="&#xa1;" horiz-adv-x="306" 
d="M192 308l11 -435v-15h-101v15l12 435h78zM88 455c0 18.667 6.33301 33.334 19 44.001s28 16 46 16s33.333 -5.33301 46 -16s19 -25.334 19 -44.001v-3c0 -19.333 -6.33301 -34 -19 -44s-28 -15 -46 -15s-33.333 5 -46 15s-19 24.667 -19 44v3z" />
    <glyph glyph-name="cent" unicode="&#xa2;" horiz-adv-x="556" 
d="M516 166c-5.33301 -52 -25.168 -93.668 -59.501 -125.001s-77.833 -49.666 -130.5 -54.999v-112h-73v113c-29.333 4.66699 -56.333 14 -81 28s-45.834 32 -63.501 54s-31.5 47.833 -41.5 77.5s-15 61.834 -15 96.501v14c0 34.667 5 66.667 15 96s23.833 55 41.5 77
s38.834 40 63.501 54s51.667 23.333 81 28v123h73v-122c50.667 -5.33301 93.334 -23.5 128.001 -54.5s54.667 -72.167 60 -123.5v-8h-83c-10.667 63.333 -45.667 99.666 -105 108.999v-372c60.667 8 96 44.667 106 110h84v-8zM143.998 248.999c0 -46 9 -85.167 27 -117.5
s45.333 -53.5 82 -63.5v365c-36.667 -10 -64 -31.667 -82 -65s-27 -73 -27 -119z" />
    <glyph glyph-name="sterling" unicode="&#xa3;" horiz-adv-x="567" 
d="M255 272c4 -12.667 7.16602 -25.332 9.49902 -37.999s3.5 -25.667 3.5 -39c0 -33.333 -2.33301 -60.666 -7 -81.999c10.667 -3.33301 20.834 -7 30.501 -11s19.5 -8 29.5 -12c10.667 -4 21.834 -7.66699 33.501 -11s24.167 -5 37.5 -5
c21.333 0 36.666 6.16699 45.999 18.5s13.333 28.833 12 49.5h82v-12c-0.666992 -17.333 -3.5 -34.166 -8.5 -50.499s-13 -31 -24 -44s-25.333 -23.5 -43 -31.5s-39.5 -12 -65.5 -12c-23.333 0 -43.5 3.16699 -60.5 9.5s-33.5 13.166 -49.5 20.499
c-16 6.66699 -30.667 12.667 -44 18s-29 8 -47 8c-38.667 0 -58 -16 -58 -48h-86c-2 37.333 7 68 27 92s52.333 36.667 97 38h7c1.33301 8.66699 2.33301 17.834 3 27.501s1 19.167 1 28.5c0 15.333 -2.16699 30.166 -6.5 44.499s-9.83301 28.166 -16.5 41.499h-100v77h59
c-9.33301 17.333 -17.666 36.5 -24.999 57.5s-11 41.167 -11 60.5v13c0 27.333 4.66699 52.333 14 75s22.666 42.167 39.999 58.5s38.333 29 63 38s52.667 13.5 84 13.5c29.333 0 55.833 -4.5 79.5 -13.5s43.667 -21.667 60 -38s29 -35.833 38 -58.5s13.5 -48 13.5 -76v-10
h-88v5c0 35.333 -8 63 -24 83s-43 30 -81 30c-36 0 -62.5 -11 -79.5 -33s-25.5 -48.333 -25.5 -79c0 -22 4.66699 -43.333 14 -64s20.333 -41.334 33 -62.001h183v-77h-150z" />
    <glyph glyph-name="currency" unicode="&#xa4;" horiz-adv-x="721" 
d="M513 129c-21.333 -15.333 -44.833 -27.501 -70.5 -36.501s-52.834 -13.5 -81.501 -13.5s-56 4.5 -82 13.5s-49.667 21.167 -71 36.5l-98 -98l-56 56l98 98c-15.333 21.333 -27.333 44.833 -36 70.5s-13 52.834 -13 81.501s4.33301 55.834 13 81.501s21 49.167 37 70.5
l-99 99l56 56l98 -99c21.333 15.333 45 27.5 71 36.5s53.333 13.5 82 13.5s55.834 -4.33301 81.501 -13s49.167 -20.667 70.5 -36l98 98l56 -56l-98 -98c15.333 -21.333 27.5 -45 36.5 -71s13.5 -53.333 13.5 -82s-4.5 -55.834 -13.5 -81.501s-21.167 -49.167 -36.5 -70.5
l98 -98l-56 -56zM361 514.999c-24.667 0 -47.834 -4.66699 -69.501 -14s-40.5 -22 -56.5 -38s-28.667 -34.833 -38 -56.5s-14 -44.834 -14 -69.501s4.66699 -47.834 14 -69.501s22 -40.5 38 -56.5s34.833 -28.667 56.5 -38s44.834 -14 69.501 -14s47.834 4.66699 69.501 14
s40.5 22 56.5 38s28.667 34.833 38 56.5s14 44.834 14 69.501s-4.66699 47.834 -14 69.501s-22 40.5 -38 56.5s-34.833 28.667 -56.5 38s-44.834 14 -69.501 14z" />
    <glyph glyph-name="yen" unicode="&#xa5;" horiz-adv-x="622" 
d="M359 227v-227h-95v227h-186v71h158l-35 56h-123v71h79l-132 210v15h104l185 -307l186 307h97v-15l-131 -210h77v-71h-122l-35 -56h157v-71h-184z" />
    <glyph glyph-name="brokenbar" unicode="&#xa6;" horiz-adv-x="519" 
d="M301 774v-390h-83v390h83zM301 313v-439h-83v439h83z" />
    <glyph glyph-name="section" unicode="&#xa7;" horiz-adv-x="525" 
d="M290 197c14 -3.33301 27.168 -6.83301 39.501 -10.5s24.166 -8.16699 35.499 -13.5c10 13.333 15 29.666 15 48.999c0 20.667 -4.5 37.334 -13.5 50.001s-20.667 22.834 -35 30.501s-30.5 13.667 -48.5 18s-36 8.16602 -54 11.499
c-16.667 2.66699 -33.667 7.33398 -51 14.001c-14.667 -14 -22 -31.667 -22 -53c0 -17.333 3.66699 -31.333 11 -42s17.333 -19.334 30 -26.001s27 -12 43 -16s32.667 -8 50 -12zM267.001 -158c-28 0 -54.501 4.16602 -79.501 12.499s-47 20.333 -66 36
s-34.167 34.834 -45.5 57.501s-17.666 48.334 -18.999 77.001v10h93c0 -14.667 2.83301 -28.834 8.5 -42.501s13.834 -25.667 24.501 -36s23.667 -18.666 39 -24.999s32.333 -9.5 51 -9.5c32.667 0 58.667 7.5 78 22.5s29 36.5 29 64.5c0 20.667 -4.5 37.334 -13.5 50.001
s-20.667 22.834 -35 30.501s-30.5 13.667 -48.5 18s-36 8.16602 -54 11.499c-22.667 4.66699 -44.334 11.334 -65.001 20.001s-38.5 19.667 -53.5 33s-27 29.166 -36 47.499s-13.5 39.5 -13.5 63.5v8c0 22 3.5 41.5 10.5 58.5s16.833 31.833 29.5 44.5
c-12.667 13.333 -22.5 28.166 -29.5 44.499s-10.5 35.166 -10.5 56.499v9c0 25.333 5.16699 47.833 15.5 67.5s24.5 36.167 42.5 49.5s39 23.5 63 30.5s49.667 10.5 77 10.5c26.667 0 51.5 -3.5 74.5 -10.5s43.333 -17.333 61 -31s31.667 -30.5 42 -50.5
s15.833 -43.333 16.5 -70v-11h-87c-1.33301 25.333 -11 47.666 -29 66.999s-45 29 -81 29s-61.667 -7.83301 -77 -23.5s-23 -34.167 -23 -55.5c0 -17.333 3.66699 -31.333 11 -42s17.333 -19.5 30 -26.5s27 -12.5 43 -16.5s32.667 -8 50 -12
c27.333 -6 52.333 -13.667 75 -23s42 -20.833 58 -34.5s28.333 -30 37 -49s13 -41.167 13 -66.5v-9c0 -22 -3 -41.667 -9 -59s-14.333 -32.666 -25 -45.999c22.667 -26 34 -58.667 34 -98v-9c0 -32 -6.16699 -59 -18.5 -81s-28.5 -39.833 -48.5 -53.5
s-42.167 -23.5 -66.5 -29.5s-48.5 -9 -72.5 -9z" />
    <glyph glyph-name="dieresis" unicode="&#xa8;" 
d="M154 679c17.333 0 32.332 -5.5 44.999 -16.5s19 -25.5 19 -43.5c0 -17.333 -6.33301 -31.666 -19 -42.999s-27.667 -17 -45 -17s-32.166 5.5 -44.499 16.5s-18.5 25.5 -18.5 43.5c0 17.333 6 31.666 18 42.999s27 17 45 17zM341.999 679
c17.333 0 32.166 -5.5 44.499 -16.5s18.5 -25.5 18.5 -43.5c0 -17.333 -6.16699 -31.666 -18.5 -42.999s-27.166 -17 -44.499 -17c-18 0 -33.167 5.5 -45.5 16.5s-18.5 25.5 -18.5 43.5c0 17.333 6.16699 31.666 18.5 42.999s27.5 17 45.5 17z" />
    <glyph glyph-name="copyright" unicode="&#xa9;" horiz-adv-x="777" 
d="M388 -11c-48 0 -92.5 8.83301 -133.5 26.5s-76.5 41.834 -106.5 72.501s-53.5 66.5 -70.5 107.5s-25.5 84.833 -25.5 131.5s8.5 90.5 25.5 131.5s40.5 76.833 70.5 107.5s65.5 54.834 106.5 72.501s85.5 26.5 133.5 26.5s92.5 -8.83301 133.5 -26.5
s76.5 -41.834 106.5 -72.501s53.667 -66.5 71 -107.5s26 -84.833 26 -131.5s-8.66699 -90.5 -26 -131.5s-41 -76.833 -71 -107.5s-65.5 -54.834 -106.5 -72.501s-85.5 -26.5 -133.5 -26.5zM388 606c-38 0 -73.5 -7.33301 -106.5 -22s-61.5 -34.667 -85.5 -60
s-42.833 -54.833 -56.5 -88.5s-20.5 -69.834 -20.5 -108.501s6.83301 -75 20.5 -109s32.5 -63.667 56.5 -89s52.5 -45.333 85.5 -60s68.5 -22 106.5 -22s73.5 7.33301 106.5 22s61.667 34.667 86 60s43.333 55 57 89s20.5 70.333 20.5 109s-6.83301 74.834 -20.5 108.501
s-32.667 63.167 -57 88.5s-53 45.333 -86 60s-68.5 22 -106.5 22zM392 454c-33.333 0 -59.168 -12.1699 -77.501 -36.5029s-27.5 -53.833 -27.5 -88.5c0 -16.667 2.33301 -32.667 7 -48s11.667 -28.666 21 -39.999s20.833 -20.333 34.5 -27s29.5 -10 47.5 -10
c28 0 49.167 8 63.5 24s23.833 35.667 28.5 59h65v-6c-6 -41.333 -24 -74.5 -54 -99.5s-66.333 -37.5 -109 -37.5c-23.333 0 -45.5 4.33301 -66.5 13s-39.333 20.834 -55 36.501s-28 34.5 -37 56.5s-13.5 46.333 -13.5 73v13c0 26.667 4.5 51 13.5 73s21.333 40.833 37 56.5
s34 27.834 55 36.501s43.167 13 66.5 13c42.667 0 78.834 -12.5 108.501 -37.5s47.5 -58.5 53.5 -100.5v-6h-64c-4.66699 23.333 -14.5 43 -29.5 59s-37.5 24 -67.5 24z" />
    <glyph glyph-name="ordfeminine" unicode="&#xaa;" horiz-adv-x="433" 
d="M147 393c0 -19.333 6.33203 -33.001 18.999 -41.001s27.667 -12 45 -12c8 0 16.5 1.5 25.5 4.5s17.333 7.16699 25 12.5s14 12.333 19 21s7.5 18.334 7.5 29.001v27c-10.667 4 -22 7 -34 9s-23.667 3 -35 3c-17.333 0 -33.666 -4.16699 -48.999 -12.5
s-23 -21.833 -23 -40.5zM69.999 390.999c0 21.333 4.33398 38.9971 13.001 52.9971s20 25.333 34 34s29.833 14.834 47.5 18.501s35.5 5.5 53.5 5.5c9.33301 0 20.166 -0.666992 32.499 -2s24.833 -3.66602 37.5 -6.99902v16c0 10.667 -0.666992 20.5 -2 29.5
s-4.16602 16.833 -8.49902 23.5s-10.833 12 -19.5 16s-20.334 6 -35.001 6c-16 0 -30.167 -3.66699 -42.5 -11s-19.166 -20.666 -20.499 -39.999h-71v7c1.33301 17.333 5.83301 32.333 13.5 45s17.667 23.167 30 31.5s26.166 14.5 41.499 18.5s31 6 47 6
c23.333 0 45 -2.83301 65 -8.5s37 -16.167 51 -31.5c9.33301 -9.33301 16.333 -22.5 21 -39.5s7 -36.167 7 -57.5v-214h-60l-12 41c-12 -16.667 -26.833 -29.667 -44.5 -39s-37.5 -14 -59.5 -14c-16 0 -31.167 2.5 -45.5 7.5s-27 12.333 -38 22s-19.667 21.167 -26 34.5
s-9.5 28 -9.5 44v5z" />
    <glyph glyph-name="guillemotleft" unicode="&#xab;" horiz-adv-x="550" 
d="M35 257l157 188h98v-14l-149 -179l149 -178v-14h-98l-157 188v9zM245 257l157 188h98v-14l-149 -179l149 -178v-14h-98l-157 188v9z" />
    <glyph glyph-name="logicalnot" unicode="&#xac;" horiz-adv-x="537" 
d="M391 484h-355v76h450v-287h-95v211z" />
    <glyph glyph-name="registered" unicode="&#xae;" horiz-adv-x="777" 
d="M388 -11c-48 0 -92.5 8.83301 -133.5 26.5s-76.5 41.834 -106.5 72.501s-53.5 66.5 -70.5 107.5s-25.5 84.833 -25.5 131.5s8.5 90.5 25.5 131.5s40.5 76.833 70.5 107.5s65.5 54.834 106.5 72.501s85.5 26.5 133.5 26.5s92.5 -8.83301 133.5 -26.5
s76.5 -41.834 106.5 -72.501s53.667 -66.5 71 -107.5s26 -84.833 26 -131.5s-8.66699 -90.5 -26 -131.5s-41 -76.833 -71 -107.5s-65.5 -54.834 -106.5 -72.501s-85.5 -26.5 -133.5 -26.5zM388 606c-38 0 -73.5 -7.33301 -106.5 -22s-61.5 -34.667 -85.5 -60
s-42.833 -54.833 -56.5 -88.5s-20.5 -69.834 -20.5 -108.501s6.83301 -75 20.5 -109s32.5 -63.667 56.5 -89s52.5 -45.333 85.5 -60s68.5 -22 106.5 -22s73.5 7.33301 106.5 22s61.667 34.667 86 60s43.333 55 57 89s20.5 70.333 20.5 109s-6.83301 74.834 -20.5 108.501
s-32.667 63.167 -57 88.5s-53 45.333 -86 60s-68.5 22 -106.5 22zM329 452l-0.000976562 -117.999h73c22.667 0 38.834 6.16699 48.501 18.5s14.5 26.166 14.5 41.499c0 13.333 -4.33301 26.333 -13 39s-23.667 19 -45 19h-78zM528.999 389.001
c0 -25.333 -6.5 -46.668 -19.5 -64.001s-30.167 -30.666 -51.5 -39.999l86 -117v-18h-63l-92 126h-60v-126h-64v360h140c16.667 0 32.5 -2.5 47.5 -7.5s28.167 -12.167 39.5 -21.5s20.333 -21 27 -35s10 -30 10 -48v-9z" />
    <glyph glyph-name="macron" unicode="&#xaf;" 
d="M100 657h296v-77h-296v77z" />
    <glyph glyph-name="degree" unicode="&#xb0;" horiz-adv-x="451" 
d="M62 506c0 24.667 4.66699 46.667 14 66s21.833 35.5 37.5 48.5s33.167 22.833 52.5 29.5s39 10 59 10s39.667 -3.33301 59 -10s36.833 -16.5 52.5 -29.5s28.334 -29.167 38.001 -48.5s14.5 -41.333 14.5 -66v-11c0 -24.667 -4.83301 -46.667 -14.5 -66
s-22.334 -35.5 -38.001 -48.5s-33.167 -22.833 -52.5 -29.5s-39 -10 -59 -10s-39.667 3.33301 -59 10s-36.833 16.5 -52.5 29.5s-28.167 29.167 -37.5 48.5s-14 41.333 -14 66v11zM148 495c0 -25.333 8 -44.666 24 -57.999s33.667 -20 53 -20s37.166 6.66699 53.499 20
s24.5 32.666 24.5 57.999v11c0 25.333 -8.16699 44.666 -24.5 57.999s-34.166 20 -53.499 20s-37 -6.66699 -53 -20s-24 -32.666 -24 -57.999v-11z" />
    <glyph glyph-name="plusminus" unicode="&#xb1;" horiz-adv-x="605" 
d="M70 455h187v164h90v-164h188v-83h-188v-164h-90v164h-187v83zM70 123h465v-83h-465v83z" />
    <glyph glyph-name="uni00B2" unicode="&#xb2;" horiz-adv-x="295" 
d="M26 297l-0.00390625 41.002c28.667 23.333 54 45.666 76 66.999s43.333 44.333 64 69c10.667 12.667 18.667 24.5 24 35.5s8 23.833 8 38.5c0 15.333 -4.83301 27.833 -14.5 37.5s-22.167 14.5 -37.5 14.5c-19.333 0 -33.666 -5.66699 -42.999 -17
s-13.666 -24.333 -12.999 -39c0 -5.33301 0.333008 -9.83301 1 -13.5s1 -7.16699 1 -10.5v-8h-63c0 4 -0.666992 9.5 -2 16.5s-2 14.167 -2 21.5c0 17.333 3.16699 32.5 9.5 45.5s15 24 26 33s23.667 15.833 38 20.5s29.5 7 45.5 7c36 0 65.667 -9 89 -27s35 -44.333 35 -79
v-7c0 -17.333 -4.5 -35.333 -13.5 -54s-21.5 -36.667 -37.5 -54c-13.333 -14.667 -27.166 -28.834 -41.499 -42.501s-27.166 -25.5 -38.499 -35.5v-1h133v-59h-244z" />
    <glyph glyph-name="uni00B3" unicode="&#xb3;" horiz-adv-x="300" 
d="M92 502l36.0049 44c6 6 13 13.333 21 22s16 17 24 25v1c-7.33301 0 -15.5 -0.166992 -24.5 -0.5s-17.167 -0.5 -24.5 -0.5h-89v57h219v-41l-72 -88c27.333 -5.33301 49.166 -17.833 65.499 -37.5s24.5 -42.167 24.5 -67.5v-5c0 -20.667 -3.33301 -38.5 -10 -53.5
s-15.834 -27.5 -27.501 -37.5s-25 -17.333 -40 -22s-31.167 -7 -48.5 -7c-40 -0.666992 -70.833 8.5 -92.5 27.5s-32.834 45.167 -33.501 78.5v5h65c4 -36.667 24.333 -55 61 -55c19.333 0 34.166 5.83301 44.499 17.5s15.166 27.167 14.499 46.5
c-0.666992 17.333 -6.5 31.5 -17.5 42.5s-27.833 16.5 -50.5 16.5c-4 0 -9.33301 -0.166992 -16 -0.5s-11.667 -0.833008 -15 -1.5l-6 5z" />
    <glyph glyph-name="acute" unicode="&#xb4;" 
d="M113 595l218 142l46 -81l-235 -113z" />
    <glyph glyph-name="uni00B5" unicode="&#xb5;" horiz-adv-x="608" 
d="M449 560l91.001 0.00195312v-560h-68l-18 59h-2c-9.33301 -12.667 -20.333 -23.667 -33 -33s-25.834 -17 -39.501 -23s-27.5 -10.5 -41.5 -13.5s-27 -4.5 -39 -4.5c-12.667 0 -25.5 0.833008 -38.5 2.5s-25.5 4 -37.5 7s-22.833 6.66699 -32.5 11
s-17.167 9.16602 -22.5 14.499v-200h-90v740h90v-357c0 -38.667 11.5 -71.334 34.5 -98.001s57.833 -40 104.5 -40c44 0 78.333 13.167 103 39.5s37.667 60.5 39 102.5v353z" />
    <glyph glyph-name="paragraph" unicode="&#xb6;" horiz-adv-x="554" 
d="M81 499c0 24 4.16797 45.499 12.501 64.499s19.666 34.833 33.999 47.5s30.833 22.334 49.5 29.001s38.334 10 59.001 10h191v-650h-82v578h-74v-244h-18c-22.667 0 -44.334 3.33301 -65.001 10s-39 16.5 -55 29.5s-28.667 29 -38 48s-14 40.833 -14 65.5v12z" />
    <glyph glyph-name="periodcentered" unicode="&#xb7;" horiz-adv-x="306" 
d="M218 292c0 -18.667 -6.33301 -33.334 -19 -44.001s-28 -16 -46 -16s-33.333 5.33301 -46 16s-19 25.334 -19 44.001v3c0 19.333 6.33301 34 19 44s28 15 46 15s33.333 -5 46 -15s19 -24.667 19 -44v-3z" />
    <glyph glyph-name="cedilla" unicode="&#xb8;" 
d="M198 -62l26 62.0029h65l-16 -44c14.667 -4.66699 26.334 -11.834 35.001 -21.501s13 -21.5 13 -35.5s-3.5 -26.333 -10.5 -37s-16 -19.5 -27 -26.5s-23.667 -12.167 -38 -15.5s-28.833 -5 -43.5 -5c-30.667 0 -56.667 4 -78 12v57h10
c12 -4.66699 23.667 -7.83398 35 -9.50098s20.666 -2.5 27.999 -2.5c17.333 0 30 2.83301 38 8.5s12 12.167 12 19.5c0 19.333 -15 29.666 -45 30.999z" />
    <glyph glyph-name="uni00B9" unicode="&#xb9;" horiz-adv-x="209" 
d="M100 297v246h-82v48c27.333 2.66699 49 7.16699 65 13.5s27.333 21.5 34 45.5h52v-353h-69z" />
    <glyph glyph-name="ordmasculine" unicode="&#xba;" horiz-adv-x="449" 
d="M52 469c0 27.333 4.66699 51.666 14 72.999s22 39.333 38 54s34.333 25.834 55 33.501s42 11.5 64 11.5c22.667 0 44.5 -3.83301 65.5 -11.5s39.5 -18.834 55.5 -33.501s28.833 -32.667 38.5 -54s14.5 -45.666 14.5 -72.999v-12c0 -28 -4.83301 -52.833 -14.5 -74.5
s-22.5 -39.834 -38.5 -54.501s-34.5 -25.834 -55.5 -33.501s-42.833 -11.5 -65.5 -11.5c-22 0 -43.333 3.83301 -64 11.5s-39 18.834 -55 33.501s-28.667 32.834 -38 54.501s-14 46.5 -14 74.5v12zM224 579c-32 0 -55.833 -11.167 -71.5 -33.5s-23.5 -49.833 -23.5 -82.5
c0 -33.333 7.83301 -61.166 23.5 -83.499s39.5 -33.5 71.5 -33.5s56 11.167 72 33.5s24 50.166 24 83.499c0 32.667 -8 60.167 -24 82.5s-40 33.5 -72 33.5z" />
    <glyph glyph-name="guillemotright" unicode="&#xbb;" horiz-adv-x="550" 
d="M305 248l-157 -188h-98v14l149 178l-149 179v14h98l157 -188v-9zM515 248l-157 -188h-98v14l149 178l-149 179v14h98l157 -188v-9z" />
    <glyph glyph-name="uni00BC" unicode="&#xbc;" horiz-adv-x="681" 
d="M100 297v246h-82v48c27.333 2.66699 49 7.16699 65 13.5s27.333 21.5 34 45.5h52v-353h-69zM358 132l173 221h74v-206h49v-60h-49v-87h-69v87h-171zM539 145l1.00098 88.998c0 6.66699 -0.166992 13.834 -0.5 21.501s0.166992 15.5 1.5 23.5h-2l-10 -16
c-3.33301 -5.33301 -7 -10.666 -11 -15.999l-57 -76c-3.33301 -4 -7 -8.5 -11 -13.5s-7.66699 -9.16699 -11 -12.5v-1c3.33301 0 7.16602 0.166992 11.499 0.5s8.83301 0.5 13.5 0.5h75zM84.001 -0.00195312v14.999c30 50.667 56.333 94.334 79 131.001
s43.5 70.167 62.5 100.5s37.333 59 55 86s36 55.667 55 86s39.833 64 62.5 101s49 80.5 79 130.5h66v-16l-393 -634h-66z" />
    <glyph glyph-name="uni00BD" unicode="&#xbd;" horiz-adv-x="676" 
d="M100 297v246h-82v48c27.333 2.66699 49 7.16699 65 13.5s27.333 21.5 34 45.5h52v-353h-69zM84 0v14.999c30 50.667 56.333 94.334 79 131.001s43.5 70.167 62.5 100.5s37.333 59 55 86s36 55.667 55 86s39.833 64 62.5 101s49 80.5 79 130.5h66v-16l-393 -634h-66z
M407 -0.000976562l-0.00390625 41.002c28.667 23.333 54 45.666 76 66.999s43.333 44.333 64 69c10.667 12.667 18.667 24.5 24 35.5s8 23.833 8 38.5c0 15.333 -4.83301 27.833 -14.5 37.5s-22.167 14.5 -37.5 14.5c-19.333 0 -33.666 -5.66699 -42.999 -17
s-13.666 -24.333 -12.999 -39c0 -5.33301 0.333008 -9.83301 1 -13.5s1 -7.16699 1 -10.5v-8h-63c0 4 -0.666992 9.5 -2 16.5s-2 14.167 -2 21.5c0 17.333 3.16699 32.5 9.5 45.5s15 24 26 33s23.667 15.833 38 20.5s29.5 7 45.5 7c36 0 65.667 -9 89 -27s35 -44.333 35 -79
v-7c0 -17.333 -4.5 -35.333 -13.5 -54s-21.5 -36.667 -37.5 -54c-13.333 -14.667 -27.166 -28.834 -41.499 -42.501s-27.166 -25.5 -38.499 -35.5v-1h133v-59h-244z" />
    <glyph glyph-name="uni00BE" unicode="&#xbe;" horiz-adv-x="758" 
d="M435 132l173 221h74v-206h49v-60h-49v-87h-69v87h-171zM616 145l1.00098 88.998c0 6.66699 -0.166992 13.834 -0.5 21.501s0.166992 15.5 1.5 23.5h-2l-10 -16c-3.33301 -5.33301 -7 -10.666 -11 -15.999l-57 -76c-3.33301 -4 -7 -8.5 -11 -13.5
s-7.66699 -9.16699 -11 -12.5v-1c3.33301 0 7.16602 0.166992 11.499 0.5s8.83301 0.5 13.5 0.5h75zM162.001 -0.00195312v14.999c30 50.667 56.333 94.334 79 131.001s43.5 70.167 62.5 100.5s37.333 59 55 86s36 55.667 55 86s39.833 64 62.5 101s49 80.5 79 130.5h66v-16
l-393 -634h-66zM92.001 501.997l36.0049 44c6 6 13 13.333 21 22s16 17 24 25v1c-7.33301 0 -15.5 -0.166992 -24.5 -0.5s-17.167 -0.5 -24.5 -0.5h-89v57h219v-41l-72 -88c27.333 -5.33301 49.166 -17.833 65.499 -37.5s24.5 -42.167 24.5 -67.5v-5
c0 -20.667 -3.33301 -38.5 -10 -53.5s-15.834 -27.5 -27.501 -37.5s-25 -17.333 -40 -22s-31.167 -7 -48.5 -7c-40 -0.666992 -70.833 8.5 -92.5 27.5s-32.834 45.167 -33.501 78.5v5h65c4 -36.667 24.333 -55 61 -55c19.333 0 34.166 5.83301 44.499 17.5
s15.166 27.167 14.499 46.5c-0.666992 17.333 -6.5 31.5 -17.5 42.5s-27.833 16.5 -50.5 16.5c-4 0 -9.33301 -0.166992 -16 -0.5s-11.667 -0.833008 -15 -1.5l-6 5z" />
    <glyph glyph-name="questiondown" unicode="&#xbf;" horiz-adv-x="461" 
d="M279 306l5.99902 -172l-7 -7c-18.667 -1.33301 -36.167 -4.16602 -52.5 -8.49902s-30.5 -10.833 -42.5 -19.5s-21.5 -19.667 -28.5 -33s-10.5 -30 -10.5 -50c0 -26.667 8.66699 -49.5 26 -68.5s40.333 -28.5 69 -28.5c18.667 0 34.334 2.5 47.001 7.5
s22.834 11.667 30.501 20s13.167 18 16.5 29s5 22.5 5 34.5h89v-8c-2 -27.333 -8.33301 -51 -19 -71s-24.5 -36.5 -41.5 -49.5s-36.5 -22.5 -58.5 -28.5s-45 -9 -69 -9c-26 0 -50.167 3.83301 -72.5 11.5s-42 18.667 -59 33s-30.333 31.666 -40 51.999
s-14.5 43.166 -14.5 68.499v6c0 21.333 3.83301 41.333 11.5 60s18.167 35.334 31.5 50.001s28.666 27.167 45.999 37.5s36 18.5 56 24.5l3 119h78zM174.999 455c0 18.667 6.5 33.334 19.5 44.001s28.167 16 45.5 16c18 0 33.5 -5.33301 46.5 -16s19.5 -25.334 19.5 -44.001
v-3c0 -19.333 -6.5 -34 -19.5 -44s-28.5 -15 -46.5 -15c-17.333 0 -32.5 5 -45.5 15s-19.5 24.667 -19.5 44v3z" />
    <glyph glyph-name="Agrave" unicode="&#xc0;" horiz-adv-x="663" 
d="M328 533l-5.50098 -16.502l-7 -21c-2.33301 -7 -4.5 -13.333 -6.5 -19s-3.66699 -9.83398 -5 -12.501l-91 -226h232l-92 228c-0.666992 2.66699 -2.16699 6.83398 -4.5 12.501s-4.66602 11.834 -6.99902 18.501s-4.5 13.334 -6.5 20.001s-3.66699 12 -5 16h-2z
M478.999 153.998h-299l-62 -154h-96v15l268 635h82l269 -635v-15h-100zM433.999 692.998l-235 113l46 81l218 -142z" />
    <glyph glyph-name="Aacute" unicode="&#xc1;" horiz-adv-x="663" 
d="M328 533l-5.50098 -16.502l-7 -21c-2.33301 -7 -4.5 -13.333 -6.5 -19s-3.66699 -9.83398 -5 -12.501l-91 -226h232l-92 228c-0.666992 2.66699 -2.16699 6.83398 -4.5 12.501s-4.66602 11.834 -6.99902 18.501s-4.5 13.334 -6.5 20.001s-3.66699 12 -5 16h-2z
M478.999 153.998h-299l-62 -154h-96v15l268 635h82l269 -635v-15h-100zM198.999 744.998l218 142l46 -81l-235 -113z" />
    <glyph glyph-name="Acircumflex" unicode="&#xc2;" horiz-adv-x="663" 
d="M328 533l-5.50098 -16.502l-7 -21c-2.33301 -7 -4.5 -13.333 -6.5 -19s-3.66699 -9.83398 -5 -12.501l-91 -226h232l-92 228c-0.666992 2.66699 -2.16699 6.83398 -4.5 12.501s-4.66602 11.834 -6.99902 18.501s-4.5 13.334 -6.5 20.001s-3.66699 12 -5 16h-2z
M478.999 153.998h-299l-62 -154h-96v15l268 635h82l269 -635v-15h-100zM171.999 754.998l158 115l163 -115l-35 -54l-128 76l-123 -76z" />
    <glyph glyph-name="Atilde" unicode="&#xc3;" horiz-adv-x="663" 
d="M328 533l-5.50098 -16.502l-7 -21c-2.33301 -7 -4.5 -13.333 -6.5 -19s-3.66699 -9.83398 -5 -12.501l-91 -226h232l-92 228c-0.666992 2.66699 -2.16699 6.83398 -4.5 12.501s-4.66602 11.834 -6.99902 18.501s-4.5 13.334 -6.5 20.001s-3.66699 12 -5 16h-2z
M478.999 153.998h-299l-62 -154h-96v15l268 635h82l269 -635v-15h-100zM161.999 709.998c0 15.333 2.16699 30.1689 6.5 44.502s10.666 27.333 18.999 39s19 21 32 28s27.833 10.5 44.5 10.5c15.333 0 28.5 -2.33301 39.5 -7s21.333 -9.83398 31 -15.501
s19.167 -10.834 28.5 -15.501s19.333 -7 30 -7c9.33301 0 18.5 2.66699 27.5 8s13.5 18.666 13.5 39.999h66c0 -14.667 -2.16699 -29.334 -6.5 -44.001s-10.666 -27.834 -18.999 -39.501s-18.833 -21 -31.5 -28s-27.667 -10.5 -45 -10.5c-14.667 0 -27.667 2.33301 -39 7
s-22 9.83398 -32 15.501s-19.5 10.834 -28.5 15.501s-19.167 7 -30.5 7c-9.33301 0 -18.333 -2.66699 -27 -8s-13 -18.666 -13 -39.999h-66z" />
    <glyph glyph-name="Adieresis" unicode="&#xc4;" horiz-adv-x="663" 
d="M328 533l-5.50098 -16.502l-7 -21c-2.33301 -7 -4.5 -13.333 -6.5 -19s-3.66699 -9.83398 -5 -12.501l-91 -226h232l-92 228c-0.666992 2.66699 -2.16699 6.83398 -4.5 12.501s-4.66602 11.834 -6.99902 18.501s-4.5 13.334 -6.5 20.001s-3.66699 12 -5 16h-2z
M478.999 153.998h-299l-62 -154h-96v15l268 635h82l269 -635v-15h-100zM236.999 828.998c17.333 0 32.332 -5.5 44.999 -16.5s19 -25.5 19 -43.5c0 -17.333 -6.33301 -31.666 -19 -42.999s-27.667 -17 -45 -17s-32.166 5.5 -44.499 16.5s-18.5 25.5 -18.5 43.5
c0 17.333 6 31.666 18 42.999s27 17 45 17zM424.998 828.998c17.333 0 32.166 -5.5 44.499 -16.5s18.5 -25.5 18.5 -43.5c0 -17.333 -6.16699 -31.666 -18.5 -42.999s-27.166 -17 -44.499 -17c-18 0 -33.167 5.5 -45.5 16.5s-18.5 25.5 -18.5 43.5
c0 17.333 6.16699 31.666 18.5 42.999s27.5 17 45.5 17z" />
    <glyph glyph-name="Aring" unicode="&#xc5;" horiz-adv-x="663" 
d="M374 709c0 12.667 -4 23.167 -12 31.5s-18.333 12.5 -31 12.5c-12 0 -22.167 -4.33301 -30.5 -13s-12.5 -19 -12.5 -31c0 -12.667 4.16699 -23.334 12.5 -32.001s18.5 -13 30.5 -13s22.167 4.33301 30.5 13s12.5 19.334 12.5 32.001zM328 533l-5.50098 -16.502l-7 -21
c-2.33301 -7 -4.5 -13.333 -6.5 -19s-3.66699 -9.83398 -5 -12.501l-91 -226h232l-92 228c-0.666992 2.66699 -2.16699 6.83398 -4.5 12.501s-4.66602 11.834 -6.99902 18.501s-4.5 13.334 -6.5 20.001s-3.66699 12 -5 16h-2zM117.999 -0.00195312h-95.998v15l258 611
c-14.667 8.66699 -26.334 20.167 -35.001 34.5s-13 30.5 -13 48.5c0 26.667 9.5 49.167 28.5 67.5s42.5 27.5 70.5 27.5s51.5 -9.16699 70.5 -27.5s28.5 -40.833 28.5 -67.5c0 -18 -4.33301 -34.333 -13 -49s-20.334 -26 -35.001 -34l259 -611v-15h-100l-62 154h-299z" />
    <glyph glyph-name="AE" unicode="&#xc6;" horiz-adv-x="920" 
d="M249 238h205v332h-2zM454 154h-257l-94 -154h-101v15l395 635h457v-84h-306v-193h263v-84h-263v-205h306v-84h-400v154z" />
    <glyph glyph-name="Ccedilla" unicode="&#xc7;" horiz-adv-x="693" 
d="M312 -185c-30.667 0 -56.6641 4.00293 -77.9971 12.0029v57h10c12 -4.66699 23.667 -7.83398 35 -9.50098s20.666 -2.5 27.999 -2.5c17.333 0 30 2.83301 38 8.5s12 12.167 12 19.5c0 19.333 -15 29.666 -45 30.999l-4 7l21 49c-40 4 -76.833 14.833 -110.5 32.5
s-62.834 40.667 -87.501 69s-44 61.833 -58 100.5s-21 81 -21 127v22c0 48 8.16699 92 24.5 132s38.5 74.5 66.5 103.5s60.833 51.5 98.5 67.5s78.167 24 121.5 24c42.667 0 80.667 -6 114 -18s62 -28.167 86 -48.5s43 -44.166 57 -71.499s22.333 -56.666 25 -87.999v-8h-92
c-4.66699 20 -11.334 39 -20.001 57s-20.334 33.667 -35.001 47s-33 24 -55 32s-49 12 -81 12c-32.667 0 -62.334 -6.16699 -89.001 -18.5s-49.167 -29.5 -67.5 -51.5s-32.5 -48.333 -42.5 -79s-15 -64.334 -15 -101.001c0 -38.667 5.33301 -73.834 16 -105.501
s25.667 -58.834 45 -81.501s42.5 -40.167 69.5 -52.5s56.833 -18.5 89.5 -18.5c30.667 0 57 4.16699 79 12.5s40.333 19.833 55 34.5s26.334 31.667 35.001 51s14.667 40 18 62h93v-8c-4 -34 -13.167 -65 -27.5 -93s-32.5 -52.167 -54.5 -72.5s-47.667 -36.666 -77 -48.999
s-61 -19.833 -95 -22.5l-11 -30c14.667 -4.66699 26.334 -11.834 35.001 -21.501s13 -21.5 13 -35.5s-3.5 -26.333 -10.5 -37s-16 -19.5 -27 -26.5s-23.667 -12.167 -38 -15.5s-28.833 -5 -43.5 -5z" />
    <glyph glyph-name="Egrave" unicode="&#xc8;" horiz-adv-x="554" 
d="M488 650v-84h-306v-193h263v-84h-263v-205h306v-84h-400v650h400zM380 693l-235 113l46 81l218 -142z" />
    <glyph glyph-name="Eacute" unicode="&#xc9;" horiz-adv-x="554" 
d="M488 650v-84h-306v-193h263v-84h-263v-205h306v-84h-400v650h400zM145 745l218 142l46 -81l-235 -113z" />
    <glyph glyph-name="Ecircumflex" unicode="&#xca;" horiz-adv-x="554" 
d="M488 650v-84h-306v-193h263v-84h-263v-205h306v-84h-400v650h400zM117 755l158 115l163 -115l-35 -54l-128 76l-123 -76z" />
    <glyph glyph-name="Edieresis" unicode="&#xcb;" horiz-adv-x="554" 
d="M488 650v-84h-306v-193h263v-84h-263v-205h306v-84h-400v650h400zM188 829c17.333 0 32.332 -5.5 44.999 -16.5s19 -25.5 19 -43.5c0 -17.333 -6.33301 -31.666 -19 -42.999s-27.667 -17 -45 -17s-32.166 5.5 -44.499 16.5s-18.5 25.5 -18.5 43.5
c0 17.333 6 31.666 18 42.999s27 17 45 17zM375.999 829c17.333 0 32.166 -5.5 44.499 -16.5s18.5 -25.5 18.5 -43.5c0 -17.333 -6.16699 -31.666 -18.5 -42.999s-27.166 -17 -44.499 -17c-18 0 -33.167 5.5 -45.5 16.5s-18.5 25.5 -18.5 43.5
c0 17.333 6.16699 31.666 18.5 42.999s27.5 17 45.5 17z" />
    <glyph glyph-name="Igrave" unicode="&#xcc;" horiz-adv-x="270" 
d="M88 0v650h94v-650h-94zM238 693l-235 113l46 81l218 -142z" />
    <glyph glyph-name="Iacute" unicode="&#xcd;" horiz-adv-x="270" 
d="M88 0v650h94v-650h-94zM3 745l218 142l46 -81l-235 -113z" />
    <glyph glyph-name="Icircumflex" unicode="&#xce;" horiz-adv-x="270" 
d="M88 0v650h94v-650h-94zM-24 755l158 115l163 -115l-35 -54l-128 76l-123 -76z" />
    <glyph glyph-name="Idieresis" unicode="&#xcf;" horiz-adv-x="270" 
d="M88 0v650h94v-650h-94zM41 829c17.333 0 32.332 -5.5 44.999 -16.5s19 -25.5 19 -43.5c0 -17.333 -6.33301 -31.666 -19 -42.999s-27.667 -17 -45 -17s-32.166 5.5 -44.499 16.5s-18.5 25.5 -18.5 43.5c0 17.333 6 31.666 18 42.999s27 17 45 17zM228.999 829
c17.333 0 32.166 -5.5 44.499 -16.5s18.5 -25.5 18.5 -43.5c0 -17.333 -6.16699 -31.666 -18.5 -42.999s-27.166 -17 -44.499 -17c-18 0 -33.167 5.5 -45.5 16.5s-18.5 25.5 -18.5 43.5c0 17.333 6.16699 31.666 18.5 42.999s27.5 17 45.5 17z" />
    <glyph glyph-name="Eth" unicode="&#xd0;" horiz-adv-x="695" 
d="M98 0l0.000976562 290.999h-90v79h90v280h227c97.333 0 175.666 -29.667 234.999 -89c25.333 -25.333 45.5 -57.666 60.5 -96.999s22.5 -82.333 22.5 -129v-22c0 -49.333 -8.33301 -93.333 -25 -132s-37.667 -70.667 -63 -96c-26 -26 -59.333 -46.667 -100 -62
s-84 -23 -130 -23h-227zM317.001 83.999c74 0 128.666 17.668 163.999 53.001c23.333 23.333 40.333 50.666 51 81.999s16 66.333 16 105c0 38 -5.33301 72.833 -16 104.5s-26.667 58.167 -48 79.5c-19.333 19.333 -42.666 33.833 -69.999 43.5s-60.333 14.5 -99 14.5h-123
v-196h172v-79h-172v-207h125z" />
    <glyph glyph-name="Ntilde" unicode="&#xd1;" horiz-adv-x="718" 
d="M88 0v650.002h100l263 -373c4.66699 -6 11 -15 19 -27s16.167 -24.5 24.5 -37.5s16.333 -25.333 24 -37s13.167 -20.5 16.5 -26.5h3c0 7.33301 -0.166992 17.166 -0.5 29.499s-0.666016 25.5 -0.999023 39.5s-0.5 27.333 -0.5 40v30v362h94v-650h-95l-265 373
c-4 6 -10.167 15 -18.5 27s-17 24.667 -26 38s-17.333 26 -25 38s-13.5 21 -17.5 27h-3c0 -6.66699 0.166992 -16.334 0.5 -29.001s0.666016 -26 0.999023 -40s0.5 -27.5 0.5 -40.5v-30.5v-363h-94zM190 710.002c0 15.333 2.16699 30.1689 6.5 44.502
s10.666 27.333 18.999 39s19 21 32 28s27.833 10.5 44.5 10.5c15.333 0 28.5 -2.33301 39.5 -7s21.333 -9.83398 31 -15.501s19.167 -10.834 28.5 -15.501s19.333 -7 30 -7c9.33301 0 18.5 2.66699 27.5 8s13.5 18.666 13.5 39.999h66
c0 -14.667 -2.16699 -29.334 -6.5 -44.001s-10.666 -27.834 -18.999 -39.501s-18.833 -21 -31.5 -28s-27.667 -10.5 -45 -10.5c-14.667 0 -27.667 2.33301 -39 7s-22 9.83398 -32 15.501s-19.5 10.834 -28.5 15.501s-19.167 7 -30.5 7c-9.33301 0 -18.333 -2.66699 -27 -8
s-13 -18.666 -13 -39.999h-66z" />
    <glyph glyph-name="Ograve" unicode="&#xd2;" horiz-adv-x="741" 
d="M689 313c0 -48.667 -8.16992 -93.167 -24.5029 -133.5s-38.833 -74.833 -67.5 -103.5s-62.334 -51 -101.001 -67s-80.334 -24 -125.001 -24s-86.5 8 -125.5 24s-72.833 38.333 -101.5 67s-51.167 63.167 -67.5 103.5s-24.5 84.833 -24.5 133.5v24
c0 48.667 8.33301 93.167 25 133.5s39.334 74.833 68.001 103.5s62.334 51 101.001 67s80.334 24 125.001 24c44 0 85.333 -8 124 -24s72.334 -38.333 101.001 -67s51.334 -63.167 68.001 -103.5s25 -84.833 25 -133.5v-24zM370.997 71c36 0 67.834 6.66699 95.501 20
s51 31.5 70 54.5s33.333 50 43 81s14.5 63.833 14.5 98.5s-4.83301 67.5 -14.5 98.5s-23.834 58 -42.501 81s-42 41.167 -70 54.5s-60.333 20 -97 20s-69 -6.66699 -97 -20s-51.333 -31.5 -70 -54.5s-32.667 -50 -42 -81s-14 -63.833 -14 -98.5s5 -67.5 15 -98.5
s24.5 -58 43.5 -81s42.333 -41.167 70 -54.5s59.5 -20 95.5 -20zM472.998 693l-235 113l46 81l218 -142z" />
    <glyph glyph-name="Oacute" unicode="&#xd3;" horiz-adv-x="741" 
d="M689 313c0 -48.667 -8.16992 -93.167 -24.5029 -133.5s-38.833 -74.833 -67.5 -103.5s-62.334 -51 -101.001 -67s-80.334 -24 -125.001 -24s-86.5 8 -125.5 24s-72.833 38.333 -101.5 67s-51.167 63.167 -67.5 103.5s-24.5 84.833 -24.5 133.5v24
c0 48.667 8.33301 93.167 25 133.5s39.334 74.833 68.001 103.5s62.334 51 101.001 67s80.334 24 125.001 24c44 0 85.333 -8 124 -24s72.334 -38.333 101.001 -67s51.334 -63.167 68.001 -103.5s25 -84.833 25 -133.5v-24zM370.997 71c36 0 67.834 6.66699 95.501 20
s51 31.5 70 54.5s33.333 50 43 81s14.5 63.833 14.5 98.5s-4.83301 67.5 -14.5 98.5s-23.834 58 -42.501 81s-42 41.167 -70 54.5s-60.333 20 -97 20s-69 -6.66699 -97 -20s-51.333 -31.5 -70 -54.5s-32.667 -50 -42 -81s-14 -63.833 -14 -98.5s5 -67.5 15 -98.5
s24.5 -58 43.5 -81s42.333 -41.167 70 -54.5s59.5 -20 95.5 -20zM237.998 745l218 142l46 -81l-235 -113z" />
    <glyph glyph-name="Ocircumflex" unicode="&#xd4;" horiz-adv-x="741" 
d="M689 313c0 -48.667 -8.16992 -93.167 -24.5029 -133.5s-38.833 -74.833 -67.5 -103.5s-62.334 -51 -101.001 -67s-80.334 -24 -125.001 -24s-86.5 8 -125.5 24s-72.833 38.333 -101.5 67s-51.167 63.167 -67.5 103.5s-24.5 84.833 -24.5 133.5v24
c0 48.667 8.33301 93.167 25 133.5s39.334 74.833 68.001 103.5s62.334 51 101.001 67s80.334 24 125.001 24c44 0 85.333 -8 124 -24s72.334 -38.333 101.001 -67s51.334 -63.167 68.001 -103.5s25 -84.833 25 -133.5v-24zM370.997 71c36 0 67.834 6.66699 95.501 20
s51 31.5 70 54.5s33.333 50 43 81s14.5 63.833 14.5 98.5s-4.83301 67.5 -14.5 98.5s-23.834 58 -42.501 81s-42 41.167 -70 54.5s-60.333 20 -97 20s-69 -6.66699 -97 -20s-51.333 -31.5 -70 -54.5s-32.667 -50 -42 -81s-14 -63.833 -14 -98.5s5 -67.5 15 -98.5
s24.5 -58 43.5 -81s42.333 -41.167 70 -54.5s59.5 -20 95.5 -20zM210.998 755l158 115l163 -115l-35 -54l-128 76l-123 -76z" />
    <glyph glyph-name="Otilde" unicode="&#xd5;" horiz-adv-x="741" 
d="M689 313c0 -48.667 -8.16992 -93.167 -24.5029 -133.5s-38.833 -74.833 -67.5 -103.5s-62.334 -51 -101.001 -67s-80.334 -24 -125.001 -24s-86.5 8 -125.5 24s-72.833 38.333 -101.5 67s-51.167 63.167 -67.5 103.5s-24.5 84.833 -24.5 133.5v24
c0 48.667 8.33301 93.167 25 133.5s39.334 74.833 68.001 103.5s62.334 51 101.001 67s80.334 24 125.001 24c44 0 85.333 -8 124 -24s72.334 -38.333 101.001 -67s51.334 -63.167 68.001 -103.5s25 -84.833 25 -133.5v-24zM370.997 71c36 0 67.834 6.66699 95.501 20
s51 31.5 70 54.5s33.333 50 43 81s14.5 63.833 14.5 98.5s-4.83301 67.5 -14.5 98.5s-23.834 58 -42.501 81s-42 41.167 -70 54.5s-60.333 20 -97 20s-69 -6.66699 -97 -20s-51.333 -31.5 -70 -54.5s-32.667 -50 -42 -81s-14 -63.833 -14 -98.5s5 -67.5 15 -98.5
s24.5 -58 43.5 -81s42.333 -41.167 70 -54.5s59.5 -20 95.5 -20zM200.998 710c0 15.333 2.16699 30.1689 6.5 44.502s10.666 27.333 18.999 39s19 21 32 28s27.833 10.5 44.5 10.5c15.333 0 28.5 -2.33301 39.5 -7s21.333 -9.83398 31 -15.501s19.167 -10.834 28.5 -15.501
s19.333 -7 30 -7c9.33301 0 18.5 2.66699 27.5 8s13.5 18.666 13.5 39.999h66c0 -14.667 -2.16699 -29.334 -6.5 -44.001s-10.666 -27.834 -18.999 -39.501s-18.833 -21 -31.5 -28s-27.667 -10.5 -45 -10.5c-14.667 0 -27.667 2.33301 -39 7s-22 9.83398 -32 15.501
s-19.5 10.834 -28.5 15.501s-19.167 7 -30.5 7c-9.33301 0 -18.333 -2.66699 -27 -8s-13 -18.666 -13 -39.999h-66z" />
    <glyph glyph-name="Odieresis" unicode="&#xd6;" horiz-adv-x="741" 
d="M689 313c0 -48.667 -8.16992 -93.167 -24.5029 -133.5s-38.833 -74.833 -67.5 -103.5s-62.334 -51 -101.001 -67s-80.334 -24 -125.001 -24s-86.5 8 -125.5 24s-72.833 38.333 -101.5 67s-51.167 63.167 -67.5 103.5s-24.5 84.833 -24.5 133.5v24
c0 48.667 8.33301 93.167 25 133.5s39.334 74.833 68.001 103.5s62.334 51 101.001 67s80.334 24 125.001 24c44 0 85.333 -8 124 -24s72.334 -38.333 101.001 -67s51.334 -63.167 68.001 -103.5s25 -84.833 25 -133.5v-24zM370.997 71c36 0 67.834 6.66699 95.501 20
s51 31.5 70 54.5s33.333 50 43 81s14.5 63.833 14.5 98.5s-4.83301 67.5 -14.5 98.5s-23.834 58 -42.501 81s-42 41.167 -70 54.5s-60.333 20 -97 20s-69 -6.66699 -97 -20s-51.333 -31.5 -70 -54.5s-32.667 -50 -42 -81s-14 -63.833 -14 -98.5s5 -67.5 15 -98.5
s24.5 -58 43.5 -81s42.333 -41.167 70 -54.5s59.5 -20 95.5 -20zM275.998 829c17.333 0 32.332 -5.5 44.999 -16.5s19 -25.5 19 -43.5c0 -17.333 -6.33301 -31.666 -19 -42.999s-27.667 -17 -45 -17s-32.166 5.5 -44.499 16.5s-18.5 25.5 -18.5 43.5
c0 17.333 6 31.666 18 42.999s27 17 45 17zM463.997 829c17.333 0 32.166 -5.5 44.499 -16.5s18.5 -25.5 18.5 -43.5c0 -17.333 -6.16699 -31.666 -18.5 -42.999s-27.166 -17 -44.499 -17c-18 0 -33.167 5.5 -45.5 16.5s-18.5 25.5 -18.5 43.5
c0 17.333 6.16699 31.666 18.5 42.999s27.5 17 45.5 17z" />
    <glyph glyph-name="multiply" unicode="&#xd7;" horiz-adv-x="623" 
d="M130 567l181 -181l182 183l60 -60l-183 -182l182 -181l-59 -59l-181 181l-182 -181l-60 60l182 181l-180 180z" />
    <glyph glyph-name="Oslash" unicode="&#xd8;" horiz-adv-x="741" 
d="M147 325c0 -42 7 -80.833 21 -116.5s35 -65.167 63 -88.5l194 453c-16.667 4 -35 6 -55 6c-36.667 0 -69 -6.66699 -97 -20s-51.333 -31.5 -70 -54.5s-32.667 -50 -42 -81s-14 -63.833 -14 -98.5zM371 71c36 0 67.833 6.66797 95.5 20.001s51 31.5 70 54.5
s33.333 50 43 81s14.5 63.833 14.5 98.5c0 45.333 -7.83301 86.666 -23.5 123.999s-39.167 67.333 -70.5 90l-197 -458c20 -6.66699 42.667 -10 68 -10zM371 -14.999c-37.333 0 -71.6689 5.33398 -103.002 16.001l-28 -66h-82v15l37 85c-44 28 -78.833 65.833 -104.5 113.5
s-38.5 102.5 -38.5 164.5v24c0 48.667 8.33301 93.167 25 133.5s39.334 74.833 68.001 103.5s62.334 51 101.001 67s80.334 24 125.001 24c30.667 0 60.334 -4 89.001 -12l26 62h83v-15l-34 -79c46.667 -27.333 84 -65.333 112 -114s42 -105.334 42 -170.001v-24
c0 -48.667 -8.16699 -93.167 -24.5 -133.5s-38.833 -74.833 -67.5 -103.5s-62.334 -51 -101.001 -67s-80.334 -24 -125.001 -24z" />
    <glyph glyph-name="Ugrave" unicode="&#xd9;" horiz-adv-x="671" 
d="M588 650l0.000976562 -422.999c0 -83.333 -21.833 -144.5 -65.5 -183.5s-105.834 -58.5 -186.501 -58.5c-81.333 0 -143.833 19.5 -187.5 58.5s-65.5 100.167 -65.5 183.5v423h94v-435c0 -52.667 14.333 -90.334 43 -113.001s68 -34 118 -34
c45.333 0 82.833 11.5 112.5 34.5s44.5 60.5 44.5 112.5v435h93zM438.001 693.001l-235 113l46 81l218 -142z" />
    <glyph glyph-name="Uacute" unicode="&#xda;" horiz-adv-x="671" 
d="M588 650l0.000976562 -422.999c0 -83.333 -21.833 -144.5 -65.5 -183.5s-105.834 -58.5 -186.501 -58.5c-81.333 0 -143.833 19.5 -187.5 58.5s-65.5 100.167 -65.5 183.5v423h94v-435c0 -52.667 14.333 -90.334 43 -113.001s68 -34 118 -34
c45.333 0 82.833 11.5 112.5 34.5s44.5 60.5 44.5 112.5v435h93zM203.001 745.001l218 142l46 -81l-235 -113z" />
    <glyph glyph-name="Ucircumflex" unicode="&#xdb;" horiz-adv-x="671" 
d="M588 650l0.000976562 -422.999c0 -83.333 -21.833 -144.5 -65.5 -183.5s-105.834 -58.5 -186.501 -58.5c-81.333 0 -143.833 19.5 -187.5 58.5s-65.5 100.167 -65.5 183.5v423h94v-435c0 -52.667 14.333 -90.334 43 -113.001s68 -34 118 -34
c45.333 0 82.833 11.5 112.5 34.5s44.5 60.5 44.5 112.5v435h93zM182.001 755.001l158 115l163 -115l-35 -54l-128 76l-123 -76z" />
    <glyph glyph-name="Udieresis" unicode="&#xdc;" horiz-adv-x="671" 
d="M588 650l0.000976562 -422.999c0 -83.333 -21.833 -144.5 -65.5 -183.5s-105.834 -58.5 -186.501 -58.5c-81.333 0 -143.833 19.5 -187.5 58.5s-65.5 100.167 -65.5 183.5v423h94v-435c0 -52.667 14.333 -90.334 43 -113.001s68 -34 118 -34
c45.333 0 82.833 11.5 112.5 34.5s44.5 60.5 44.5 112.5v435h93zM246.001 829.001c17.333 0 32.332 -5.5 44.999 -16.5s19 -25.5 19 -43.5c0 -17.333 -6.33301 -31.666 -19 -42.999s-27.667 -17 -45 -17s-32.166 5.5 -44.499 16.5s-18.5 25.5 -18.5 43.5
c0 17.333 6 31.666 18 42.999s27 17 45 17zM434 829.001c17.333 0 32.166 -5.5 44.499 -16.5s18.5 -25.5 18.5 -43.5c0 -17.333 -6.16699 -31.666 -18.5 -42.999s-27.166 -17 -44.499 -17c-18 0 -33.167 5.5 -45.5 16.5s-18.5 25.5 -18.5 43.5
c0 17.333 6.16699 31.666 18.5 42.999s27.5 17 45.5 17z" />
    <glyph glyph-name="Yacute" unicode="&#xdd;" horiz-adv-x="608" 
d="M257 0v254l-239 381v15h104l185 -307l186 307h97v-15l-238 -381v-254h-95zM172 747l218 142l46 -81l-235 -113z" />
    <glyph glyph-name="Thorn" unicode="&#xde;" horiz-adv-x="602" 
d="M182 471v-284.998h166c22 0 41 3.83301 57 11.5s29 18.167 39 31.5s17.333 28.666 22 45.999s7 35.666 7 54.999c0 18.667 -2.66699 36.5 -8 53.5s-13.5 32 -24.5 45s-24.667 23.333 -41 31s-35.833 11.5 -58.5 11.5h-159zM182 102.002l0.00195312 -102h-94v650h94v-94
l154 -1c32 0 62.167 -5 90.5 -15s53 -24.167 74 -42.5s37.5 -41 49.5 -68s18 -57.833 18 -92.5v-18c0 -34.667 -5.66699 -65.5 -17 -92.5s-26.833 -49.667 -46.5 -68s-42.834 -32.333 -69.501 -42s-55.334 -14.5 -86.001 -14.5h-167z" />
    <glyph glyph-name="germandbls" unicode="&#xdf;" horiz-adv-x="602" 
d="M427 385c18 -5.33301 34.668 -13.8311 50.001 -25.498s28.833 -25.334 40.5 -41.001s20.667 -33.167 27 -52.5s9.5 -39.666 9.5 -60.999v-12c0 -30 -4.83301 -57.667 -14.5 -83s-23.5 -47.333 -41.5 -66s-39.833 -33 -65.5 -43s-54.5 -15 -86.5 -15
c-13.333 0 -30.166 1.16699 -50.499 3.5s-37.166 6.16602 -50.499 11.499v84h16c10.667 -5.33301 23.167 -9.66602 37.5 -12.999s30.166 -5 47.499 -5c38 0 66.5 12 85.5 36s28.5 56.333 28.5 97c0 17.333 -3 33.666 -9 48.999s-14.5 28.666 -25.5 39.999s-24 20.5 -39 27.5
s-31.5 10.5 -49.5 10.5h-73v80h34c18 0 33.5 3.33301 46.5 10s23.833 15.5 32.5 26.5s15.167 23.833 19.5 38.5s6.5 30.334 6.5 47.001c0 30 -9.33301 54.833 -28 74.5s-47.334 29.5 -86.001 29.5c-31.333 0 -55.333 -5.83301 -72 -17.5s-28.5 -26 -35.5 -43
s-10.833 -35.333 -11.5 -55s-1 -37.834 -1 -54.501v-463h-91v513c0 60 18.167 108.667 54.5 146s88.833 56 157.5 56c27.333 0 53.5 -3.66699 78.5 -11s47.167 -18.333 66.5 -33s34.666 -33.167 45.999 -55.5s17 -48.5 17 -78.5v-13c0 -28 -7 -54.333 -21 -79
s-30.667 -44 -50 -58v-2z" />
    <glyph glyph-name="agrave" unicode="&#xe0;" horiz-adv-x="535" 
d="M244 61c14 0 28.8311 2.83105 44.498 8.49805s30 13.834 43 24.501s23.667 23.5 32 38.5s12.5 31.5 12.5 49.5v40c-15.333 5.33301 -32.166 9.5 -50.499 12.5s-36.166 4.5 -53.499 4.5c-15.333 0 -30.5 -1.66699 -45.5 -5s-28.333 -8.66602 -40 -15.999
s-21.167 -16.833 -28.5 -28.5s-11 -25.5 -11 -41.5c0 -28 8.83301 -49.5 26.5 -64.5s41.167 -22.5 70.5 -22.5zM379.998 54.998c-16.667 -22 -38.665 -39.3359 -65.998 -52.0029s-56 -19 -86 -19c-24 0 -46.5 3.66699 -67.5 11s-39.333 17.833 -55 31.5s-28 30 -37 49
s-13.5 40.167 -13.5 63.5v7c0 23.333 3.66699 43.5 11 60.5s17.666 32.167 30.999 45.5c9.33301 10 20.666 18.667 33.999 26s27.666 13.333 42.999 18s31 8.16699 47 10.5s31.333 3.5 46 3.5c18 0 36.5 -1.16699 55.5 -3.5s36.833 -5.83301 53.5 -10.5v37
c0 34 -8.66699 60.5 -26 79.5s-45 28.5 -83 28.5c-28.667 0 -52.167 -6.5 -70.5 -19.5s-28.166 -33.5 -29.499 -61.5h-86v8c2.66699 26 9.5 48.333 20.5 67s24.833 33.834 41.5 45.501s36 20.334 58 26.001s45.333 8.5 70 8.5c28.667 0 55 -3.5 79 -10.5
s44.667 -18.5 62 -34.5s30.833 -36.667 40.5 -62s14.5 -56.666 14.5 -93.999v-314h-68l-17 55h-2zM370 542.995l-235 113l46 81l218 -142z" />
    <glyph glyph-name="aacute" unicode="&#xe1;" horiz-adv-x="535" 
d="M244 61c14 0 28.8311 2.83105 44.498 8.49805s30 13.834 43 24.501s23.667 23.5 32 38.5s12.5 31.5 12.5 49.5v40c-15.333 5.33301 -32.166 9.5 -50.499 12.5s-36.166 4.5 -53.499 4.5c-15.333 0 -30.5 -1.66699 -45.5 -5s-28.333 -8.66602 -40 -15.999
s-21.167 -16.833 -28.5 -28.5s-11 -25.5 -11 -41.5c0 -28 8.83301 -49.5 26.5 -64.5s41.167 -22.5 70.5 -22.5zM379.998 54.998c-16.667 -22 -38.665 -39.3359 -65.998 -52.0029s-56 -19 -86 -19c-24 0 -46.5 3.66699 -67.5 11s-39.333 17.833 -55 31.5s-28 30 -37 49
s-13.5 40.167 -13.5 63.5v7c0 23.333 3.66699 43.5 11 60.5s17.666 32.167 30.999 45.5c9.33301 10 20.666 18.667 33.999 26s27.666 13.333 42.999 18s31 8.16699 47 10.5s31.333 3.5 46 3.5c18 0 36.5 -1.16699 55.5 -3.5s36.833 -5.83301 53.5 -10.5v37
c0 34 -8.66699 60.5 -26 79.5s-45 28.5 -83 28.5c-28.667 0 -52.167 -6.5 -70.5 -19.5s-28.166 -33.5 -29.499 -61.5h-86v8c2.66699 26 9.5 48.333 20.5 67s24.833 33.834 41.5 45.501s36 20.334 58 26.001s45.333 8.5 70 8.5c28.667 0 55 -3.5 79 -10.5
s44.667 -18.5 62 -34.5s30.833 -36.667 40.5 -62s14.5 -56.666 14.5 -93.999v-314h-68l-17 55h-2zM135 594.995l218 142l46 -81l-235 -113z" />
    <glyph glyph-name="acircumflex" unicode="&#xe2;" horiz-adv-x="535" 
d="M244 61c14 0 28.8311 2.83105 44.498 8.49805s30 13.834 43 24.501s23.667 23.5 32 38.5s12.5 31.5 12.5 49.5v40c-15.333 5.33301 -32.166 9.5 -50.499 12.5s-36.166 4.5 -53.499 4.5c-15.333 0 -30.5 -1.66699 -45.5 -5s-28.333 -8.66602 -40 -15.999
s-21.167 -16.833 -28.5 -28.5s-11 -25.5 -11 -41.5c0 -28 8.83301 -49.5 26.5 -64.5s41.167 -22.5 70.5 -22.5zM379.998 54.998c-16.667 -22 -38.665 -39.3359 -65.998 -52.0029s-56 -19 -86 -19c-24 0 -46.5 3.66699 -67.5 11s-39.333 17.833 -55 31.5s-28 30 -37 49
s-13.5 40.167 -13.5 63.5v7c0 23.333 3.66699 43.5 11 60.5s17.666 32.167 30.999 45.5c9.33301 10 20.666 18.667 33.999 26s27.666 13.333 42.999 18s31 8.16699 47 10.5s31.333 3.5 46 3.5c18 0 36.5 -1.16699 55.5 -3.5s36.833 -5.83301 53.5 -10.5v37
c0 34 -8.66699 60.5 -26 79.5s-45 28.5 -83 28.5c-28.667 0 -52.167 -6.5 -70.5 -19.5s-28.166 -33.5 -29.499 -61.5h-86v8c2.66699 26 9.5 48.333 20.5 67s24.833 33.834 41.5 45.501s36 20.334 58 26.001s45.333 8.5 70 8.5c28.667 0 55 -3.5 79 -10.5
s44.667 -18.5 62 -34.5s30.833 -36.667 40.5 -62s14.5 -56.666 14.5 -93.999v-314h-68l-17 55h-2zM108 604.995l158 115l163 -115l-35 -54l-128 76l-123 -76z" />
    <glyph glyph-name="atilde" unicode="&#xe3;" horiz-adv-x="535" 
d="M244 61c14 0 28.8311 2.83105 44.498 8.49805s30 13.834 43 24.501s23.667 23.5 32 38.5s12.5 31.5 12.5 49.5v40c-15.333 5.33301 -32.166 9.5 -50.499 12.5s-36.166 4.5 -53.499 4.5c-15.333 0 -30.5 -1.66699 -45.5 -5s-28.333 -8.66602 -40 -15.999
s-21.167 -16.833 -28.5 -28.5s-11 -25.5 -11 -41.5c0 -28 8.83301 -49.5 26.5 -64.5s41.167 -22.5 70.5 -22.5zM379.998 54.998c-16.667 -22 -38.665 -39.3359 -65.998 -52.0029s-56 -19 -86 -19c-24 0 -46.5 3.66699 -67.5 11s-39.333 17.833 -55 31.5s-28 30 -37 49
s-13.5 40.167 -13.5 63.5v7c0 23.333 3.66699 43.5 11 60.5s17.666 32.167 30.999 45.5c9.33301 10 20.666 18.667 33.999 26s27.666 13.333 42.999 18s31 8.16699 47 10.5s31.333 3.5 46 3.5c18 0 36.5 -1.16699 55.5 -3.5s36.833 -5.83301 53.5 -10.5v37
c0 34 -8.66699 60.5 -26 79.5s-45 28.5 -83 28.5c-28.667 0 -52.167 -6.5 -70.5 -19.5s-28.166 -33.5 -29.499 -61.5h-86v8c2.66699 26 9.5 48.333 20.5 67s24.833 33.834 41.5 45.501s36 20.334 58 26.001s45.333 8.5 70 8.5c28.667 0 55 -3.5 79 -10.5
s44.667 -18.5 62 -34.5s30.833 -36.667 40.5 -62s14.5 -56.666 14.5 -93.999v-314h-68l-17 55h-2zM98 559.995c0 15.333 2.16699 30.1689 6.5 44.502s10.666 27.333 18.999 39s19 21 32 28s27.833 10.5 44.5 10.5c15.333 0 28.5 -2.33301 39.5 -7
s21.333 -9.83398 31 -15.501s19.167 -10.834 28.5 -15.501s19.333 -7 30 -7c9.33301 0 18.5 2.66699 27.5 8s13.5 18.666 13.5 39.999h66c0 -14.667 -2.16699 -29.334 -6.5 -44.001s-10.666 -27.834 -18.999 -39.501s-18.833 -21 -31.5 -28s-27.667 -10.5 -45 -10.5
c-14.667 0 -27.667 2.33301 -39 7s-22 9.83398 -32 15.501s-19.5 10.834 -28.5 15.501s-19.167 7 -30.5 7c-9.33301 0 -18.333 -2.66699 -27 -8s-13 -18.666 -13 -39.999h-66z" />
    <glyph glyph-name="adieresis" unicode="&#xe4;" horiz-adv-x="535" 
d="M244 61c14 0 28.8311 2.83105 44.498 8.49805s30 13.834 43 24.501s23.667 23.5 32 38.5s12.5 31.5 12.5 49.5v40c-15.333 5.33301 -32.166 9.5 -50.499 12.5s-36.166 4.5 -53.499 4.5c-15.333 0 -30.5 -1.66699 -45.5 -5s-28.333 -8.66602 -40 -15.999
s-21.167 -16.833 -28.5 -28.5s-11 -25.5 -11 -41.5c0 -28 8.83301 -49.5 26.5 -64.5s41.167 -22.5 70.5 -22.5zM379.998 54.998c-16.667 -22 -38.665 -39.3359 -65.998 -52.0029s-56 -19 -86 -19c-24 0 -46.5 3.66699 -67.5 11s-39.333 17.833 -55 31.5s-28 30 -37 49
s-13.5 40.167 -13.5 63.5v7c0 23.333 3.66699 43.5 11 60.5s17.666 32.167 30.999 45.5c9.33301 10 20.666 18.667 33.999 26s27.666 13.333 42.999 18s31 8.16699 47 10.5s31.333 3.5 46 3.5c18 0 36.5 -1.16699 55.5 -3.5s36.833 -5.83301 53.5 -10.5v37
c0 34 -8.66699 60.5 -26 79.5s-45 28.5 -83 28.5c-28.667 0 -52.167 -6.5 -70.5 -19.5s-28.166 -33.5 -29.499 -61.5h-86v8c2.66699 26 9.5 48.333 20.5 67s24.833 33.834 41.5 45.501s36 20.334 58 26.001s45.333 8.5 70 8.5c28.667 0 55 -3.5 79 -10.5
s44.667 -18.5 62 -34.5s30.833 -36.667 40.5 -62s14.5 -56.666 14.5 -93.999v-314h-68l-17 55h-2zM173 678.995c17.333 0 32.332 -5.5 44.999 -16.5s19 -25.5 19 -43.5c0 -17.333 -6.33301 -31.666 -19 -42.999s-27.667 -17 -45 -17s-32.166 5.5 -44.499 16.5
s-18.5 25.5 -18.5 43.5c0 17.333 6 31.666 18 42.999s27 17 45 17zM360.999 678.995c17.333 0 32.166 -5.5 44.499 -16.5s18.5 -25.5 18.5 -43.5c0 -17.333 -6.16699 -31.666 -18.5 -42.999s-27.166 -17 -44.499 -17c-18 0 -33.167 5.5 -45.5 16.5s-18.5 25.5 -18.5 43.5
c0 17.333 6.16699 31.666 18.5 42.999s27.5 17 45.5 17z" />
    <glyph glyph-name="aring" unicode="&#xe5;" horiz-adv-x="535" 
d="M316 579c0 12.667 -4 23.167 -12 31.5s-18.333 12.5 -31 12.5c-12 0 -22.167 -4.33301 -30.5 -13s-12.5 -19 -12.5 -31c0 -12.667 4.16699 -23.334 12.5 -32.001s18.5 -13 30.5 -13s22.167 4.33301 30.5 13s12.5 19.334 12.5 32.001zM244 61
c14 0 28.8311 2.83105 44.498 8.49805s30 13.834 43 24.501s23.667 23.5 32 38.5s12.5 31.5 12.5 49.5v40c-15.333 5.33301 -32.166 9.5 -50.499 12.5s-36.166 4.5 -53.499 4.5c-15.333 0 -30.5 -1.66699 -45.5 -5s-28.333 -8.66602 -40 -15.999
s-21.167 -16.833 -28.5 -28.5s-11 -25.5 -11 -41.5c0 -28 8.83301 -49.5 26.5 -64.5s41.167 -22.5 70.5 -22.5zM379.998 54.998c-16.667 -22 -38.665 -39.334 -65.998 -52.001s-56 -19 -86 -19c-24 0 -46.5 3.66699 -67.5 11s-39.333 17.833 -55 31.5s-28 30 -37 49
s-13.5 40.167 -13.5 63.5v7c0 23.333 3.66699 43.5 11 60.5s17.666 32.167 30.999 45.5c9.33301 10 20.666 18.667 33.999 26s27.666 13.333 42.999 18s31 8.16699 47 10.5s31.333 3.5 46 3.5c18 0 36.5 -1.16699 55.5 -3.5s36.833 -5.83301 53.5 -10.5v37
c0 34 -8.66699 60.5 -26 79.5s-45 28.5 -83 28.5c-28.667 0 -52.167 -6.5 -70.5 -19.5s-28.166 -33.5 -29.499 -61.5h-86v8c4 40 17.333 71.333 40 94s51 38 85 46c-21.333 18 -32 41.667 -32 71c0 26.667 9.5 49.167 28.5 67.5s42.5 27.5 70.5 27.5
s51.5 -9.16699 70.5 -27.5s28.5 -40.833 28.5 -67.5c0 -28.667 -10.667 -52.667 -32 -72c38.667 -9.33301 69.5 -29.166 92.5 -59.499s34.5 -74.833 34.5 -133.5v-314h-68l-17 55h-2z" />
    <glyph glyph-name="ae" unicode="&#xe6;" horiz-adv-x="863" 
d="M718 297c-1.33301 17.333 -4.66504 34.333 -9.99805 51s-12.833 31.5 -22.5 44.5s-21.834 23.667 -36.501 32s-32.334 12.5 -53.001 12.5c-41.333 0 -71.833 -12.833 -91.5 -38.5s-32.5 -59.5 -38.5 -101.5h252zM596.001 -16c-38.667 0 -73.3301 7.99902 -103.997 23.999
s-55.667 38.667 -75 68c-24 -36 -51.333 -60.333 -82 -73s-63 -19 -97 -19c-24 0 -47 3.66699 -69 11s-41.5 17.833 -58.5 31.5s-30.5 30 -40.5 49s-15 40.167 -15 63.5v7c0 23.333 3.66699 43.5 11 60.5s17.666 32.167 30.999 45.5c9.33301 10 20.5 18.667 33.5 26
s26.833 13.333 41.5 18s29.834 8.16699 45.501 10.5s30.5 3.5 44.5 3.5c17.333 0 35.666 -1.16699 54.999 -3.5s37.333 -5.83301 54 -10.5v37c0 34 -9.16699 60.5 -27.5 79.5s-45.5 28.5 -81.5 28.5c-27.333 0 -49.666 -6.5 -66.999 -19.5s-26.666 -33.5 -27.999 -61.5h-86
v8c2.66699 26 9.33398 48.333 20.001 67s24.167 33.834 40.5 45.501s35.166 20.334 56.499 26.001s44 8.5 68 8.5c35.333 0 67.166 -5.66699 95.499 -17s51.166 -30 68.499 -56c19.333 23.333 42.833 41.333 70.5 54s58.5 19 92.5 19c36 0 67.5 -6.66699 94.5 -20
s49.667 -31.666 68 -54.999s32.166 -50.5 41.499 -81.5s14 -64.167 14 -99.5v-18.5c0 -5 -0.333008 -11.167 -1 -18.5h-346c2 -22.667 6 -43.834 12 -63.501s14.333 -36.667 25 -51s24 -25.5 40 -33.5s35 -12 57 -12c30.667 0 55.167 6.66699 73.5 20
s32.166 32.666 41.499 57.999h90c-11.333 -50 -35.333 -88.5 -72 -115.5s-81.667 -40.5 -135 -40.5zM245.005 60.999c15.333 0 30.499 2.83105 45.499 8.49805s28.5 13.834 40.5 24.501s21.667 23.5 29 38.5s11 31.5 11 49.5v40c-16 5.33301 -33.167 9.5 -51.5 12.5
s-35.833 4.5 -52.5 4.5c-14.667 0 -29.167 -1.66699 -43.5 -5s-27.166 -8.66602 -38.499 -15.999s-20.5 -16.833 -27.5 -28.5s-10.5 -25.5 -10.5 -41.5c0 -28 9.33301 -49.5 28 -64.5s42 -22.5 70 -22.5z" />
    <glyph glyph-name="ccedilla" unicode="&#xe7;" horiz-adv-x="564" 
d="M249 -185c-30.667 0 -56.6641 4.00195 -77.9971 12.002v57h10c12 -4.66699 23.667 -7.83398 35 -9.50098s20.666 -2.5 27.999 -2.5c17.333 0 30 2.83301 38 8.5s12 12.167 12 19.5c0 19.333 -15 29.666 -45 30.999l-4 7l20 48c-32 4 -61 13.167 -87 27.5
s-48.333 32.666 -67 54.999s-33.167 48.333 -43.5 78s-15.5 61.834 -15.5 96.501v14c0 37.333 6.33301 71.833 19 103.5s30 59 52 82s48.167 40.833 78.5 53.5s63.5 19 99.5 19c29.333 0 56.833 -4 82.5 -12s48.167 -19.5 67.5 -34.5s35.333 -33.667 48 -56
s20.667 -48.166 24 -77.499v-8h-83c-5.33301 36.667 -19.833 64.334 -43.5 83.001s-54.834 28 -93.501 28c-24 0 -45.833 -4.83301 -65.5 -14.5s-36.334 -22.834 -50.001 -39.501s-24.334 -36.5 -32.001 -59.5s-11.5 -48.167 -11.5 -75.5c0 -26.667 3.66699 -51.5 11 -74.5
s17.833 -42.833 31.5 -59.5s30 -29.667 49 -39s40.5 -14 64.5 -14c40 0 72 9 96 27s39 46 45 84h84v-8c-6 -50 -26.667 -91 -62 -123s-79.333 -50.667 -132 -56l-11 -30c14.667 -4.66699 26.334 -11.834 35.001 -21.501s13 -21.5 13 -35.5s-3.5 -26.333 -10.5 -37
s-16 -19.5 -27 -26.5s-23.667 -12.167 -38 -15.5s-28.833 -5 -43.5 -5z" />
    <glyph glyph-name="egrave" unicode="&#xe8;" horiz-adv-x="569" 
d="M509 140c-12 -50 -37.333 -88.502 -76 -115.502s-85.667 -40.5 -141 -40.5c-34.667 0 -66.667 6.16699 -96 18.5s-54.666 29.833 -75.999 52.5s-38 50 -50 82s-18 67.333 -18 106v14c0 38.667 5.83301 73.834 17.5 105.501s27.834 58.834 48.501 81.501
s45.667 40.167 75 52.5s61.333 18.5 96 18.5c37.333 0 70.166 -6.66699 98.499 -20s52.166 -31.666 71.499 -54.999s33.833 -50.5 43.5 -81.5s14.5 -64.167 14.5 -99.5v-18.5c0 -5 -0.333008 -11.167 -1 -18.5h-371c4 -46 18.333 -84.167 43 -114.5s60 -45.5 106 -45.5
c32.667 0 59.167 6.66699 79.5 20s35.5 32.666 45.5 57.999h90zM424 296.998c-1.33301 17.333 -4.83203 34.334 -10.499 51.001s-13.834 31.667 -24.501 45s-24 24.166 -40 32.499s-35 12.5 -57 12.5c-44 0 -77.5 -13 -100.5 -39s-37.833 -60 -44.5 -102h277z
M389.001 542.999l-235 113l46 81l218 -142z" />
    <glyph glyph-name="eacute" unicode="&#xe9;" horiz-adv-x="569" 
d="M509 140c-12 -50 -37.333 -88.502 -76 -115.502s-85.667 -40.5 -141 -40.5c-34.667 0 -66.667 6.16699 -96 18.5s-54.666 29.833 -75.999 52.5s-38 50 -50 82s-18 67.333 -18 106v14c0 38.667 5.83301 73.834 17.5 105.501s27.834 58.834 48.501 81.501
s45.667 40.167 75 52.5s61.333 18.5 96 18.5c37.333 0 70.166 -6.66699 98.499 -20s52.166 -31.666 71.499 -54.999s33.833 -50.5 43.5 -81.5s14.5 -64.167 14.5 -99.5v-18.5c0 -5 -0.333008 -11.167 -1 -18.5h-371c4 -46 18.333 -84.167 43 -114.5s60 -45.5 106 -45.5
c32.667 0 59.167 6.66699 79.5 20s35.5 32.666 45.5 57.999h90zM424 296.998c-1.33301 17.333 -4.83203 34.334 -10.499 51.001s-13.834 31.667 -24.501 45s-24 24.166 -40 32.499s-35 12.5 -57 12.5c-44 0 -77.5 -13 -100.5 -39s-37.833 -60 -44.5 -102h277z
M154.001 594.999l218 142l46 -81l-235 -113z" />
    <glyph glyph-name="ecircumflex" unicode="&#xea;" horiz-adv-x="569" 
d="M509 140c-12 -50 -37.333 -88.502 -76 -115.502s-85.667 -40.5 -141 -40.5c-34.667 0 -66.667 6.16699 -96 18.5s-54.666 29.833 -75.999 52.5s-38 50 -50 82s-18 67.333 -18 106v14c0 38.667 5.83301 73.834 17.5 105.501s27.834 58.834 48.501 81.501
s45.667 40.167 75 52.5s61.333 18.5 96 18.5c37.333 0 70.166 -6.66699 98.499 -20s52.166 -31.666 71.499 -54.999s33.833 -50.5 43.5 -81.5s14.5 -64.167 14.5 -99.5v-18.5c0 -5 -0.333008 -11.167 -1 -18.5h-371c4 -46 18.333 -84.167 43 -114.5s60 -45.5 106 -45.5
c32.667 0 59.167 6.66699 79.5 20s35.5 32.666 45.5 57.999h90zM424 296.998c-1.33301 17.333 -4.83203 34.334 -10.499 51.001s-13.834 31.667 -24.501 45s-24 24.166 -40 32.499s-35 12.5 -57 12.5c-44 0 -77.5 -13 -100.5 -39s-37.833 -60 -44.5 -102h277z
M127.001 604.999l158 115l163 -115l-35 -54l-128 76l-123 -76z" />
    <glyph glyph-name="edieresis" unicode="&#xeb;" horiz-adv-x="569" 
d="M509 140c-12 -50 -37.333 -88.502 -76 -115.502s-85.667 -40.5 -141 -40.5c-34.667 0 -66.667 6.16699 -96 18.5s-54.666 29.833 -75.999 52.5s-38 50 -50 82s-18 67.333 -18 106v14c0 38.667 5.83301 73.834 17.5 105.501s27.834 58.834 48.501 81.501
s45.667 40.167 75 52.5s61.333 18.5 96 18.5c37.333 0 70.166 -6.66699 98.499 -20s52.166 -31.666 71.499 -54.999s33.833 -50.5 43.5 -81.5s14.5 -64.167 14.5 -99.5v-18.5c0 -5 -0.333008 -11.167 -1 -18.5h-371c4 -46 18.333 -84.167 43 -114.5s60 -45.5 106 -45.5
c32.667 0 59.167 6.66699 79.5 20s35.5 32.666 45.5 57.999h90zM424 296.998c-1.33301 17.333 -4.83203 34.334 -10.499 51.001s-13.834 31.667 -24.501 45s-24 24.166 -40 32.499s-35 12.5 -57 12.5c-44 0 -77.5 -13 -100.5 -39s-37.833 -60 -44.5 -102h277z
M188.001 678.999c17.333 0 32.332 -5.5 44.999 -16.5s19 -25.5 19 -43.5c0 -17.333 -6.33301 -31.666 -19 -42.999s-27.667 -17 -45 -17s-32.166 5.5 -44.499 16.5s-18.5 25.5 -18.5 43.5c0 17.333 6 31.666 18 42.999s27 17 45 17zM376 678.999
c17.333 0 32.166 -5.5 44.499 -16.5s18.5 -25.5 18.5 -43.5c0 -17.333 -6.16699 -31.666 -18.5 -42.999s-27.166 -17 -44.499 -17c-18 0 -33.167 5.5 -45.5 16.5s-18.5 25.5 -18.5 43.5c0 17.333 6.16699 31.666 18.5 42.999s27.5 17 45.5 17z" />
    <glyph glyph-name="igrave" unicode="&#xec;" horiz-adv-x="239" 
d="M74 0v500h91v-500h-91zM223 543l-235 113l46 81l218 -142z" />
    <glyph glyph-name="iacute" unicode="&#xed;" horiz-adv-x="239" 
d="M74 0v500h91v-500h-91zM-12 595l218 142l46 -81l-235 -113z" />
    <glyph glyph-name="icircumflex" unicode="&#xee;" horiz-adv-x="239" 
d="M74 0v500h91v-500h-91zM-40 605l158 115l163 -115l-35 -54l-128 76l-123 -76z" />
    <glyph glyph-name="idieresis" unicode="&#xef;" horiz-adv-x="239" 
d="M74 0v500h91v-500h-91zM26 679c17.333 0 32.332 -5.5 44.999 -16.5s19 -25.5 19 -43.5c0 -17.333 -6.33301 -31.666 -19 -42.999s-27.667 -17 -45 -17s-32.166 5.5 -44.499 16.5s-18.5 25.5 -18.5 43.5c0 17.333 6 31.666 18 42.999s27 17 45 17zM213.999 679
c17.333 0 32.166 -5.5 44.499 -16.5s18.5 -25.5 18.5 -43.5c0 -17.333 -6.16699 -31.666 -18.5 -42.999s-27.166 -17 -44.499 -17c-18 0 -33.167 5.5 -45.5 16.5s-18.5 25.5 -18.5 43.5c0 17.333 6.16699 31.666 18.5 42.999s27.5 17 45.5 17z" />
    <glyph glyph-name="eth" unicode="&#xf0;" horiz-adv-x="599" 
d="M298 -16c-34 0 -66.1709 5.33203 -96.5039 15.999s-56.666 26.334 -78.999 47.001s-40.166 46 -53.499 76s-20 64.333 -20 103v17c0 38.667 6.66699 73 20 103s31.166 55.333 53.499 76s48.5 36.334 78.5 47.001s62 16 96 16c18 0 35.5 -2 52.5 -6
s33.167 -10.333 48.5 -19h2c-14 20 -31 40.833 -51 62.5s-39.667 41.167 -59 58.5l-95 -51l-32 62l76 38c-12 10.667 -23.667 20.5 -35 29.5s-23.333 17.5 -36 25.5v15h104c6.66699 -4.66699 13 -9.5 19 -14.5s12.333 -10.167 19 -15.5l74 39l32 -61l-52 -28
c54.667 -55.333 98.834 -113.333 132.501 -174s50.5 -127.334 50.5 -200.001v-20c0 -38 -6.66699 -71.833 -20 -101.5s-31.166 -55 -53.499 -76s-48.666 -37 -78.999 -48s-62.5 -16.5 -96.5 -16.5zM298.996 407.999c-26.667 0 -49.834 -4.33301 -69.501 -13
s-36 -20.834 -49 -36.501s-22.833 -34 -29.5 -55s-10 -43.833 -10 -68.5c0 -24 3.33301 -46.667 10 -68s16.5 -39.666 29.5 -54.999s29.333 -27.5 49 -36.5s42.834 -13.5 69.501 -13.5s50 4.5 70 13.5s36.5 21.167 49.5 36.5s22.667 33.666 29 54.999s9.5 44 9.5 68
c0 24.667 -3.16699 47.5 -9.5 68.5s-16 39.333 -29 55s-29.5 27.834 -49.5 36.501s-43.333 13 -70 13z" />
    <glyph glyph-name="ntilde" unicode="&#xf1;" horiz-adv-x="568" 
d="M169 0l-91 -0.000976562v500h68l18 -59h2c18.667 25.333 40.834 44 66.501 56s52.5 18 80.5 18c60.667 0 107.667 -17.667 141 -53c30.667 -32 46 -79 46 -141v-321h-90v305c0 25.333 -2.33301 45.833 -7 61.5s-12 28.5 -22 38.5c-20 20 -48.333 30 -85 30
c-20 0 -38.333 -3 -55 -9s-31.334 -16 -44.001 -30c-18.667 -19.333 -28 -53.666 -28 -102.999v-293zM115 559.999c0 15.333 2.16699 30.1689 6.5 44.502s10.666 27.333 18.999 39s19 21 32 28s27.833 10.5 44.5 10.5c15.333 0 28.5 -2.33301 39.5 -7
s21.333 -9.83398 31 -15.501s19.167 -10.834 28.5 -15.501s19.333 -7 30 -7c9.33301 0 18.5 2.66699 27.5 8s13.5 18.666 13.5 39.999h66c0 -14.667 -2.16699 -29.334 -6.5 -44.001s-10.666 -27.834 -18.999 -39.501s-18.833 -21 -31.5 -28s-27.667 -10.5 -45 -10.5
c-14.667 0 -27.667 2.33301 -39 7s-22 9.83398 -32 15.501s-19.5 10.834 -28.5 15.501s-19.167 7 -30.5 7c-9.33301 0 -18.333 -2.66699 -27 -8s-13 -18.666 -13 -39.999h-66z" />
    <glyph glyph-name="ograve" unicode="&#xf2;" horiz-adv-x="603" 
d="M52 258c0 41.333 6.66309 78 19.9961 110s31.333 58.833 54 80.5s49 38.167 79 49.5s62 17 96 17s66.167 -5.66699 96.5 -17s56.833 -27.833 79.5 -49.5s40.5 -48.5 53.5 -80.5s19.5 -68.667 19.5 -110v-17c0 -40.667 -6.66699 -77 -20 -109s-31.166 -59 -53.499 -81
s-48.666 -38.667 -78.999 -50s-62.5 -17 -96.5 -17s-66.167 5.66699 -96.5 17s-56.666 28 -78.999 50s-40.166 49 -53.499 81s-20 68.333 -20 109v17zM143.996 250c0 -26 3.16699 -50.5 9.5 -73.5s16 -43 29 -60s29.333 -30.333 49 -40s42.834 -14.5 69.501 -14.5
s49.834 4.83301 69.501 14.5s36 23 49 40s22.667 37 29 60s9.5 47.5 9.5 73.5c0 26.667 -3.16699 51.334 -9.5 74.001s-16 42.5 -29 59.5s-29.333 30.333 -49 40s-42.834 14.5 -69.501 14.5s-49.834 -4.83301 -69.501 -14.5s-36 -23 -49 -40s-22.667 -36.833 -29 -59.5
s-9.5 -47.334 -9.5 -74.001zM403.996 543l-235 113l46 81l218 -142z" />
    <glyph glyph-name="oacute" unicode="&#xf3;" horiz-adv-x="603" 
d="M52 258c0 41.333 6.66309 78 19.9961 110s31.333 58.833 54 80.5s49 38.167 79 49.5s62 17 96 17s66.167 -5.66699 96.5 -17s56.833 -27.833 79.5 -49.5s40.5 -48.5 53.5 -80.5s19.5 -68.667 19.5 -110v-17c0 -40.667 -6.66699 -77 -20 -109s-31.166 -59 -53.499 -81
s-48.666 -38.667 -78.999 -50s-62.5 -17 -96.5 -17s-66.167 5.66699 -96.5 17s-56.666 28 -78.999 50s-40.166 49 -53.499 81s-20 68.333 -20 109v17zM143.996 250c0 -26 3.16699 -50.5 9.5 -73.5s16 -43 29 -60s29.333 -30.333 49 -40s42.834 -14.5 69.501 -14.5
s49.834 4.83301 69.501 14.5s36 23 49 40s22.667 37 29 60s9.5 47.5 9.5 73.5c0 26.667 -3.16699 51.334 -9.5 74.001s-16 42.5 -29 59.5s-29.333 30.333 -49 40s-42.834 14.5 -69.501 14.5s-49.834 -4.83301 -69.501 -14.5s-36 -23 -49 -40s-22.667 -36.833 -29 -59.5
s-9.5 -47.334 -9.5 -74.001zM168.996 595l218 142l46 -81l-235 -113z" />
    <glyph glyph-name="ocircumflex" unicode="&#xf4;" horiz-adv-x="603" 
d="M52 258c0 41.333 6.66309 78 19.9961 110s31.333 58.833 54 80.5s49 38.167 79 49.5s62 17 96 17s66.167 -5.66699 96.5 -17s56.833 -27.833 79.5 -49.5s40.5 -48.5 53.5 -80.5s19.5 -68.667 19.5 -110v-17c0 -40.667 -6.66699 -77 -20 -109s-31.166 -59 -53.499 -81
s-48.666 -38.667 -78.999 -50s-62.5 -17 -96.5 -17s-66.167 5.66699 -96.5 17s-56.666 28 -78.999 50s-40.166 49 -53.499 81s-20 68.333 -20 109v17zM143.996 250c0 -26 3.16699 -50.5 9.5 -73.5s16 -43 29 -60s29.333 -30.333 49 -40s42.834 -14.5 69.501 -14.5
s49.834 4.83301 69.501 14.5s36 23 49 40s22.667 37 29 60s9.5 47.5 9.5 73.5c0 26.667 -3.16699 51.334 -9.5 74.001s-16 42.5 -29 59.5s-29.333 30.333 -49 40s-42.834 14.5 -69.501 14.5s-49.834 -4.83301 -69.501 -14.5s-36 -23 -49 -40s-22.667 -36.833 -29 -59.5
s-9.5 -47.334 -9.5 -74.001zM141.996 605l158 115l163 -115l-35 -54l-128 76l-123 -76z" />
    <glyph glyph-name="otilde" unicode="&#xf5;" horiz-adv-x="603" 
d="M52 258c0 41.333 6.66309 78 19.9961 110s31.333 58.833 54 80.5s49 38.167 79 49.5s62 17 96 17s66.167 -5.66699 96.5 -17s56.833 -27.833 79.5 -49.5s40.5 -48.5 53.5 -80.5s19.5 -68.667 19.5 -110v-17c0 -40.667 -6.66699 -77 -20 -109s-31.166 -59 -53.499 -81
s-48.666 -38.667 -78.999 -50s-62.5 -17 -96.5 -17s-66.167 5.66699 -96.5 17s-56.666 28 -78.999 50s-40.166 49 -53.499 81s-20 68.333 -20 109v17zM143.996 250c0 -26 3.16699 -50.5 9.5 -73.5s16 -43 29 -60s29.333 -30.333 49 -40s42.834 -14.5 69.501 -14.5
s49.834 4.83301 69.501 14.5s36 23 49 40s22.667 37 29 60s9.5 47.5 9.5 73.5c0 26.667 -3.16699 51.334 -9.5 74.001s-16 42.5 -29 59.5s-29.333 30.333 -49 40s-42.834 14.5 -69.501 14.5s-49.834 -4.83301 -69.501 -14.5s-36 -23 -49 -40s-22.667 -36.833 -29 -59.5
s-9.5 -47.334 -9.5 -74.001zM131.996 560c0 15.333 2.16699 30.1689 6.5 44.502s10.666 27.333 18.999 39s19 21 32 28s27.833 10.5 44.5 10.5c15.333 0 28.5 -2.33301 39.5 -7s21.333 -9.83398 31 -15.501s19.167 -10.834 28.5 -15.501s19.333 -7 30 -7
c9.33301 0 18.5 2.66699 27.5 8s13.5 18.666 13.5 39.999h66c0 -14.667 -2.16699 -29.334 -6.5 -44.001s-10.666 -27.834 -18.999 -39.501s-18.833 -21 -31.5 -28s-27.667 -10.5 -45 -10.5c-14.667 0 -27.667 2.33301 -39 7s-22 9.83398 -32 15.501
s-19.5 10.834 -28.5 15.501s-19.167 7 -30.5 7c-9.33301 0 -18.333 -2.66699 -27 -8s-13 -18.666 -13 -39.999h-66z" />
    <glyph glyph-name="odieresis" unicode="&#xf6;" horiz-adv-x="603" 
d="M52 258c0 41.333 6.66309 78 19.9961 110s31.333 58.833 54 80.5s49 38.167 79 49.5s62 17 96 17s66.167 -5.66699 96.5 -17s56.833 -27.833 79.5 -49.5s40.5 -48.5 53.5 -80.5s19.5 -68.667 19.5 -110v-17c0 -40.667 -6.66699 -77 -20 -109s-31.166 -59 -53.499 -81
s-48.666 -38.667 -78.999 -50s-62.5 -17 -96.5 -17s-66.167 5.66699 -96.5 17s-56.666 28 -78.999 50s-40.166 49 -53.499 81s-20 68.333 -20 109v17zM143.996 250c0 -26 3.16699 -50.5 9.5 -73.5s16 -43 29 -60s29.333 -30.333 49 -40s42.834 -14.5 69.501 -14.5
s49.834 4.83301 69.501 14.5s36 23 49 40s22.667 37 29 60s9.5 47.5 9.5 73.5c0 26.667 -3.16699 51.334 -9.5 74.001s-16 42.5 -29 59.5s-29.333 30.333 -49 40s-42.834 14.5 -69.501 14.5s-49.834 -4.83301 -69.501 -14.5s-36 -23 -49 -40s-22.667 -36.833 -29 -59.5
s-9.5 -47.334 -9.5 -74.001zM206.996 679c17.333 0 32.332 -5.5 44.999 -16.5s19 -25.5 19 -43.5c0 -17.333 -6.33301 -31.666 -19 -42.999s-27.667 -17 -45 -17s-32.166 5.5 -44.499 16.5s-18.5 25.5 -18.5 43.5c0 17.333 6 31.666 18 42.999s27 17 45 17zM394.995 679
c17.333 0 32.166 -5.5 44.499 -16.5s18.5 -25.5 18.5 -43.5c0 -17.333 -6.16699 -31.666 -18.5 -42.999s-27.166 -17 -44.499 -17c-18 0 -33.167 5.5 -45.5 16.5s-18.5 25.5 -18.5 43.5c0 17.333 6.16699 31.666 18.5 42.999s27.5 17 45.5 17z" />
    <glyph glyph-name="divide" unicode="&#xf7;" horiz-adv-x="605" 
d="M302 548c17.333 0 32.166 -5.66699 44.499 -17s18.5 -25.666 18.5 -42.999c0 -18 -6.16699 -32.5 -18.5 -43.5s-27.166 -16.5 -44.499 -16.5c-18 0 -33.167 5.66699 -45.5 17s-18.5 25.666 -18.5 42.999c0 18 6.16699 32.5 18.5 43.5s27.5 16.5 45.5 16.5zM50 369h505
v-81h-505v81zM302 229c17.333 0 32.332 -5.5 44.999 -16.5s19 -25.5 19 -43.5c0 -17.333 -6.33301 -31.666 -19 -42.999s-27.667 -17 -45 -17s-32.166 5.5 -44.499 16.5s-18.5 25.5 -18.5 43.5c0 17.333 6 31.666 18 42.999s27 17 45 17z" />
    <glyph glyph-name="oslash" unicode="&#xf8;" horiz-adv-x="606" 
d="M144 250c0 -32 4.50098 -60.999 13.501 -86.999s23.167 -47.667 42.5 -65l143 335c-14.667 3.33301 -28.667 5 -42 5c-26.667 0 -49.834 -4.83301 -69.501 -14.5s-36 -23 -49 -40s-22.667 -36.833 -29 -59.5s-9.5 -47.334 -9.5 -74.001zM301.001 62.001
c26.667 0 49.834 4.83398 69.501 14.501s36 23 49 40s22.667 37 29 60s9.5 47.5 9.5 73.5c0 30 -4 57.167 -12 81.5s-19.667 45.166 -35 62.499l-141 -329c9.33301 -2 19.666 -3 30.999 -3zM301.001 -15.998c-23.333 0 -44.335 2.33301 -63.002 7l-24 -56h-79v13l31 72
c-34 20.667 -61.5 49.667 -82.5 87s-31.5 82 -31.5 134v17c0 41.333 6.66699 78 20 110s31.333 58.833 54 80.5s49 38.167 79 49.5s62 17 96 17c26 0 50.333 -3 73 -9l26 59h78v-14l-33 -77c32 -21.333 57.5 -50 76.5 -86s28.5 -79.333 28.5 -130v-17
c0 -40.667 -6.66699 -77 -20 -109s-31.166 -59 -53.499 -81s-48.666 -38.667 -78.999 -50s-62.5 -17 -96.5 -17z" />
    <glyph glyph-name="ugrave" unicode="&#xf9;" horiz-adv-x="546" 
d="M155 500v-307c0 -24.667 3.33301 -45.334 10 -62.001s15.5 -30 26.5 -40s23.667 -17 38 -21s28.833 -6 43.5 -6s29.167 2 43.5 6s27 11 38 21s19.833 23.333 26.5 40s10 37.334 10 62.001v307h90v-311c0 -36 -5.83301 -67 -17.5 -93s-27.167 -47.167 -46.5 -63.5
s-41.5 -28.5 -66.5 -36.5s-50.833 -12 -77.5 -12s-52.5 4 -77.5 12s-47.167 20.167 -66.5 36.5s-34.833 37.5 -46.5 63.5s-17.5 57 -17.5 93v311h90zM376 543l-235 113l46 81l218 -142z" />
    <glyph glyph-name="uacute" unicode="&#xfa;" horiz-adv-x="546" 
d="M155 500v-307c0 -24.667 3.33301 -45.334 10 -62.001s15.5 -30 26.5 -40s23.667 -17 38 -21s28.833 -6 43.5 -6s29.167 2 43.5 6s27 11 38 21s19.833 23.333 26.5 40s10 37.334 10 62.001v307h90v-311c0 -36 -5.83301 -67 -17.5 -93s-27.167 -47.167 -46.5 -63.5
s-41.5 -28.5 -66.5 -36.5s-50.833 -12 -77.5 -12s-52.5 4 -77.5 12s-47.167 20.167 -66.5 36.5s-34.833 37.5 -46.5 63.5s-17.5 57 -17.5 93v311h90zM141 595l218 142l46 -81l-235 -113z" />
    <glyph glyph-name="ucircumflex" unicode="&#xfb;" horiz-adv-x="546" 
d="M155 500v-307c0 -24.667 3.33301 -45.334 10 -62.001s15.5 -30 26.5 -40s23.667 -17 38 -21s28.833 -6 43.5 -6s29.167 2 43.5 6s27 11 38 21s19.833 23.333 26.5 40s10 37.334 10 62.001v307h90v-311c0 -36 -5.83301 -67 -17.5 -93s-27.167 -47.167 -46.5 -63.5
s-41.5 -28.5 -66.5 -36.5s-50.833 -12 -77.5 -12s-52.5 4 -77.5 12s-47.167 20.167 -66.5 36.5s-34.833 37.5 -46.5 63.5s-17.5 57 -17.5 93v311h90zM113 605l158 115l163 -115l-35 -54l-128 76l-123 -76z" />
    <glyph glyph-name="udieresis" unicode="&#xfc;" horiz-adv-x="546" 
d="M155 500v-307c0 -24.667 3.33301 -45.334 10 -62.001s15.5 -30 26.5 -40s23.667 -17 38 -21s28.833 -6 43.5 -6s29.167 2 43.5 6s27 11 38 21s19.833 23.333 26.5 40s10 37.334 10 62.001v307h90v-311c0 -36 -5.83301 -67 -17.5 -93s-27.167 -47.167 -46.5 -63.5
s-41.5 -28.5 -66.5 -36.5s-50.833 -12 -77.5 -12s-52.5 4 -77.5 12s-47.167 20.167 -66.5 36.5s-34.833 37.5 -46.5 63.5s-17.5 57 -17.5 93v311h90zM179 679c17.333 0 32.332 -5.5 44.999 -16.5s19 -25.5 19 -43.5c0 -17.333 -6.33301 -31.666 -19 -42.999
s-27.667 -17 -45 -17s-32.166 5.5 -44.499 16.5s-18.5 25.5 -18.5 43.5c0 17.333 6 31.666 18 42.999s27 17 45 17zM366.999 679c17.333 0 32.166 -5.5 44.499 -16.5s18.5 -25.5 18.5 -43.5c0 -17.333 -6.16699 -31.666 -18.5 -42.999s-27.166 -17 -44.499 -17
c-18 0 -33.167 5.5 -45.5 16.5s-18.5 25.5 -18.5 43.5c0 17.333 6.16699 31.666 18.5 42.999s27.5 17 45.5 17z" />
    <glyph glyph-name="yacute" unicode="&#xfd;" horiz-adv-x="504" 
d="M203 23l-192.999 463.999v13h95l122 -317c1.33301 -3.33301 3.33301 -8.5 6 -15.5s5.33398 -14.167 8.00098 -21.5s5.16699 -14.666 7.5 -21.999s4.16602 -13 5.49902 -17h2c1.33301 4 3 9.5 5 16.5s4.33301 14.167 7 21.5s5.16699 14.333 7.5 21s4.16602 12 5.49902 16
l122 318h91v-13l-276 -667h-95v13zM124.001 594.999l218 142l46 -81l-235 -113z" />
    <glyph glyph-name="thorn" unicode="&#xfe;" horiz-adv-x="627" 
d="M322 62c28 0 52.165 4.83203 72.498 14.499s37 23 50 40s22.667 37 29 60s9.5 47.833 9.5 74.5c0 26 -3.16699 50.333 -9.5 73s-16.166 42.5 -29.499 59.5s-30.166 30.333 -50.499 40s-44.166 14.5 -71.499 14.5c-26.667 0 -49.834 -5 -69.501 -15
s-35.834 -23.5 -48.501 -40.5s-22.167 -36.833 -28.5 -59.5s-9.5 -46.667 -9.5 -72s3 -49.333 9 -72s15.333 -42.667 28 -60s28.834 -31.166 48.501 -41.499s43.167 -15.5 70.5 -15.5zM168.998 -180.001l-90.998 -0.000976562v880h91v-257c18 24.667 42.167 43 72.5 55
s62.5 18 96.5 18c29.333 0 58.166 -5.5 86.499 -16.5s53.666 -27.167 75.999 -48.5s40.333 -47.833 54 -79.5s20.5 -68.167 20.5 -109.5v-15c0 -37.333 -5.5 -72 -16.5 -104s-27.167 -59.667 -48.5 -83s-47.5 -41.666 -78.5 -54.999s-66.167 -20 -105.5 -20
c-35.333 0 -66 6 -92 18s-47 28.333 -63 49h-2v-232z" />
    <glyph glyph-name="ydieresis" unicode="&#xff;" horiz-adv-x="504" 
d="M203 23l-192.999 463.999v13h95l122 -317c1.33301 -3.33301 3.33301 -8.5 6 -15.5s5.33398 -14.167 8.00098 -21.5s5.16699 -14.666 7.5 -21.999s4.16602 -13 5.49902 -17h2c1.33301 4 3 9.5 5 16.5s4.33301 14.167 7 21.5s5.16699 14.333 7.5 21s4.16602 12 5.49902 16
l122 318h91v-13l-276 -667h-95v13zM164.001 678.999c17.333 0 32.332 -5.5 44.999 -16.5s19 -25.5 19 -43.5c0 -17.333 -6.33301 -31.666 -19 -42.999s-27.667 -17 -45 -17s-32.166 5.5 -44.499 16.5s-18.5 25.5 -18.5 43.5c0 17.333 6 31.666 18 42.999s27 17 45 17z
M352 678.999c17.333 0 32.166 -5.5 44.499 -16.5s18.5 -25.5 18.5 -43.5c0 -17.333 -6.16699 -31.666 -18.5 -42.999s-27.166 -17 -44.499 -17c-18 0 -33.167 5.5 -45.5 16.5s-18.5 25.5 -18.5 43.5c0 17.333 6.16699 31.666 18.5 42.999s27.5 17 45.5 17z" />
    <glyph glyph-name="Amacron" unicode="&#x100;" horiz-adv-x="663" 
d="M328 533l-5.50098 -16.502l-7 -21c-2.33301 -7 -4.5 -13.333 -6.5 -19s-3.66699 -9.83398 -5 -12.501l-91 -226h232l-92 228c-0.666992 2.66699 -2.16699 6.83398 -4.5 12.501s-4.66602 11.834 -6.99902 18.501s-4.5 13.334 -6.5 20.001s-3.66699 12 -5 16h-2z
M478.999 153.998h-299l-62 -154h-96v15l268 635h82l269 -635v-15h-100zM182.999 783.998h296v-77h-296v77z" />
    <glyph glyph-name="amacron" unicode="&#x101;" horiz-adv-x="535" 
d="M244 61c14 0 28.8311 2.83105 44.498 8.49805s30 13.834 43 24.501s23.667 23.5 32 38.5s12.5 31.5 12.5 49.5v40c-15.333 5.33301 -32.166 9.5 -50.499 12.5s-36.166 4.5 -53.499 4.5c-15.333 0 -30.5 -1.66699 -45.5 -5s-28.333 -8.66602 -40 -15.999
s-21.167 -16.833 -28.5 -28.5s-11 -25.5 -11 -41.5c0 -28 8.83301 -49.5 26.5 -64.5s41.167 -22.5 70.5 -22.5zM379.998 54.998c-16.667 -22 -38.665 -39.3359 -65.998 -52.0029s-56 -19 -86 -19c-24 0 -46.5 3.66699 -67.5 11s-39.333 17.833 -55 31.5s-28 30 -37 49
s-13.5 40.167 -13.5 63.5v7c0 23.333 3.66699 43.5 11 60.5s17.666 32.167 30.999 45.5c9.33301 10 20.666 18.667 33.999 26s27.666 13.333 42.999 18s31 8.16699 47 10.5s31.333 3.5 46 3.5c18 0 36.5 -1.16699 55.5 -3.5s36.833 -5.83301 53.5 -10.5v37
c0 34 -8.66699 60.5 -26 79.5s-45 28.5 -83 28.5c-28.667 0 -52.167 -6.5 -70.5 -19.5s-28.166 -33.5 -29.499 -61.5h-86v8c2.66699 26 9.5 48.333 20.5 67s24.833 33.834 41.5 45.501s36 20.334 58 26.001s45.333 8.5 70 8.5c28.667 0 55 -3.5 79 -10.5
s44.667 -18.5 62 -34.5s30.833 -36.667 40.5 -62s14.5 -56.666 14.5 -93.999v-314h-68l-17 55h-2zM113 656.995h296v-77h-296v77z" />
    <glyph glyph-name="Abreve" unicode="&#x102;" horiz-adv-x="663" 
d="M328 533l-5.50098 -16.502l-7 -21c-2.33301 -7 -4.5 -13.333 -6.5 -19s-3.66699 -9.83398 -5 -12.501l-91 -226h232l-92 228c-0.666992 2.66699 -2.16699 6.83398 -4.5 12.501s-4.66602 11.834 -6.99902 18.501s-4.5 13.334 -6.5 20.001s-3.66699 12 -5 16h-2z
M478.999 153.998h-299l-62 -154h-96v15l268 635h82l269 -635v-15h-100zM253.999 820.998c4.66699 -21.333 13.665 -36.666 26.998 -45.999s30 -14 50 -14s36.667 4.66699 50 14s22.333 24.666 27 45.999h92c-2.66699 -20 -9 -37.833 -19 -53.5s-22.5 -28.834 -37.5 -39.501
s-32.167 -18.834 -51.5 -24.501s-39.666 -8.5 -60.999 -8.5s-41.666 2.83301 -60.999 8.5s-36.5 13.834 -51.5 24.501s-27.5 23.834 -37.5 39.501s-16.333 33.5 -19 53.5h92z" />
    <glyph glyph-name="abreve" unicode="&#x103;" horiz-adv-x="535" 
d="M244 61c14 0 28.8311 2.83105 44.498 8.49805s30 13.834 43 24.501s23.667 23.5 32 38.5s12.5 31.5 12.5 49.5v40c-15.333 5.33301 -32.166 9.5 -50.499 12.5s-36.166 4.5 -53.499 4.5c-15.333 0 -30.5 -1.66699 -45.5 -5s-28.333 -8.66602 -40 -15.999
s-21.167 -16.833 -28.5 -28.5s-11 -25.5 -11 -41.5c0 -28 8.83301 -49.5 26.5 -64.5s41.167 -22.5 70.5 -22.5zM379.998 54.998c-16.667 -22 -38.665 -39.3359 -65.998 -52.0029s-56 -19 -86 -19c-24 0 -46.5 3.66699 -67.5 11s-39.333 17.833 -55 31.5s-28 30 -37 49
s-13.5 40.167 -13.5 63.5v7c0 23.333 3.66699 43.5 11 60.5s17.666 32.167 30.999 45.5c9.33301 10 20.666 18.667 33.999 26s27.666 13.333 42.999 18s31 8.16699 47 10.5s31.333 3.5 46 3.5c18 0 36.5 -1.16699 55.5 -3.5s36.833 -5.83301 53.5 -10.5v37
c0 34 -8.66699 60.5 -26 79.5s-45 28.5 -83 28.5c-28.667 0 -52.167 -6.5 -70.5 -19.5s-28.166 -33.5 -29.499 -61.5h-86v8c2.66699 26 9.5 48.333 20.5 67s24.833 33.834 41.5 45.501s36 20.334 58 26.001s45.333 8.5 70 8.5c28.667 0 55 -3.5 79 -10.5
s44.667 -18.5 62 -34.5s30.833 -36.667 40.5 -62s14.5 -56.666 14.5 -93.999v-314h-68l-17 55h-2zM184 682.995c4.66699 -21.333 13.665 -36.666 26.998 -45.999s30 -14 50 -14s36.667 4.66699 50 14s22.333 24.666 27 45.999h92c-2.66699 -20 -9 -37.833 -19 -53.5
s-22.5 -28.834 -37.5 -39.501s-32.167 -18.834 -51.5 -24.501s-39.666 -8.5 -60.999 -8.5s-41.666 2.83301 -60.999 8.5s-36.5 13.834 -51.5 24.501s-27.5 23.834 -37.5 39.501s-16.333 33.5 -19 53.5h92z" />
    <glyph glyph-name="Aogonek" unicode="&#x104;" horiz-adv-x="663" 
d="M328 533l-5.50098 -16.502l-7 -21c-2.33301 -7 -4.5 -13.333 -6.5 -19s-3.66699 -9.83398 -5 -12.501l-91 -226h232l-92 228c-0.666992 2.66699 -2.16699 6.83398 -4.5 12.501s-4.66602 11.834 -6.99902 18.501s-4.5 13.334 -6.5 20.001s-3.66699 12 -5 16h-2z
M669.999 -172.002c-10.667 -4.66699 -23.334 -8.00098 -38.001 -10.001s-28 -3 -40 -3c-35.333 0 -61.333 8.66699 -78 26s-25 37.333 -25 60c0 18.667 5.33301 37 16 55s26.667 32.667 48 44h-12l-62 154h-299l-62 -154h-96v15l268 635h82l269 -635v-15
c-29.333 -13.333 -49.166 -27.833 -59.499 -43.5s-15.5 -31.167 -15.5 -46.5c0 -22.667 13.333 -34 40 -34c9.33301 0 17.833 0.833008 25.5 2.5s17.167 4.83398 28.5 9.50098h10v-60z" />
    <glyph glyph-name="aogonek" unicode="&#x105;" horiz-adv-x="535" 
d="M244 61c14 0 28.8311 2.83105 44.498 8.49805s30 13.834 43 24.501s23.667 23.5 32 38.5s12.5 31.5 12.5 49.5v40c-15.333 5.33301 -32.166 9.5 -50.499 12.5s-36.166 4.5 -53.499 4.5c-15.333 0 -30.5 -1.66699 -45.5 -5s-28.333 -8.66602 -40 -15.999
s-21.167 -16.833 -28.5 -28.5s-11 -25.5 -11 -41.5c0 -28 8.83301 -49.5 26.5 -64.5s41.167 -22.5 70.5 -22.5zM495.998 -172.002c-10.667 -4.66699 -23.332 -8.00195 -37.999 -10.002s-28 -3 -40 -3c-35.333 0 -61.333 8.66699 -78 26s-25 37.333 -25 60
c0 21.333 7.16699 42.166 21.5 62.499s34.5 35.166 60.5 44.499l-15 47h-2c-16.667 -22 -38.667 -39.333 -66 -52s-56 -19 -86 -19c-24 0 -46.5 3.66699 -67.5 11s-39.333 17.833 -55 31.5s-28 30 -37 49s-13.5 40.167 -13.5 63.5v7c0 23.333 3.66699 43.5 11 60.5
s17.666 32.167 30.999 45.5c9.33301 10 20.666 18.667 33.999 26s27.666 13.333 42.999 18s31 8.16699 47 10.5s31.333 3.5 46 3.5c18 0 36.5 -1.16699 55.5 -3.5s36.833 -5.83301 53.5 -10.5v37c0 34 -8.66699 60.5 -26 79.5s-45 28.5 -83 28.5
c-28.667 0 -52.167 -6.5 -70.5 -19.5s-28.166 -33.5 -29.499 -61.5h-86v8c2.66699 26 9.5 48.333 20.5 67s24.833 33.834 41.5 45.501s36 20.334 58 26.001s45.333 8.5 70 8.5c28.667 0 55 -3.5 79 -10.5s44.667 -18.5 62 -34.5s30.833 -36.667 40.5 -62
s14.5 -56.666 14.5 -93.999v-314c-29.333 -13.333 -49.166 -27.833 -59.499 -43.5s-15.5 -31.167 -15.5 -46.5c0 -22.667 13.333 -34 40 -34c9.33301 0 17.833 0.833008 25.5 2.5s17.167 4.83398 28.5 9.50098h10v-60z" />
    <glyph glyph-name="Cacute" unicode="&#x106;" horiz-adv-x="693" 
d="M52 338c0 48 8.17188 92.001 24.5049 132.001s38.5 74.5 66.5 103.5s60.833 51.5 98.5 67.5s78.167 24 121.5 24c42.667 0 80.667 -6 114 -18s62 -28.167 86 -48.5s43 -44.166 57 -71.499s22.333 -56.666 25 -87.999v-8h-92c-4.66699 20 -11.334 39 -20.001 57
s-20.334 33.667 -35.001 47s-33 24 -55 32s-49 12 -81 12c-32.667 0 -62.334 -6.16699 -89.001 -18.5s-49.167 -29.5 -67.5 -51.5s-32.5 -48.333 -42.5 -79s-15 -64.334 -15 -101.001c0 -38.667 5.33301 -73.834 16 -105.501s25.667 -58.834 45 -81.501
s42.5 -40.167 69.5 -52.5s56.833 -18.5 89.5 -18.5c30.667 0 57 4.16699 79 12.5s40.333 19.833 55 34.5s26.334 31.667 35.001 51s14.667 40 18 62h93v-8c-4.66699 -36 -14.834 -68.667 -30.501 -98s-35.834 -54.333 -60.501 -75s-53.334 -36.667 -86.001 -48
s-68 -17 -106 -17c-44 0 -85.167 7.83301 -123.5 23.5s-71.5 38 -99.5 67s-50 63.833 -66 104.5s-24 86 -24 136v22zM220.005 745.001l218 142l46 -81l-235 -113z" />
    <glyph glyph-name="cacute" unicode="&#x107;" horiz-adv-x="564" 
d="M52 257c0 37.333 6.33496 71.832 19.002 103.499s30 59 52 82s48.167 40.833 78.5 53.5s63.5 19 99.5 19c29.333 0 56.833 -4 82.5 -12s48.167 -19.5 67.5 -34.5s35.333 -33.667 48 -56s20.667 -48.166 24 -77.499v-8h-83c-5.33301 36.667 -19.833 64.334 -43.5 83.001
s-54.834 28 -93.501 28c-24 0 -45.833 -4.83301 -65.5 -14.5s-36.334 -22.834 -50.001 -39.501s-24.334 -36.5 -32.001 -59.5s-11.5 -48.167 -11.5 -75.5c0 -26.667 3.66699 -51.5 11 -74.5s17.833 -42.833 31.5 -59.5s30 -29.667 49 -39s40.5 -14 64.5 -14c40 0 72 9 96 27
s39 46 45 84h84v-8c-3.33301 -27.333 -11.166 -52.166 -23.499 -74.499s-28.5 -41.333 -48.5 -57s-43 -27.834 -69 -36.501s-54 -13 -84 -13c-36.667 0 -70.167 6.33301 -100.5 19s-56.5 30.5 -78.5 53.5s-39 50.333 -51 82s-18 66.5 -18 104.5v14zM152.002 594.999l218 142
l46 -81l-235 -113z" />
    <glyph glyph-name="Ccircumflex" unicode="&#x108;" horiz-adv-x="693" 
d="M52 338c0 48 8.17188 92.001 24.5049 132.001s38.5 74.5 66.5 103.5s60.833 51.5 98.5 67.5s78.167 24 121.5 24c42.667 0 80.667 -6 114 -18s62 -28.167 86 -48.5s43 -44.166 57 -71.499s22.333 -56.666 25 -87.999v-8h-92c-4.66699 20 -11.334 39 -20.001 57
s-20.334 33.667 -35.001 47s-33 24 -55 32s-49 12 -81 12c-32.667 0 -62.334 -6.16699 -89.001 -18.5s-49.167 -29.5 -67.5 -51.5s-32.5 -48.333 -42.5 -79s-15 -64.334 -15 -101.001c0 -38.667 5.33301 -73.834 16 -105.501s25.667 -58.834 45 -81.501
s42.5 -40.167 69.5 -52.5s56.833 -18.5 89.5 -18.5c30.667 0 57 4.16699 79 12.5s40.333 19.833 55 34.5s26.334 31.667 35.001 51s14.667 40 18 62h93v-8c-4.66699 -36 -14.834 -68.667 -30.501 -98s-35.834 -54.333 -60.501 -75s-53.334 -36.667 -86.001 -48
s-68 -17 -106 -17c-44 0 -85.167 7.83301 -123.5 23.5s-71.5 38 -99.5 67s-50 63.833 -66 104.5s-24 86 -24 136v22zM194.005 755.001l158 115l163 -115l-35 -54l-128 76l-123 -76z" />
    <glyph glyph-name="ccircumflex" unicode="&#x109;" horiz-adv-x="564" 
d="M52 257c0 37.333 6.33496 71.832 19.002 103.499s30 59 52 82s48.167 40.833 78.5 53.5s63.5 19 99.5 19c29.333 0 56.833 -4 82.5 -12s48.167 -19.5 67.5 -34.5s35.333 -33.667 48 -56s20.667 -48.166 24 -77.499v-8h-83c-5.33301 36.667 -19.833 64.334 -43.5 83.001
s-54.834 28 -93.501 28c-24 0 -45.833 -4.83301 -65.5 -14.5s-36.334 -22.834 -50.001 -39.501s-24.334 -36.5 -32.001 -59.5s-11.5 -48.167 -11.5 -75.5c0 -26.667 3.66699 -51.5 11 -74.5s17.833 -42.833 31.5 -59.5s30 -29.667 49 -39s40.5 -14 64.5 -14c40 0 72 9 96 27
s39 46 45 84h84v-8c-3.33301 -27.333 -11.166 -52.166 -23.499 -74.499s-28.5 -41.333 -48.5 -57s-43 -27.834 -69 -36.501s-54 -13 -84 -13c-36.667 0 -70.167 6.33301 -100.5 19s-56.5 30.5 -78.5 53.5s-39 50.333 -51 82s-18 66.5 -18 104.5v14zM125.002 604.999l158 115
l163 -115l-35 -54l-128 76l-123 -76z" />
    <glyph glyph-name="Cdotaccent" unicode="&#x10a;" horiz-adv-x="693" 
d="M52 338c0 48 8.17188 92.001 24.5049 132.001s38.5 74.5 66.5 103.5s60.833 51.5 98.5 67.5s78.167 24 121.5 24c42.667 0 80.667 -6 114 -18s62 -28.167 86 -48.5s43 -44.166 57 -71.499s22.333 -56.666 25 -87.999v-8h-92c-4.66699 20 -11.334 39 -20.001 57
s-20.334 33.667 -35.001 47s-33 24 -55 32s-49 12 -81 12c-32.667 0 -62.334 -6.16699 -89.001 -18.5s-49.167 -29.5 -67.5 -51.5s-32.5 -48.333 -42.5 -79s-15 -64.334 -15 -101.001c0 -38.667 5.33301 -73.834 16 -105.501s25.667 -58.834 45 -81.501
s42.5 -40.167 69.5 -52.5s56.833 -18.5 89.5 -18.5c30.667 0 57 4.16699 79 12.5s40.333 19.833 55 34.5s26.334 31.667 35.001 51s14.667 40 18 62h93v-8c-4.66699 -36 -14.834 -68.667 -30.501 -98s-35.834 -54.333 -60.501 -75s-53.334 -36.667 -86.001 -48
s-68 -17 -106 -17c-44 0 -85.167 7.83301 -123.5 23.5s-71.5 38 -99.5 67s-50 63.833 -66 104.5s-24 86 -24 136v22zM353.005 834.001c18 0 33.499 -5.5 46.499 -16.5s19.5 -25.833 19.5 -44.5c0 -19.333 -6.5 -34.666 -19.5 -45.999s-28.5 -17 -46.5 -17
s-33.5 5.66699 -46.5 17s-19.5 26.666 -19.5 45.999c0 18 6.33301 32.667 19 44s28.334 17 47.001 17z" />
    <glyph glyph-name="cdotaccent" unicode="&#x10b;" horiz-adv-x="564" 
d="M52 257c0 37.333 6.33496 71.832 19.002 103.499s30 59 52 82s48.167 40.833 78.5 53.5s63.5 19 99.5 19c29.333 0 56.833 -4 82.5 -12s48.167 -19.5 67.5 -34.5s35.333 -33.667 48 -56s20.667 -48.166 24 -77.499v-8h-83c-5.33301 36.667 -19.833 64.334 -43.5 83.001
s-54.834 28 -93.501 28c-24 0 -45.833 -4.83301 -65.5 -14.5s-36.334 -22.834 -50.001 -39.501s-24.334 -36.5 -32.001 -59.5s-11.5 -48.167 -11.5 -75.5c0 -26.667 3.66699 -51.5 11 -74.5s17.833 -42.833 31.5 -59.5s30 -29.667 49 -39s40.5 -14 64.5 -14c40 0 72 9 96 27
s39 46 45 84h84v-8c-3.33301 -27.333 -11.166 -52.166 -23.499 -74.499s-28.5 -41.333 -48.5 -57s-43 -27.834 -69 -36.501s-54 -13 -84 -13c-36.667 0 -70.167 6.33301 -100.5 19s-56.5 30.5 -78.5 53.5s-39 50.333 -51 82s-18 66.5 -18 104.5v14zM284.002 686.999
c18 0 33.499 -5.5 46.499 -16.5s19.5 -25.833 19.5 -44.5c0 -19.333 -6.5 -34.666 -19.5 -45.999s-28.5 -17 -46.5 -17s-33.5 5.66699 -46.5 17s-19.5 26.666 -19.5 45.999c0 18 6.33301 32.667 19 44s28.334 17 47.001 17z" />
    <glyph glyph-name="Ccaron" unicode="&#x10c;" horiz-adv-x="693" 
d="M52 338c0 48 8.17188 92.001 24.5049 132.001s38.5 74.5 66.5 103.5s60.833 51.5 98.5 67.5s78.167 24 121.5 24c42.667 0 80.667 -6 114 -18s62 -28.167 86 -48.5s43 -44.166 57 -71.499s22.333 -56.666 25 -87.999v-8h-92c-4.66699 20 -11.334 39 -20.001 57
s-20.334 33.667 -35.001 47s-33 24 -55 32s-49 12 -81 12c-32.667 0 -62.334 -6.16699 -89.001 -18.5s-49.167 -29.5 -67.5 -51.5s-32.5 -48.333 -42.5 -79s-15 -64.334 -15 -101.001c0 -38.667 5.33301 -73.834 16 -105.501s25.667 -58.834 45 -81.501
s42.5 -40.167 69.5 -52.5s56.833 -18.5 89.5 -18.5c30.667 0 57 4.16699 79 12.5s40.333 19.833 55 34.5s26.334 31.667 35.001 51s14.667 40 18 62h93v-8c-4.66699 -36 -14.834 -68.667 -30.501 -98s-35.834 -54.333 -60.501 -75s-53.334 -36.667 -86.001 -48
s-68 -17 -106 -17c-44 0 -85.167 7.83301 -123.5 23.5s-71.5 38 -99.5 67s-50 63.833 -66 104.5s-24 86 -24 136v22zM513.005 816.001l-158 -115l-163 115l35 54l128 -76l123 76z" />
    <glyph glyph-name="ccaron" unicode="&#x10d;" horiz-adv-x="564" 
d="M52 257c0 37.333 6.33496 71.832 19.002 103.499s30 59 52 82s48.167 40.833 78.5 53.5s63.5 19 99.5 19c29.333 0 56.833 -4 82.5 -12s48.167 -19.5 67.5 -34.5s35.333 -33.667 48 -56s20.667 -48.166 24 -77.499v-8h-83c-5.33301 36.667 -19.833 64.334 -43.5 83.001
s-54.834 28 -93.501 28c-24 0 -45.833 -4.83301 -65.5 -14.5s-36.334 -22.834 -50.001 -39.501s-24.334 -36.5 -32.001 -59.5s-11.5 -48.167 -11.5 -75.5c0 -26.667 3.66699 -51.5 11 -74.5s17.833 -42.833 31.5 -59.5s30 -29.667 49 -39s40.5 -14 64.5 -14c40 0 72 9 96 27
s39 46 45 84h84v-8c-3.33301 -27.333 -11.166 -52.166 -23.499 -74.499s-28.5 -41.333 -48.5 -57s-43 -27.834 -69 -36.501s-54 -13 -84 -13c-36.667 0 -70.167 6.33301 -100.5 19s-56.5 30.5 -78.5 53.5s-39 50.333 -51 82s-18 66.5 -18 104.5v14zM444.002 665.999
l-158 -115l-163 115l35 54l128 -76l123 76z" />
    <glyph glyph-name="Dcaron" unicode="&#x10e;" horiz-adv-x="685" 
d="M315 650c97.333 0 175.667 -29.668 235 -89.001c25.333 -25.333 45.5 -57.666 60.5 -96.999s22.5 -82.333 22.5 -129v-22c0 -49.333 -8.33301 -93.333 -25 -132s-37.667 -70.667 -63 -96c-26 -26 -59.333 -46.667 -100 -62s-84 -23 -130 -23h-227v650h227z
M182.001 565.999l-0.000976562 -481.999h125c74 0 128.667 17.667 164 53c23.333 23.333 40.333 50.666 51 81.999s16 66.333 16 105c0 38 -5.33301 72.833 -16 104.5s-26.667 58.167 -48 79.5c-19.333 19.333 -42.666 33.833 -69.999 43.5s-60.333 14.5 -99 14.5h-123z
M461 816l-158 -115l-163 115l35 54l128 -76l123 76z" />
    <glyph glyph-name="dcaron" unicode="&#x10f;" horiz-adv-x="667" 
d="M305 438c-28 0 -52.165 -4.83203 -72.498 -14.499s-37 -23 -50 -40s-22.667 -37 -29 -60s-9.5 -47.833 -9.5 -74.5c0 -26 3.16699 -50.333 9.5 -73s16.166 -42.5 29.499 -59.5s30.166 -30.333 50.499 -40s44.166 -14.5 71.499 -14.5c26.667 0 49.834 5 69.501 15
s35.834 23.5 48.501 40.5s22.167 36.833 28.5 59.5s9.5 46.667 9.5 72s-3 49.333 -9 72s-15.333 42.667 -28 60s-28.834 31.166 -48.501 41.499s-43.167 15.5 -70.5 15.5zM52.002 253.001c0 37.333 5.49805 72.001 16.498 104.001s27.167 59.667 48.5 83
s47.5 41.666 78.5 54.999s66.167 20 105.5 20c35.333 0 66 -6 92 -18s47 -28.333 63 -49h2v252h91v-700h-68l-19 60h-2c-18 -25.333 -42.5 -44.333 -73.5 -57s-63.5 -19 -97.5 -19c-29.333 0 -58.166 5.5 -86.499 16.5s-53.666 27.167 -75.999 48.5s-40.333 47.833 -54 79.5
s-20.5 68.167 -20.5 109.5v15zM652 700.002h97v-12l-75 -194h-65z" />
    <glyph glyph-name="Dcroat" unicode="&#x110;" horiz-adv-x="695" 
d="M98 0l0.000976562 290.999h-90v79h90v280h227c97.333 0 175.666 -29.667 234.999 -89c25.333 -25.333 45.5 -57.666 60.5 -96.999s22.5 -82.333 22.5 -129v-22c0 -49.333 -8.33301 -93.333 -25 -132s-37.667 -70.667 -63 -96c-26 -26 -59.333 -46.667 -100 -62
s-84 -23 -130 -23h-227zM317.001 83.999c74 0 128.666 17.668 163.999 53.001c23.333 23.333 40.333 50.666 51 81.999s16 66.333 16 105c0 38 -5.33301 72.833 -16 104.5s-26.667 58.167 -48 79.5c-19.333 19.333 -42.666 33.833 -69.999 43.5s-60.333 14.5 -99 14.5h-123
v-196h172v-79h-172v-207h125z" />
    <glyph glyph-name="dcroat" unicode="&#x111;" horiz-adv-x="627" 
d="M305 438c-28 0 -52.165 -4.83203 -72.498 -14.499s-37 -23 -50 -40s-22.667 -37 -29 -60s-9.5 -47.833 -9.5 -74.5c0 -26 3.16699 -50.333 9.5 -73s16.166 -42.5 29.499 -59.5s30.166 -30.333 50.499 -40s44.166 -14.5 71.499 -14.5c26.667 0 49.834 5 69.501 15
s35.834 23.5 48.501 40.5s22.167 36.833 28.5 59.5s9.5 46.667 9.5 72s-3 49.333 -9 72s-15.333 42.667 -28 60s-28.834 31.166 -48.501 41.499s-43.167 15.5 -70.5 15.5zM460.002 60.001c-18 -25.333 -42.502 -44.332 -73.502 -56.999s-63.5 -19 -97.5 -19
c-29.333 0 -58.166 5.5 -86.499 16.5s-53.666 27.167 -75.999 48.5s-40.333 47.833 -54 79.5s-20.5 68.167 -20.5 109.5v15c0 37.333 5.5 72 16.5 104s27.167 59.667 48.5 83s47.5 41.666 78.5 54.999s66.167 20 105.5 20c35.333 0 66 -6 92 -18s47 -28.333 63 -49h2v112
h-139v77h139v63h91v-63h66v-77h-66v-560h-68l-19 60h-2z" />
    <glyph glyph-name="Emacron" unicode="&#x112;" horiz-adv-x="554" 
d="M488 650v-84h-306v-193h263v-84h-263v-205h306v-84h-400v650h400zM140 784h296v-77h-296v77z" />
    <glyph glyph-name="emacron" unicode="&#x113;" horiz-adv-x="569" 
d="M509 140c-12 -50 -37.333 -88.502 -76 -115.502s-85.667 -40.5 -141 -40.5c-34.667 0 -66.667 6.16699 -96 18.5s-54.666 29.833 -75.999 52.5s-38 50 -50 82s-18 67.333 -18 106v14c0 38.667 5.83301 73.834 17.5 105.501s27.834 58.834 48.501 81.501
s45.667 40.167 75 52.5s61.333 18.5 96 18.5c37.333 0 70.166 -6.66699 98.499 -20s52.166 -31.666 71.499 -54.999s33.833 -50.5 43.5 -81.5s14.5 -64.167 14.5 -99.5v-18.5c0 -5 -0.333008 -11.167 -1 -18.5h-371c4 -46 18.333 -84.167 43 -114.5s60 -45.5 106 -45.5
c32.667 0 59.167 6.66699 79.5 20s35.5 32.666 45.5 57.999h90zM424 296.998c-1.33301 17.333 -4.83203 34.334 -10.499 51.001s-13.834 31.667 -24.501 45s-24 24.166 -40 32.499s-35 12.5 -57 12.5c-44 0 -77.5 -13 -100.5 -39s-37.833 -60 -44.5 -102h277z
M132.001 656.999h296v-77h-296v77z" />
    <glyph glyph-name="Edotaccent" unicode="&#x116;" horiz-adv-x="554" 
d="M488 650v-84h-306v-193h263v-84h-263v-205h306v-84h-400v650h400zM288 834c18 0 33.499 -5.5 46.499 -16.5s19.5 -25.833 19.5 -44.5c0 -19.333 -6.5 -34.666 -19.5 -45.999s-28.5 -17 -46.5 -17s-33.5 5.66699 -46.5 17s-19.5 26.666 -19.5 45.999
c0 18 6.33301 32.667 19 44s28.334 17 47.001 17z" />
    <glyph glyph-name="edotaccent" unicode="&#x117;" horiz-adv-x="569" 
d="M509 140c-12 -50 -37.333 -88.502 -76 -115.502s-85.667 -40.5 -141 -40.5c-34.667 0 -66.667 6.16699 -96 18.5s-54.666 29.833 -75.999 52.5s-38 50 -50 82s-18 67.333 -18 106v14c0 38.667 5.83301 73.834 17.5 105.501s27.834 58.834 48.501 81.501
s45.667 40.167 75 52.5s61.333 18.5 96 18.5c37.333 0 70.166 -6.66699 98.499 -20s52.166 -31.666 71.499 -54.999s33.833 -50.5 43.5 -81.5s14.5 -64.167 14.5 -99.5v-18.5c0 -5 -0.333008 -11.167 -1 -18.5h-371c4 -46 18.333 -84.167 43 -114.5s60 -45.5 106 -45.5
c32.667 0 59.167 6.66699 79.5 20s35.5 32.666 45.5 57.999h90zM424 296.998c-1.33301 17.333 -4.83203 34.334 -10.499 51.001s-13.834 31.667 -24.501 45s-24 24.166 -40 32.499s-35 12.5 -57 12.5c-44 0 -77.5 -13 -100.5 -39s-37.833 -60 -44.5 -102h277z
M286.001 686.999c18 0 33.499 -5.5 46.499 -16.5s19.5 -25.833 19.5 -44.5c0 -19.333 -6.5 -34.666 -19.5 -45.999s-28.5 -17 -46.5 -17s-33.5 5.66699 -46.5 17s-19.5 26.666 -19.5 45.999c0 18 6.33301 32.667 19 44s28.334 17 47.001 17z" />
    <glyph glyph-name="Eogonek" unicode="&#x118;" horiz-adv-x="554" 
d="M517 -172c-10.667 -4.66699 -23.334 -8.00098 -38.001 -10.001s-28 -3 -40 -3c-35.333 0 -61.333 8.66699 -78 26s-25 37.333 -25 60c0 18.667 5.33301 37 16 55s26.667 32.667 48 44h-312v650h400v-84h-306v-193h263v-84h-263v-205h306v-84
c-29.333 -13.333 -49.166 -27.833 -59.499 -43.5s-15.5 -31.167 -15.5 -46.5c0 -22.667 13.333 -34 40 -34c9.33301 0 17.833 0.833008 25.5 2.5s17.167 4.83398 28.5 9.50098h10v-60z" />
    <glyph glyph-name="eogonek" unicode="&#x119;" horiz-adv-x="569" 
d="M336 -185c-35.333 0 -61.3311 8.66309 -77.998 25.9961s-25 37.333 -25 60c0 15.333 3.5 30.333 10.5 45s17.5 27.667 31.5 39c-32.667 2 -62.667 9.5 -90 22.5s-50.833 30.833 -70.5 53.5s-35 49.334 -46 80.001s-16.5 64.667 -16.5 102v14
c0 38.667 5.83301 73.834 17.5 105.501s27.834 58.834 48.501 81.501s45.667 40.167 75 52.5s61.333 18.5 96 18.5c37.333 0 70.166 -6.66699 98.499 -20s52.166 -31.666 71.499 -54.999s33.833 -50.5 43.5 -81.5s14.5 -64.167 14.5 -99.5v-18.5
c0 -5 -0.333008 -11.167 -1 -18.5h-371c4 -46 18.333 -84.167 43 -114.5s60 -45.5 106 -45.5c32.667 0 59.167 6.66699 79.5 20s35.5 32.666 45.5 57.999h90c-8.66699 -36 -24 -65.833 -46 -89.5s-49.333 -41.167 -82 -52.5c-28 -13.333 -46.833 -27.5 -56.5 -42.5
s-14.5 -30.167 -14.5 -45.5c0 -22.667 13.333 -34 40 -34c9.33301 0 17.833 0.833008 25.5 2.5s17.167 4.83398 28.5 9.50098h10v-60c-10.667 -4.66699 -23.334 -8 -38.001 -10s-28 -3 -40 -3zM424.002 296.996c-1.33301 17.333 -4.83203 34.334 -10.499 51.001
s-13.834 31.667 -24.501 45s-24 24.166 -40 32.499s-35 12.5 -57 12.5c-44 0 -77.5 -13 -100.5 -39s-37.833 -60 -44.5 -102h277z" />
    <glyph glyph-name="Ecaron" unicode="&#x11a;" horiz-adv-x="554" 
d="M488 650v-84h-306v-193h263v-84h-263v-205h306v-84h-400v650h400zM453 816l-158 -115l-163 115l35 54l128 -76l123 76z" />
    <glyph glyph-name="ecaron" unicode="&#x11b;" horiz-adv-x="569" 
d="M509 140c-12 -50 -37.333 -88.502 -76 -115.502s-85.667 -40.5 -141 -40.5c-34.667 0 -66.667 6.16699 -96 18.5s-54.666 29.833 -75.999 52.5s-38 50 -50 82s-18 67.333 -18 106v14c0 38.667 5.83301 73.834 17.5 105.501s27.834 58.834 48.501 81.501
s45.667 40.167 75 52.5s61.333 18.5 96 18.5c37.333 0 70.166 -6.66699 98.499 -20s52.166 -31.666 71.499 -54.999s33.833 -50.5 43.5 -81.5s14.5 -64.167 14.5 -99.5v-18.5c0 -5 -0.333008 -11.167 -1 -18.5h-371c4 -46 18.333 -84.167 43 -114.5s60 -45.5 106 -45.5
c32.667 0 59.167 6.66699 79.5 20s35.5 32.666 45.5 57.999h90zM424 296.998c-1.33301 17.333 -4.83203 34.334 -10.499 51.001s-13.834 31.667 -24.501 45s-24 24.166 -40 32.499s-35 12.5 -57 12.5c-44 0 -77.5 -13 -100.5 -39s-37.833 -60 -44.5 -102h277z
M446.001 665.999l-158 -115l-163 115l35 54l128 -76l123 76z" />
    <glyph glyph-name="Gcircumflex" unicode="&#x11c;" horiz-adv-x="732" 
d="M662 116c-30.667 -38 -70.1699 -69.3311 -118.503 -93.998s-104.166 -37 -167.499 -37c-50 0 -95 8.33301 -135 25s-74 39.5 -102 68.5s-49.5 63.5 -64.5 103.5s-22.5 83.333 -22.5 130v22c0 50 8 95.333 24 136s38 75.5 66 104.5s61.333 51.333 100 67
s80.334 23.5 125.001 23.5c34 0 66.833 -4 98.5 -12s60.167 -20.5 85.5 -37.5s46.166 -38.833 62.499 -65.5s26.166 -58.334 29.499 -95.001v-9h-94c-5.33301 47.333 -24.666 81.333 -57.999 102s-74.333 31 -123 31c-35.333 0 -66.666 -6.33301 -93.999 -19
s-50.5 -30.334 -69.5 -53.001s-33.333 -49.667 -43 -81s-14.5 -65.333 -14.5 -102c0 -36 5 -69.5 15 -100.5s25 -57.833 45 -80.5s45.333 -40.5 76 -53.5s66.334 -19.5 107.001 -19.5c36 0 68.833 6 98.5 18s56.5 29.333 80.5 52v119h-191v84h284v-227zM199.997 755.002
l158 115l163 -115l-35 -54l-128 76l-123 -76z" />
    <glyph glyph-name="gcircumflex" unicode="&#x11d;" horiz-adv-x="546" 
d="M278 441c-35.333 0 -63.333 -8.5 -84 -25.5s-31 -41.5 -31 -73.5c0 -32.667 10.333 -57.334 31 -74.001s48.667 -25 84 -25c36 0 64.167 8.33301 84.5 25s30.5 41.334 30.5 74.001c0 32 -10.167 56.5 -30.5 73.5s-48.5 25.5 -84.5 25.5zM521 -40
c0 -26.667 -7.50293 -49.6631 -22.5029 -68.9961s-34.333 -35.333 -58 -48s-50.167 -22.167 -79.5 -28.5s-58.666 -9.5 -87.999 -9.5c-28 0 -56 2.66699 -84 8s-53.167 13.5 -75.5 24.5s-40.333 24.833 -54 41.5s-20.5 36.667 -20.5 60v6c0 23.333 6.5 45.166 19.5 65.499
s28.833 34.5 47.5 42.5c-8.66699 9.33301 -16.5 20.166 -23.5 32.499s-10.5 26.5 -10.5 42.5c0 19.333 4.33301 36.166 13 50.499s21.667 27.166 39 38.499c-15.333 13.333 -27.5 29.833 -36.5 49.5s-13.5 42.834 -13.5 69.501v11c0 28 5.33301 52.667 16 74
s25.167 39 43.5 53s39.833 24.5 64.5 31.5s51.334 10.5 80.001 10.5c26.667 0 51.334 -3 74.001 -9l80 94h89v-13l-97 -115c18 -14 32.167 -31.5 42.5 -52.5s15.5 -45.5 15.5 -73.5v-12c0 -27.333 -5.5 -51.166 -16.5 -71.499s-25.833 -37.333 -44.5 -51
s-40.667 -24 -66 -31s-52.333 -10.5 -81 -10.5c-34 0 -64 4.33301 -90 13c-10 -4.66699 -17.5 -11.167 -22.5 -19.5s-7.5 -16.833 -7.5 -25.5c0 -13.333 4 -24.5 12 -33.5s21 -13.5 39 -13.5h144c24 0 46.5 -2.83301 67.5 -8.5s39.167 -13.834 54.5 -24.501
s27.5 -23.834 36.5 -39.501s13.5 -33.167 13.5 -52.5v-7zM276.997 -119.996c45.333 0 82.167 6.49902 110.5 19.499s42.5 33.5 42.5 61.5c0 16 -7.16699 28.667 -21.5 38s-36.833 14 -67.5 14h-164c-14 -5.33301 -25.5 -13.5 -34.5 -24.5s-13.5 -24.167 -13.5 -39.5
c0 -21.333 12.333 -38.166 37 -50.499s61.667 -18.5 111 -18.5zM118.998 604.003l138 115l143 -115l-31 -53l-112 75l-107 -75z" />
    <glyph glyph-name="Gbreve" unicode="&#x11e;" horiz-adv-x="732" 
d="M662 116c-30.667 -38 -70.1699 -69.3311 -118.503 -93.998s-104.166 -37 -167.499 -37c-50 0 -95 8.33301 -135 25s-74 39.5 -102 68.5s-49.5 63.5 -64.5 103.5s-22.5 83.333 -22.5 130v22c0 50 8 95.333 24 136s38 75.5 66 104.5s61.333 51.333 100 67
s80.334 23.5 125.001 23.5c34 0 66.833 -4 98.5 -12s60.167 -20.5 85.5 -37.5s46.166 -38.833 62.499 -65.5s26.166 -58.334 29.499 -95.001v-9h-94c-5.33301 47.333 -24.666 81.333 -57.999 102s-74.333 31 -123 31c-35.333 0 -66.666 -6.33301 -93.999 -19
s-50.5 -30.334 -69.5 -53.001s-33.333 -49.667 -43 -81s-14.5 -65.333 -14.5 -102c0 -36 5 -69.5 15 -100.5s25 -57.833 45 -80.5s45.333 -40.5 76 -53.5s66.334 -19.5 107.001 -19.5c36 0 68.833 6 98.5 18s56.5 29.333 80.5 52v119h-191v84h284v-227zM281.997 821.002
c4.66699 -21.333 13.665 -36.666 26.998 -45.999s30 -14 50 -14s36.667 4.66699 50 14s22.333 24.666 27 45.999h92c-2.66699 -20 -9 -37.833 -19 -53.5s-22.5 -28.834 -37.5 -39.501s-32.167 -18.834 -51.5 -24.501s-39.666 -8.5 -60.999 -8.5s-41.666 2.83301 -60.999 8.5
s-36.5 13.834 -51.5 24.501s-27.5 23.834 -37.5 39.501s-16.333 33.5 -19 53.5h92z" />
    <glyph glyph-name="gbreve" unicode="&#x11f;" horiz-adv-x="546" 
d="M278 441c-35.333 0 -63.333 -8.5 -84 -25.5s-31 -41.5 -31 -73.5c0 -32.667 10.333 -57.334 31 -74.001s48.667 -25 84 -25c36 0 64.167 8.33301 84.5 25s30.5 41.334 30.5 74.001c0 32 -10.167 56.5 -30.5 73.5s-48.5 25.5 -84.5 25.5zM521 -40
c0 -26.667 -7.50293 -49.6631 -22.5029 -68.9961s-34.333 -35.333 -58 -48s-50.167 -22.167 -79.5 -28.5s-58.666 -9.5 -87.999 -9.5c-28 0 -56 2.66699 -84 8s-53.167 13.5 -75.5 24.5s-40.333 24.833 -54 41.5s-20.5 36.667 -20.5 60v6c0 23.333 6.5 45.166 19.5 65.499
s28.833 34.5 47.5 42.5c-8.66699 9.33301 -16.5 20.166 -23.5 32.499s-10.5 26.5 -10.5 42.5c0 19.333 4.33301 36.166 13 50.499s21.667 27.166 39 38.499c-15.333 13.333 -27.5 29.833 -36.5 49.5s-13.5 42.834 -13.5 69.501v11c0 28 5.33301 52.667 16 74
s25.167 39 43.5 53s39.833 24.5 64.5 31.5s51.334 10.5 80.001 10.5c26.667 0 51.334 -3 74.001 -9l80 94h89v-13l-97 -115c18 -14 32.167 -31.5 42.5 -52.5s15.5 -45.5 15.5 -73.5v-12c0 -27.333 -5.5 -51.166 -16.5 -71.499s-25.833 -37.333 -44.5 -51
s-40.667 -24 -66 -31s-52.333 -10.5 -81 -10.5c-34 0 -64 4.33301 -90 13c-10 -4.66699 -17.5 -11.167 -22.5 -19.5s-7.5 -16.833 -7.5 -25.5c0 -13.333 4 -24.5 12 -33.5s21 -13.5 39 -13.5h144c24 0 46.5 -2.83301 67.5 -8.5s39.167 -13.834 54.5 -24.501
s27.5 -23.834 36.5 -39.501s13.5 -33.167 13.5 -52.5v-7zM276.997 -119.996c45.333 0 82.167 6.49902 110.5 19.499s42.5 33.5 42.5 61.5c0 16 -7.16699 28.667 -21.5 38s-36.833 14 -67.5 14h-164c-14 -5.33301 -25.5 -13.5 -34.5 -24.5s-13.5 -24.167 -13.5 -39.5
c0 -21.333 12.333 -38.166 37 -50.499s61.667 -18.5 111 -18.5zM198.998 683.003c4.66699 -21.333 13.665 -36.666 26.998 -45.999s30 -14 50 -14s36.667 4.66699 50 14s22.333 24.666 27 45.999h92c-2.66699 -20 -9 -37.833 -19 -53.5s-22.5 -28.834 -37.5 -39.501
s-32.167 -18.834 -51.5 -24.501s-39.666 -8.5 -60.999 -8.5s-41.666 2.83301 -60.999 8.5s-36.5 13.834 -51.5 24.501s-27.5 23.834 -37.5 39.501s-16.333 33.5 -19 53.5h92z" />
    <glyph glyph-name="Gdotaccent" unicode="&#x120;" horiz-adv-x="732" 
d="M662 116c-30.667 -38 -70.1699 -69.3311 -118.503 -93.998s-104.166 -37 -167.499 -37c-50 0 -95 8.33301 -135 25s-74 39.5 -102 68.5s-49.5 63.5 -64.5 103.5s-22.5 83.333 -22.5 130v22c0 50 8 95.333 24 136s38 75.5 66 104.5s61.333 51.333 100 67
s80.334 23.5 125.001 23.5c34 0 66.833 -4 98.5 -12s60.167 -20.5 85.5 -37.5s46.166 -38.833 62.499 -65.5s26.166 -58.334 29.499 -95.001v-9h-94c-5.33301 47.333 -24.666 81.333 -57.999 102s-74.333 31 -123 31c-35.333 0 -66.666 -6.33301 -93.999 -19
s-50.5 -30.334 -69.5 -53.001s-33.333 -49.667 -43 -81s-14.5 -65.333 -14.5 -102c0 -36 5 -69.5 15 -100.5s25 -57.833 45 -80.5s45.333 -40.5 76 -53.5s66.334 -19.5 107.001 -19.5c36 0 68.833 6 98.5 18s56.5 29.333 80.5 52v119h-191v84h284v-227zM358.997 834.002
c18 0 33.499 -5.5 46.499 -16.5s19.5 -25.833 19.5 -44.5c0 -19.333 -6.5 -34.666 -19.5 -45.999s-28.5 -17 -46.5 -17s-33.5 5.66699 -46.5 17s-19.5 26.666 -19.5 45.999c0 18 6.33301 32.667 19 44s28.334 17 47.001 17z" />
    <glyph glyph-name="gdotaccent" unicode="&#x121;" horiz-adv-x="546" 
d="M278 441c-35.333 0 -63.333 -8.5 -84 -25.5s-31 -41.5 -31 -73.5c0 -32.667 10.333 -57.334 31 -74.001s48.667 -25 84 -25c36 0 64.167 8.33301 84.5 25s30.5 41.334 30.5 74.001c0 32 -10.167 56.5 -30.5 73.5s-48.5 25.5 -84.5 25.5zM521 -40
c0 -26.667 -7.50293 -49.6631 -22.5029 -68.9961s-34.333 -35.333 -58 -48s-50.167 -22.167 -79.5 -28.5s-58.666 -9.5 -87.999 -9.5c-28 0 -56 2.66699 -84 8s-53.167 13.5 -75.5 24.5s-40.333 24.833 -54 41.5s-20.5 36.667 -20.5 60v6c0 23.333 6.5 45.166 19.5 65.499
s28.833 34.5 47.5 42.5c-8.66699 9.33301 -16.5 20.166 -23.5 32.499s-10.5 26.5 -10.5 42.5c0 19.333 4.33301 36.166 13 50.499s21.667 27.166 39 38.499c-15.333 13.333 -27.5 29.833 -36.5 49.5s-13.5 42.834 -13.5 69.501v11c0 28 5.33301 52.667 16 74
s25.167 39 43.5 53s39.833 24.5 64.5 31.5s51.334 10.5 80.001 10.5c26.667 0 51.334 -3 74.001 -9l80 94h89v-13l-97 -115c18 -14 32.167 -31.5 42.5 -52.5s15.5 -45.5 15.5 -73.5v-12c0 -27.333 -5.5 -51.166 -16.5 -71.499s-25.833 -37.333 -44.5 -51
s-40.667 -24 -66 -31s-52.333 -10.5 -81 -10.5c-34 0 -64 4.33301 -90 13c-10 -4.66699 -17.5 -11.167 -22.5 -19.5s-7.5 -16.833 -7.5 -25.5c0 -13.333 4 -24.5 12 -33.5s21 -13.5 39 -13.5h144c24 0 46.5 -2.83301 67.5 -8.5s39.167 -13.834 54.5 -24.501
s27.5 -23.834 36.5 -39.501s13.5 -33.167 13.5 -52.5v-7zM276.997 -119.996c45.333 0 82.167 6.49902 110.5 19.499s42.5 33.5 42.5 61.5c0 16 -7.16699 28.667 -21.5 38s-36.833 14 -67.5 14h-164c-14 -5.33301 -25.5 -13.5 -34.5 -24.5s-13.5 -24.167 -13.5 -39.5
c0 -21.333 12.333 -38.166 37 -50.499s61.667 -18.5 111 -18.5zM265.998 687.003c18 0 33.499 -5.5 46.499 -16.5s19.5 -25.833 19.5 -44.5c0 -19.333 -6.5 -34.666 -19.5 -45.999s-28.5 -17 -46.5 -17s-33.5 5.66699 -46.5 17s-19.5 26.666 -19.5 45.999
c0 18 6.33301 32.667 19 44s28.334 17 47.001 17z" />
    <glyph glyph-name="uni0122" unicode="&#x122;" horiz-adv-x="732" 
d="M662 116c-30.667 -38 -70.1699 -69.3311 -118.503 -93.998s-104.166 -37 -167.499 -37c-50 0 -95 8.33301 -135 25s-74 39.5 -102 68.5s-49.5 63.5 -64.5 103.5s-22.5 83.333 -22.5 130v22c0 50 8 95.333 24 136s38 75.5 66 104.5s61.333 51.333 100 67
s80.334 23.5 125.001 23.5c34 0 66.833 -4 98.5 -12s60.167 -20.5 85.5 -37.5s46.166 -38.833 62.499 -65.5s26.166 -58.334 29.499 -95.001v-9h-94c-5.33301 47.333 -24.666 81.333 -57.999 102s-74.333 31 -123 31c-35.333 0 -66.666 -6.33301 -93.999 -19
s-50.5 -30.334 -69.5 -53.001s-33.333 -49.667 -43 -81s-14.5 -65.333 -14.5 -102c0 -36 5 -69.5 15 -100.5s25 -57.833 45 -80.5s45.333 -40.5 76 -53.5s66.334 -19.5 107.001 -19.5c36 0 68.833 6 98.5 18s56.5 29.333 80.5 52v119h-191v84h284v-227zM321.997 -69.998h97
v-12l-75 -147h-65z" />
    <glyph glyph-name="uni0123" unicode="&#x123;" horiz-adv-x="546" 
d="M278 441c-35.333 0 -63.333 -8.5 -84 -25.5s-31 -41.5 -31 -73.5c0 -32.667 10.333 -57.334 31 -74.001s48.667 -25 84 -25c36 0 64.167 8.33301 84.5 25s30.5 41.334 30.5 74.001c0 32 -10.167 56.5 -30.5 73.5s-48.5 25.5 -84.5 25.5zM521 -40
c0 -26.667 -7.50293 -49.6631 -22.5029 -68.9961s-34.333 -35.333 -58 -48s-50.167 -22.167 -79.5 -28.5s-58.666 -9.5 -87.999 -9.5c-28 0 -56 2.66699 -84 8s-53.167 13.5 -75.5 24.5s-40.333 24.833 -54 41.5s-20.5 36.667 -20.5 60v6c0 23.333 6.5 45.166 19.5 65.499
s28.833 34.5 47.5 42.5c-8.66699 9.33301 -16.5 20.166 -23.5 32.499s-10.5 26.5 -10.5 42.5c0 19.333 4.33301 36.166 13 50.499s21.667 27.166 39 38.499c-15.333 13.333 -27.5 29.833 -36.5 49.5s-13.5 42.834 -13.5 69.501v11c0 28 5.33301 52.667 16 74
s25.167 39 43.5 53s39.833 24.5 64.5 31.5s51.334 10.5 80.001 10.5c26.667 0 51.334 -3 74.001 -9l80 94h89v-13l-97 -115c18 -14 32.167 -31.5 42.5 -52.5s15.5 -45.5 15.5 -73.5v-12c0 -27.333 -5.5 -51.166 -16.5 -71.499s-25.833 -37.333 -44.5 -51
s-40.667 -24 -66 -31s-52.333 -10.5 -81 -10.5c-34 0 -64 4.33301 -90 13c-10 -4.66699 -17.5 -11.167 -22.5 -19.5s-7.5 -16.833 -7.5 -25.5c0 -13.333 4 -24.5 12 -33.5s21 -13.5 39 -13.5h144c24 0 46.5 -2.83301 67.5 -8.5s39.167 -13.834 54.5 -24.501
s27.5 -23.834 36.5 -39.501s13.5 -33.167 13.5 -52.5v-7zM276.997 -119.996c45.333 0 82.167 6.49902 110.5 19.499s42.5 33.5 42.5 61.5c0 16 -7.16699 28.667 -21.5 38s-36.833 14 -67.5 14h-164c-14 -5.33301 -25.5 -13.5 -34.5 -24.5s-13.5 -24.167 -13.5 -39.5
c0 -21.333 12.333 -38.166 37 -50.499s61.667 -18.5 111 -18.5zM280.998 724.003h97v-11l-75 -154h-65z" />
    <glyph glyph-name="Hcircumflex" unicode="&#x124;" horiz-adv-x="723" 
d="M88 0v650h94v-277h359v277h94v-650h-94v289h-359v-289h-94zM202 755l158 115l163 -115l-35 -54l-128 76l-123 -76z" />
    <glyph glyph-name="hcircumflex" unicode="&#x125;" horiz-adv-x="568" 
d="M169 0l-90.999 -0.000976562v700h91v-253h2c18 22.667 39.5 39.667 64.5 51s50.833 17 77.5 17c60.667 0 107.667 -17.667 141 -53c30.667 -32 46 -79 46 -141v-321h-90v305c0 25.333 -2.33301 45.833 -7 61.5s-12 28.5 -22 38.5c-20 20 -48.333 30 -85 30
c-20 0 -38.333 -3 -55 -9s-31.334 -16 -44.001 -30c-18.667 -19.333 -28 -53.666 -28 -102.999v-293zM-36.999 804.999l158 115l163 -115l-35 -54l-128 76l-123 -76z" />
    <glyph glyph-name="Hbar" unicode="&#x126;" horiz-adv-x="723" 
d="M541 373v114h-359v-114h359zM182 0h-94v487h-70v78h70v85h94v-85h359v85h94v-85h72v-78h-72v-487h-94v289h-359v-289z" />
    <glyph glyph-name="hbar" unicode="&#x127;" horiz-adv-x="568" 
d="M169 0l-90.999 -0.000976562v560h-66v77h66v63h91v-63h139v-77h-139v-113h2c18 22.667 39.5 39.667 64.5 51s50.833 17 77.5 17c60.667 0 107.667 -17.667 141 -53c30.667 -32 46 -79 46 -141v-321h-90v305c0 25.333 -2.33301 45.833 -7 61.5s-12 28.5 -22 38.5
c-20 20 -48.333 30 -85 30c-20 0 -38.333 -3 -55 -9s-31.334 -16 -44.001 -30c-18.667 -19.333 -28 -53.666 -28 -102.999v-293z" />
    <glyph glyph-name="Itilde" unicode="&#x128;" horiz-adv-x="270" 
d="M88 0v650h94v-650h-94zM-34 700c0 15.333 2.16699 30.1689 6.5 44.502s10.666 27.333 18.999 39s19 21 32 28s27.833 10.5 44.5 10.5c15.333 0 28.5 -2.33301 39.5 -7s21.333 -9.83398 31 -15.501s19.167 -10.834 28.5 -15.501s19.333 -7 30 -7
c9.33301 0 18.5 2.66699 27.5 8s13.5 18.666 13.5 39.999h66c0 -14.667 -2.16699 -29.334 -6.5 -44.001s-10.666 -27.834 -18.999 -39.501s-18.833 -21 -31.5 -28s-27.667 -10.5 -45 -10.5c-14.667 0 -27.667 2.33301 -39 7s-22 9.83398 -32 15.501
s-19.5 10.834 -28.5 15.501s-19.167 7 -30.5 7c-9.33301 0 -18.333 -2.66699 -27 -8s-13 -18.666 -13 -39.999h-66z" />
    <glyph glyph-name="itilde" unicode="&#x129;" horiz-adv-x="239" 
d="M74 0v500h91v-500h-91zM-50 560c0 15.333 2.16699 30.1689 6.5 44.502s10.666 27.333 18.999 39s19 21 32 28s27.833 10.5 44.5 10.5c15.333 0 28.5 -2.33301 39.5 -7s21.333 -9.83398 31 -15.501s19.167 -10.834 28.5 -15.501s19.333 -7 30 -7
c9.33301 0 18.5 2.66699 27.5 8s13.5 18.666 13.5 39.999h66c0 -14.667 -2.16699 -29.334 -6.5 -44.001s-10.666 -27.834 -18.999 -39.501s-18.833 -21 -31.5 -28s-27.667 -10.5 -45 -10.5c-14.667 0 -27.667 2.33301 -39 7s-22 9.83398 -32 15.501
s-19.5 10.834 -28.5 15.501s-19.167 7 -30.5 7c-9.33301 0 -18.333 -2.66699 -27 -8s-13 -18.666 -13 -39.999h-66z" />
    <glyph glyph-name="Imacron" unicode="&#x12a;" horiz-adv-x="270" 
d="M88 0v650h94v-650h-94zM-13 784h296v-77h-296v77z" />
    <glyph glyph-name="imacron" unicode="&#x12b;" horiz-adv-x="239" 
d="M74 0v500h91v-500h-91zM-29 657h296v-77h-296v77z" />
    <glyph glyph-name="Ibreve" unicode="&#x12c;" horiz-adv-x="270" 
d="M88 0v650h94v-650h-94zM58 821c4.66699 -21.333 13.665 -36.666 26.998 -45.999s30 -14 50 -14s36.667 4.66699 50 14s22.333 24.666 27 45.999h92c-2.66699 -20 -9 -37.833 -19 -53.5s-22.5 -28.834 -37.5 -39.501s-32.167 -18.834 -51.5 -24.501
s-39.666 -8.5 -60.999 -8.5s-41.666 2.83301 -60.999 8.5s-36.5 13.834 -51.5 24.501s-27.5 23.834 -37.5 39.501s-16.333 33.5 -19 53.5h92z" />
    <glyph glyph-name="ibreve" unicode="&#x12d;" horiz-adv-x="239" 
d="M74 0v500h91v-500h-91zM42 683c4.66699 -21.333 13.665 -36.666 26.998 -45.999s30 -14 50 -14s36.667 4.66699 50 14s22.333 24.666 27 45.999h92c-2.66699 -20 -9 -37.833 -19 -53.5s-22.5 -28.834 -37.5 -39.501s-32.167 -18.834 -51.5 -24.501
s-39.666 -8.5 -60.999 -8.5s-41.666 2.83301 -60.999 8.5s-36.5 13.834 -51.5 24.501s-27.5 23.834 -37.5 39.501s-16.333 33.5 -19 53.5h92z" />
    <glyph glyph-name="Iogonek" unicode="&#x12e;" horiz-adv-x="270" 
d="M211 -172c-10.667 -4.66699 -23.334 -8.00098 -38.001 -10.001s-28 -3 -40 -3c-35.333 0 -61.333 8.66699 -78 26s-25 37.333 -25 60c0 18.667 5.33301 37 16 55s26.667 32.667 48 44h-6v650h94v-650c-29.333 -13.333 -49.166 -27.833 -59.499 -43.5
s-15.5 -31.167 -15.5 -46.5c0 -22.667 13.333 -34 40 -34c9.33301 0 17.833 0.833008 25.5 2.5s17.167 4.83398 28.5 9.50098h10v-60z" />
    <glyph glyph-name="iogonek" unicode="&#x12f;" horiz-adv-x="239" 
d="M185 654c0 -18 -6.33301 -32.333 -19 -43s-28 -16 -46 -16s-33.333 5.33301 -46 16s-19 25 -19 43v3c0 18.667 6.33301 33 19 43s28 15 46 15s33.333 -5 46 -15s19 -24.333 19 -43v-3zM194 -172c-10.667 -4.66699 -23.334 -8.00098 -38.001 -10.001s-28 -3 -40 -3
c-35.333 0 -61.333 8.66699 -78 26s-25 37.333 -25 60c0 18.667 5.33301 37 16 55s26.667 32.667 48 44h-3v500h91v-500c-29.333 -13.333 -49.166 -27.833 -59.499 -43.5s-15.5 -31.167 -15.5 -46.5c0 -22.667 13.333 -34 40 -34c9.33301 0 17.833 0.833008 25.5 2.5
s17.167 4.83398 28.5 9.50098h10v-60z" />
    <glyph glyph-name="Idotaccent" unicode="&#x130;" horiz-adv-x="270" 
d="M88 0v650h94v-650h-94zM135 834c18 0 33.499 -5.5 46.499 -16.5s19.5 -25.833 19.5 -44.5c0 -19.333 -6.5 -34.666 -19.5 -45.999s-28.5 -17 -46.5 -17s-33.5 5.66699 -46.5 17s-19.5 26.666 -19.5 45.999c0 18 6.33301 32.667 19 44s28.334 17 47.001 17z" />
    <glyph glyph-name="dotlessi" unicode="&#x131;" horiz-adv-x="239" 
d="M74 0v500h91v-500h-91z" />
    <glyph glyph-name="Jcircumflex" unicode="&#x134;" horiz-adv-x="410" 
d="M54 87c11.333 -5.33301 23.3311 -9.66602 35.998 -12.999s26 -5 40 -5s26.833 1.66699 38.5 5s21.834 9 30.501 17c10.667 10 18.5 22.833 23.5 38.5s7.5 36.167 7.5 61.5v459h92v-466c0 -24 -2.83301 -47.833 -8.5 -71.5s-15.334 -45 -29.001 -64s-32 -34.5 -55 -46.5
s-52.167 -18 -87.5 -18c-15.333 0 -32.666 1.16699 -51.999 3.5s-36.666 7.16602 -51.999 14.499v85h16zM116.998 755l158 115l163 -115l-35 -54l-128 76l-123 -76z" />
    <glyph glyph-name="jcircumflex" unicode="&#x135;" horiz-adv-x="240" 
d="M-22 -180l-0.000976562 12.999c18 12.667 33.167 28.167 45.5 46.5s22.333 37.333 30 57s13 39.667 16 60s4.5 38.833 4.5 55.5v448h92v-455c0 -46 -8.66699 -89.167 -26 -129.5s-41.666 -72.166 -72.999 -95.499h-89zM-39.001 604.999l158 115l163 -115l-35 -54l-128 76
l-123 -76z" />
    <glyph glyph-name="uni0136" unicode="&#x136;" horiz-adv-x="616" 
d="M182 317v-317h-94v650h94v-284l276 284h105v-15l-284 -289l303 -331v-15h-109zM268 -70h97v-12l-75 -147h-65z" />
    <glyph glyph-name="uni0137" unicode="&#x137;" horiz-adv-x="514" 
d="M169 244v-244h-91v700h91v-417l186 217h98v-13l-187 -217l236 -257v-13h-109zM236 -70h97v-12l-75 -147h-65z" />
    <glyph glyph-name="Lacute" unicode="&#x139;" horiz-adv-x="524" 
d="M88 650h94v-566h296v-84h-390v650zM1 746l218 142l46 -81l-235 -113z" />
    <glyph glyph-name="lacute" unicode="&#x13a;" horiz-adv-x="295" 
d="M164 149c0 -31.333 7.83203 -51.833 23.499 -61.5s36.5 -12.167 62.5 -7.5h15v-78c-6.66699 -1.33301 -16.167 -2.5 -28.5 -3.5s-23.166 -1.5 -32.499 -1.5c-43.333 0 -76 12.167 -98 36.5s-33 58.833 -33 103.5v563h91v-551zM-14.001 797l218 142l46 -81l-235 -113z" />
    <glyph glyph-name="uni013B" unicode="&#x13b;" horiz-adv-x="524" 
d="M88 650h94v-566h296v-84h-390v650zM236 -70h97v-12l-75 -147h-65z" />
    <glyph glyph-name="uni013C" unicode="&#x13c;" horiz-adv-x="295" 
d="M164 149c0 -31.333 7.83203 -51.833 23.499 -61.5s36.5 -12.167 62.5 -7.5h15v-78c-6.66699 -1.33301 -16.167 -2.5 -28.5 -3.5s-23.166 -1.5 -32.499 -1.5c-43.333 0 -76 12.167 -98 36.5s-33 58.833 -33 103.5v563h91v-551zM141.999 -70h97v-12l-75 -147h-65z" />
    <glyph glyph-name="Lcaron" unicode="&#x13d;" horiz-adv-x="524" 
d="M88 650h94v-566h296v-84h-390v650zM327 650h97v-12l-75 -194h-65z" />
    <glyph glyph-name="lcaron" unicode="&#x13e;" horiz-adv-x="303" 
d="M164 149c0 -31.333 7.83203 -51.833 23.499 -61.5s36.5 -12.167 62.5 -7.5h15v-78c-6.66699 -1.33301 -16.167 -2.5 -28.5 -3.5s-23.166 -1.5 -32.499 -1.5c-43.333 0 -76 12.167 -98 36.5s-33 58.833 -33 103.5v563h91v-551zM267.999 700h97v-12l-75 -194h-65z" />
    <glyph glyph-name="Ldot" unicode="&#x13f;" horiz-adv-x="524" 
d="M88 650h94v-566h296v-84h-390v650zM331 397c18 0 33.499 -5.5 46.499 -16.5s19.5 -25.833 19.5 -44.5c0 -19.333 -6.5 -34.666 -19.5 -45.999s-28.5 -17 -46.5 -17s-33.5 5.66699 -46.5 17s-19.5 26.666 -19.5 45.999c0 18 6.33301 32.667 19 44s28.334 17 47.001 17z
" />
    <glyph glyph-name="ldot" unicode="&#x140;" horiz-adv-x="395" 
d="M164 149c0 -31.333 7.83203 -51.833 23.499 -61.5s36.5 -12.167 62.5 -7.5h15v-78c-6.66699 -1.33301 -16.167 -2.5 -28.5 -3.5s-23.166 -1.5 -32.499 -1.5c-43.333 0 -76 12.167 -98 36.5s-33 58.833 -33 103.5v563h91v-551zM313.999 397c18 0 33.499 -5.5 46.499 -16.5
s19.5 -25.833 19.5 -44.5c0 -19.333 -6.5 -34.666 -19.5 -45.999s-28.5 -17 -46.5 -17s-33.5 5.66699 -46.5 17s-19.5 26.666 -19.5 45.999c0 18 6.33301 32.667 19 44s28.334 17 47.001 17z" />
    <glyph glyph-name="Lslash" unicode="&#x141;" horiz-adv-x="534" 
d="M98 0v262l-66 -28l-33 75l99 41v300h94v-260l111 46l33 -75l-144 -60v-217h296v-84h-390z" />
    <glyph glyph-name="lslash" unicode="&#x142;" horiz-adv-x="315" 
d="M214 -3c-43.333 0 -76.001 12.167 -98.001 36.5s-33 58.833 -33 103.5v144l-61 -26l-33 75l94 40v330h91v-291l87 37l33 -75l-120 -51v-171c0 -31.333 7.83301 -51.833 23.5 -61.5s36.5 -12.167 62.5 -7.5h15v-78c-6.66699 -1.33301 -16.167 -2.5 -28.5 -3.5
s-23.166 -1.5 -32.499 -1.5z" />
    <glyph glyph-name="Nacute" unicode="&#x143;" horiz-adv-x="718" 
d="M88 0v650.002h100l263 -373c4.66699 -6 11 -15 19 -27s16.167 -24.5 24.5 -37.5s16.333 -25.333 24 -37s13.167 -20.5 16.5 -26.5h3c0 7.33301 -0.166992 17.166 -0.5 29.499s-0.666016 25.5 -0.999023 39.5s-0.5 27.333 -0.5 40v30v362h94v-650h-95l-265 373
c-4 6 -10.167 15 -18.5 27s-17 24.667 -26 38s-17.333 26 -25 38s-13.5 21 -17.5 27h-3c0 -6.66699 0.166992 -16.334 0.5 -29.001s0.666016 -26 0.999023 -40s0.5 -27.5 0.5 -40.5v-30.5v-363h-94zM227 745.002l218 142l46 -81l-235 -113z" />
    <glyph glyph-name="nacute" unicode="&#x144;" horiz-adv-x="568" 
d="M169 0l-91 -0.000976562v500h68l18 -59h2c18.667 25.333 40.834 44 66.501 56s52.5 18 80.5 18c60.667 0 107.667 -17.667 141 -53c30.667 -32 46 -79 46 -141v-321h-90v305c0 25.333 -2.33301 45.833 -7 61.5s-12 28.5 -22 38.5c-20 20 -48.333 30 -85 30
c-20 0 -38.333 -3 -55 -9s-31.334 -16 -44.001 -30c-18.667 -19.333 -28 -53.666 -28 -102.999v-293zM157 594.999l218 142l46 -81l-235 -113z" />
    <glyph glyph-name="uni0145" unicode="&#x145;" horiz-adv-x="718" 
d="M88 0v650.002h100l263 -373c4.66699 -6 11 -15 19 -27s16.167 -24.5 24.5 -37.5s16.333 -25.333 24 -37s13.167 -20.5 16.5 -26.5h3c0 7.33301 -0.166992 17.166 -0.5 29.499s-0.666016 25.5 -0.999023 39.5s-0.5 27.333 -0.5 40v30v362h94v-650h-95l-265 373
c-4 6 -10.167 15 -18.5 27s-17 24.667 -26 38s-17.333 26 -25 38s-13.5 21 -17.5 27h-3c0 -6.66699 0.166992 -16.334 0.5 -29.001s0.666016 -26 0.999023 -40s0.5 -27.5 0.5 -40.5v-30.5v-363h-94zM318 -69.998h97v-12l-75 -147h-65z" />
    <glyph glyph-name="uni0146" unicode="&#x146;" horiz-adv-x="568" 
d="M169 0l-91 -0.000976562v500h68l18 -59h2c18.667 25.333 40.834 44 66.501 56s52.5 18 80.5 18c60.667 0 107.667 -17.667 141 -53c30.667 -32 46 -79 46 -141v-321h-90v305c0 25.333 -2.33301 45.833 -7 61.5s-12 28.5 -22 38.5c-20 20 -48.333 30 -85 30
c-20 0 -38.333 -3 -55 -9s-31.334 -16 -44.001 -30c-18.667 -19.333 -28 -53.666 -28 -102.999v-293zM245 -70.001h97v-12l-75 -147h-65z" />
    <glyph glyph-name="Ncaron" unicode="&#x147;" horiz-adv-x="718" 
d="M88 0v650.002h100l263 -373c4.66699 -6 11 -15 19 -27s16.167 -24.5 24.5 -37.5s16.333 -25.333 24 -37s13.167 -20.5 16.5 -26.5h3c0 7.33301 -0.166992 17.166 -0.5 29.499s-0.666016 25.5 -0.999023 39.5s-0.5 27.333 -0.5 40v30v362h94v-650h-95l-265 373
c-4 6 -10.167 15 -18.5 27s-17 24.667 -26 38s-17.333 26 -25 38s-13.5 21 -17.5 27h-3c0 -6.66699 0.166992 -16.334 0.5 -29.001s0.666016 -26 0.999023 -40s0.5 -27.5 0.5 -40.5v-30.5v-363h-94zM518 816.002l-158 -115l-163 115l35 54l128 -76l123 76z" />
    <glyph glyph-name="ncaron" unicode="&#x148;" horiz-adv-x="568" 
d="M169 0l-91 -0.000976562v500h68l18 -59h2c18.667 25.333 40.834 44 66.501 56s52.5 18 80.5 18c60.667 0 107.667 -17.667 141 -53c30.667 -32 46 -79 46 -141v-321h-90v305c0 25.333 -2.33301 45.833 -7 61.5s-12 28.5 -22 38.5c-20 20 -48.333 30 -85 30
c-20 0 -38.333 -3 -55 -9s-31.334 -16 -44.001 -30c-18.667 -19.333 -28 -53.666 -28 -102.999v-293zM443 665.999l-158 -115l-163 115l35 54l128 -76l123 76z" />
    <glyph glyph-name="napostrophe" unicode="&#x149;" horiz-adv-x="710" 
d="M311 0l-91 -0.000976562v500h68l18 -59h2c18.667 25.333 40.834 44 66.501 56s52.5 18 80.5 18c60.667 0 107.667 -17.667 141 -53c30.667 -32 46 -79 46 -141v-321h-90v305c0 25.333 -2.33301 45.833 -7 61.5s-12 28.5 -22 38.5c-20 20 -48.333 30 -85 30
c-20 0 -38.333 -3 -55 -9s-31.334 -16 -44.001 -30c-18.667 -19.333 -28 -53.666 -28 -102.999v-293zM57 649.999h115v-12l-99 -247h-65z" />
    <glyph glyph-name="Eng" unicode="&#x14a;" horiz-adv-x="718" 
d="M447 -195c-10.667 0 -22.667 0.501953 -36 1.50195s-26.333 3.16699 -39 6.5v86h8c17.333 -6 35.666 -9 54.999 -9c14 0 26.833 1.66699 38.5 5s21.834 9 30.501 17c9.33301 9.33301 16.5 20.833 21.5 34.5s8.16699 31.5 9.5 53.5l-265 373c-4 6 -10.167 15 -18.5 27
s-17 24.667 -26 38s-17.333 26 -25 38s-13.5 21 -17.5 27h-3c0 -6.66699 0.166992 -16.334 0.5 -29.001s0.666016 -26 0.999023 -40s0.5 -27.5 0.5 -40.5v-30.5v-363h-94v650h100l263 -373c4.66699 -6 11 -15 19 -27s16.167 -24.5 24.5 -37.5s16.333 -25.333 24 -37
s13.167 -20.5 16.5 -26.5h3c0 7.33301 -0.166992 17.166 -0.5 29.499s-0.666016 25.5 -0.999023 39.5s-0.5 27.333 -0.5 40v30v362h94v-650c-1.33301 -32 -5.83301 -60.167 -13.5 -84.5s-20.167 -45.5 -37.5 -63.5c-15.333 -16 -34.5 -27.833 -57.5 -35.5
s-47.833 -11.5 -74.5 -11.5z" />
    <glyph glyph-name="eng" unicode="&#x14b;" horiz-adv-x="568" 
d="M314 -180l-0.00195312 12.9971c18 12.667 33.167 28.167 45.5 46.5s22.333 37.333 30 57s13 39.667 16 60s4.5 38.833 4.5 55.5v251c0 25.333 -2.33301 46 -7 62s-12.334 29.333 -23.001 40c-20 20 -48 30 -84 30c-40.667 0 -73.667 -13 -99 -39
c-9.33301 -10.667 -16.333 -24.167 -21 -40.5s-7 -37.166 -7 -62.499v-293h-91v500h68l18 -59h2c18.667 25.333 40.834 44 66.501 56s52.5 18 80.5 18c58.667 0 105.334 -17.333 140.001 -52c15.333 -15.333 27 -35.666 35 -60.999s12 -53 12 -83v-274
c0 -46 -8.66699 -89.167 -26 -129.5s-41.666 -72.166 -72.999 -95.499h-87z" />
    <glyph glyph-name="Omacron" unicode="&#x14c;" horiz-adv-x="741" 
d="M689 313c0 -48.667 -8.16992 -93.167 -24.5029 -133.5s-38.833 -74.833 -67.5 -103.5s-62.334 -51 -101.001 -67s-80.334 -24 -125.001 -24s-86.5 8 -125.5 24s-72.833 38.333 -101.5 67s-51.167 63.167 -67.5 103.5s-24.5 84.833 -24.5 133.5v24
c0 48.667 8.33301 93.167 25 133.5s39.334 74.833 68.001 103.5s62.334 51 101.001 67s80.334 24 125.001 24c44 0 85.333 -8 124 -24s72.334 -38.333 101.001 -67s51.334 -63.167 68.001 -103.5s25 -84.833 25 -133.5v-24zM370.997 71c36 0 67.834 6.66699 95.501 20
s51 31.5 70 54.5s33.333 50 43 81s14.5 63.833 14.5 98.5s-4.83301 67.5 -14.5 98.5s-23.834 58 -42.501 81s-42 41.167 -70 54.5s-60.333 20 -97 20s-69 -6.66699 -97 -20s-51.333 -31.5 -70 -54.5s-32.667 -50 -42 -81s-14 -63.833 -14 -98.5s5 -67.5 15 -98.5
s24.5 -58 43.5 -81s42.333 -41.167 70 -54.5s59.5 -20 95.5 -20zM221.998 784h296v-77h-296v77z" />
    <glyph glyph-name="omacron" unicode="&#x14d;" horiz-adv-x="603" 
d="M52 258c0 41.333 6.66309 78 19.9961 110s31.333 58.833 54 80.5s49 38.167 79 49.5s62 17 96 17s66.167 -5.66699 96.5 -17s56.833 -27.833 79.5 -49.5s40.5 -48.5 53.5 -80.5s19.5 -68.667 19.5 -110v-17c0 -40.667 -6.66699 -77 -20 -109s-31.166 -59 -53.499 -81
s-48.666 -38.667 -78.999 -50s-62.5 -17 -96.5 -17s-66.167 5.66699 -96.5 17s-56.666 28 -78.999 50s-40.166 49 -53.499 81s-20 68.333 -20 109v17zM143.996 250c0 -26 3.16699 -50.5 9.5 -73.5s16 -43 29 -60s29.333 -30.333 49 -40s42.834 -14.5 69.501 -14.5
s49.834 4.83301 69.501 14.5s36 23 49 40s22.667 37 29 60s9.5 47.5 9.5 73.5c0 26.667 -3.16699 51.334 -9.5 74.001s-16 42.5 -29 59.5s-29.333 30.333 -49 40s-42.834 14.5 -69.501 14.5s-49.834 -4.83301 -69.501 -14.5s-36 -23 -49 -40s-22.667 -36.833 -29 -59.5
s-9.5 -47.334 -9.5 -74.001zM152.996 657h296v-77h-296v77z" />
    <glyph glyph-name="Obreve" unicode="&#x14e;" horiz-adv-x="741" 
d="M293 821c4.66699 -21.333 13.665 -36.666 26.998 -45.999s30 -14 50 -14s36.667 4.66699 50 14s22.333 24.666 27 45.999h92c-2.66699 -20 -9 -37.833 -19 -53.5s-22.5 -28.834 -37.5 -39.501s-32.167 -18.834 -51.5 -24.501s-39.666 -8.5 -60.999 -8.5
s-41.666 2.83301 -60.999 8.5s-36.5 13.834 -51.5 24.501s-27.5 23.834 -37.5 39.501s-16.333 33.5 -19 53.5h92zM688.998 313c0 -48.667 -8.16992 -93.167 -24.5029 -133.5s-38.833 -74.833 -67.5 -103.5s-62.334 -51 -101.001 -67s-80.334 -24 -125.001 -24
s-86.5 8 -125.5 24s-72.833 38.333 -101.5 67s-51.167 63.167 -67.5 103.5s-24.5 84.833 -24.5 133.5v24c0 48.667 8.33301 93.167 25 133.5s39.334 74.833 68.001 103.5s62.334 51 101.001 67s80.334 24 125.001 24c44 0 85.333 -8 124 -24s72.334 -38.333 101.001 -67
s51.334 -63.167 68.001 -103.5s25 -84.833 25 -133.5v-24zM370.995 71c36 0 67.834 6.66699 95.501 20s51 31.5 70 54.5s33.333 50 43 81s14.5 63.833 14.5 98.5s-4.83301 67.5 -14.5 98.5s-23.834 58 -42.501 81s-42 41.167 -70 54.5s-60.333 20 -97 20
s-69 -6.66699 -97 -20s-51.333 -31.5 -70 -54.5s-32.667 -50 -42 -81s-14 -63.833 -14 -98.5s5 -67.5 15 -98.5s24.5 -58 43.5 -81s42.333 -41.167 70 -54.5s59.5 -20 95.5 -20z" />
    <glyph glyph-name="obreve" unicode="&#x14f;" horiz-adv-x="603" 
d="M224 683c4.66699 -21.333 13.665 -36.666 26.998 -45.999s30 -14 50 -14s36.667 4.66699 50 14s22.333 24.666 27 45.999h92c-2.66699 -20 -9 -37.833 -19 -53.5s-22.5 -28.834 -37.5 -39.501s-32.167 -18.834 -51.5 -24.501s-39.666 -8.5 -60.999 -8.5
s-41.666 2.83301 -60.999 8.5s-36.5 13.834 -51.5 24.501s-27.5 23.834 -37.5 39.501s-16.333 33.5 -19 53.5h92zM51.998 258c0 41.333 6.66309 78 19.9961 110s31.333 58.833 54 80.5s49 38.167 79 49.5s62 17 96 17s66.167 -5.66699 96.5 -17s56.833 -27.833 79.5 -49.5
s40.5 -48.5 53.5 -80.5s19.5 -68.667 19.5 -110v-17c0 -40.667 -6.66699 -77 -20 -109s-31.166 -59 -53.499 -81s-48.666 -38.667 -78.999 -50s-62.5 -17 -96.5 -17s-66.167 5.66699 -96.5 17s-56.666 28 -78.999 50s-40.166 49 -53.499 81s-20 68.333 -20 109v17z
M143.994 250c0 -26 3.16699 -50.5 9.5 -73.5s16 -43 29 -60s29.333 -30.333 49 -40s42.834 -14.5 69.501 -14.5s49.834 4.83301 69.501 14.5s36 23 49 40s22.667 37 29 60s9.5 47.5 9.5 73.5c0 26.667 -3.16699 51.334 -9.5 74.001s-16 42.5 -29 59.5s-29.333 30.333 -49 40
s-42.834 14.5 -69.501 14.5s-49.834 -4.83301 -69.501 -14.5s-36 -23 -49 -40s-22.667 -36.833 -29 -59.5s-9.5 -47.334 -9.5 -74.001z" />
    <glyph glyph-name="Ohungarumlaut" unicode="&#x150;" horiz-adv-x="741" 
d="M689 313c0 -48.667 -8.16992 -93.167 -24.5029 -133.5s-38.833 -74.833 -67.5 -103.5s-62.334 -51 -101.001 -67s-80.334 -24 -125.001 -24s-86.5 8 -125.5 24s-72.833 38.333 -101.5 67s-51.167 63.167 -67.5 103.5s-24.5 84.833 -24.5 133.5v24
c0 48.667 8.33301 93.167 25 133.5s39.334 74.833 68.001 103.5s62.334 51 101.001 67s80.334 24 125.001 24c44 0 85.333 -8 124 -24s72.334 -38.333 101.001 -67s51.334 -63.167 68.001 -103.5s25 -84.833 25 -133.5v-24zM370.997 71c36 0 67.834 6.66699 95.501 20
s51 31.5 70 54.5s33.333 50 43 81s14.5 63.833 14.5 98.5s-4.83301 67.5 -14.5 98.5s-23.834 58 -42.501 81s-42 41.167 -70 54.5s-60.333 20 -97 20s-69 -6.66699 -97 -20s-51.333 -31.5 -70 -54.5s-32.667 -50 -42 -81s-14 -63.833 -14 -98.5s5 -67.5 15 -98.5
s24.5 -58 43.5 -81s42.333 -41.167 70 -54.5s59.5 -20 95.5 -20zM232.998 741l144 147l61 -70l-167 -123zM422.998 741l144 147l61 -70l-167 -123z" />
    <glyph glyph-name="ohungarumlaut" unicode="&#x151;" horiz-adv-x="603" 
d="M52 258c0 41.333 6.66309 78 19.9961 110s31.333 58.833 54 80.5s49 38.167 79 49.5s62 17 96 17s66.167 -5.66699 96.5 -17s56.833 -27.833 79.5 -49.5s40.5 -48.5 53.5 -80.5s19.5 -68.667 19.5 -110v-17c0 -40.667 -6.66699 -77 -20 -109s-31.166 -59 -53.499 -81
s-48.666 -38.667 -78.999 -50s-62.5 -17 -96.5 -17s-66.167 5.66699 -96.5 17s-56.666 28 -78.999 50s-40.166 49 -53.499 81s-20 68.333 -20 109v17zM143.996 250c0 -26 3.16699 -50.5 9.5 -73.5s16 -43 29 -60s29.333 -30.333 49 -40s42.834 -14.5 69.501 -14.5
s49.834 4.83301 69.501 14.5s36 23 49 40s22.667 37 29 60s9.5 47.5 9.5 73.5c0 26.667 -3.16699 51.334 -9.5 74.001s-16 42.5 -29 59.5s-29.333 30.333 -49 40s-42.834 14.5 -69.501 14.5s-49.834 -4.83301 -69.501 -14.5s-36 -23 -49 -40s-22.667 -36.833 -29 -59.5
s-9.5 -47.334 -9.5 -74.001zM143.996 590l144 147l61 -70l-167 -123zM333.996 590l144 147l61 -70l-167 -123z" />
    <glyph glyph-name="OE" unicode="&#x152;" horiz-adv-x="1060" 
d="M371 71c36 0 67.834 6.66699 95.501 20s51 31.5 70 54.5s33.333 50 43 81s14.5 63.833 14.5 98.5s-4.83301 67.5 -14.5 98.5s-23.834 58 -42.501 81s-42 41.167 -70 54.5s-60.333 20 -97 20s-69 -6.66699 -97 -20s-51.333 -31.5 -70 -54.5s-32.667 -50 -42 -81
s-14 -63.833 -14 -98.5s5 -67.5 15 -98.5s24.5 -58 43.5 -81s42.333 -41.167 70 -54.5s59.5 -20 95.5 -20zM594.001 84c-26 -32 -58.0049 -56.5 -96.0049 -73.5s-80.333 -25.5 -127 -25.5c-44.667 0 -86.5 8 -125.5 24s-72.833 38.333 -101.5 67s-51.167 63.167 -67.5 103.5
s-24.5 84.833 -24.5 133.5v24c0 48.667 8.33301 93.167 25 133.5s39.334 74.833 68.001 103.5s62.334 51 101.001 67s80.334 24 125.001 24c46.667 0 88.834 -8.66699 126.501 -26s69.834 -42 96.501 -74v85h400v-84h-306v-193h263v-84h-263v-205h306v-84h-400v84z" />
    <glyph glyph-name="oe" unicode="&#x153;" horiz-adv-x="925" 
d="M658 -16c-40.667 0 -76.5 8.99902 -107.5 26.999s-56.167 43.333 -75.5 76c-21.333 -34 -48.333 -59.667 -81 -77s-68.667 -26 -108 -26c-32 0 -62.167 5.66699 -90.5 17s-53.166 28 -74.499 50s-38.166 49 -50.499 81s-18.5 68.333 -18.5 109v17
c0 41.333 6.16699 78 18.5 110s29.166 58.833 50.499 80.5s46 38.167 74 49.5s58 17 90 17c40 0 76.333 -8.5 109 -25.5s59.334 -42.5 80.001 -76.5c18.667 32 43.334 57 74.001 75s66.334 27 107.001 27c35.333 0 66.666 -6.66699 93.999 -20
s50.166 -31.666 68.499 -54.999s32.166 -50.5 41.499 -81.5s14 -64.167 14 -99.5v-18.5c0 -5 -0.333008 -11.167 -1 -18.5h-351c3.33301 -46 16.666 -84.167 39.999 -114.5s56.333 -45.5 99 -45.5c58 0 96.333 26 115 78h90c-11.333 -50 -35.5 -88.5 -72.5 -115.5
s-81.833 -40.5 -134.5 -40.5zM286 61.999c24 0 44.833 4.83301 62.5 14.5s32.5 23 44.5 40s20.833 37 26.5 60s8.5 47.5 8.5 73.5c0 26.667 -2.83301 51.334 -8.5 74.001s-14.5 42.5 -26.5 59.5s-26.833 30.333 -44.5 40s-38.5 14.5 -62.5 14.5
s-44.833 -4.83301 -62.5 -14.5s-32.5 -23 -44.5 -40s-20.833 -36.833 -26.5 -59.5s-8.5 -47.334 -8.5 -74.001c0 -26 2.83301 -50.5 8.5 -73.5s14.5 -43 26.5 -60s26.833 -30.333 44.5 -40s38.5 -14.5 62.5 -14.5zM780 296.999
c-0.666992 17.333 -3.50098 34.5 -8.50098 51.5s-12.5 32 -22.5 45s-22.5 23.5 -37.5 31.5s-32.833 12 -53.5 12c-41.333 0 -72.666 -12.833 -93.999 -38.5s-35 -59.5 -41 -101.5h257z" />
    <glyph glyph-name="Racute" unicode="&#x154;" horiz-adv-x="608" 
d="M330 332c20.667 0 38.667 3.16699 54 9.5s28 14.833 38 25.5s17.5 23 22.5 37s7.5 28.667 7.5 44c0 32.667 -8.83301 60.5 -26.5 83.5s-47.167 34.5 -88.5 34.5h-155v-234h148zM88 0l0.000976562 650.001h250c29.333 0 56.666 -4.16699 81.999 -12.5
s47.333 -20.5 66 -36.5s33.5 -35.833 44.5 -59.5s16.5 -51.167 16.5 -82.5v-17c0 -26 -4.16699 -49.333 -12.5 -70s-19.833 -38.834 -34.5 -54.501s-32 -28.5 -52 -38.5s-41.667 -17.333 -65 -22l187 -242v-15h-108l-189 246h-91v-246h-94zM154.001 747.001l218 142l46 -81
l-235 -113z" />
    <glyph glyph-name="racute" unicode="&#x155;" horiz-adv-x="368" 
d="M169 0h-91v500h61l23 -88h2c10 30 29 52.833 57 68.5s58 23.5 90 23.5c3.33301 0 8.5 -0.166992 15.5 -0.5s12.167 -0.833008 15.5 -1.5v-90h-28c-33.333 0 -59.666 -4.83301 -78.999 -14.5s-33.833 -22.5 -43.5 -38.5s-15.834 -34.5 -18.501 -55.5s-4 -42.833 -4 -65.5
v-238zM78 595l218 142l46 -81l-235 -113z" />
    <glyph glyph-name="uni0156" unicode="&#x156;" horiz-adv-x="608" 
d="M330 332c20.667 0 38.667 3.16699 54 9.5s28 14.833 38 25.5s17.5 23 22.5 37s7.5 28.667 7.5 44c0 32.667 -8.83301 60.5 -26.5 83.5s-47.167 34.5 -88.5 34.5h-155v-234h148zM88 0l0.000976562 650.001h250c29.333 0 56.666 -4.16699 81.999 -12.5
s47.333 -20.5 66 -36.5s33.5 -35.833 44.5 -59.5s16.5 -51.167 16.5 -82.5v-17c0 -26 -4.16699 -49.333 -12.5 -70s-19.833 -38.834 -34.5 -54.501s-32 -28.5 -52 -38.5s-41.667 -17.333 -65 -22l187 -242v-15h-108l-189 246h-91v-246h-94zM259.001 -69.999h97v-12l-75 -147
h-65z" />
    <glyph glyph-name="uni0157" unicode="&#x157;" horiz-adv-x="368" 
d="M169 0h-91v500h61l23 -88h2c10 30 29 52.833 57 68.5s58 23.5 90 23.5c3.33301 0 8.5 -0.166992 15.5 -0.5s12.167 -0.833008 15.5 -1.5v-90h-28c-33.333 0 -59.666 -4.83301 -78.999 -14.5s-33.833 -22.5 -43.5 -38.5s-15.834 -34.5 -18.501 -55.5s-4 -42.833 -4 -65.5
v-238zM78 -70h97v-12l-75 -147h-65z" />
    <glyph glyph-name="Rcaron" unicode="&#x158;" horiz-adv-x="608" 
d="M330 332c20.667 0 38.667 3.16699 54 9.5s28 14.833 38 25.5s17.5 23 22.5 37s7.5 28.667 7.5 44c0 32.667 -8.83301 60.5 -26.5 83.5s-47.167 34.5 -88.5 34.5h-155v-234h148zM88 0l0.000976562 650.001h250c29.333 0 56.666 -4.16699 81.999 -12.5
s47.333 -20.5 66 -36.5s33.5 -35.833 44.5 -59.5s16.5 -51.167 16.5 -82.5v-17c0 -26 -4.16699 -49.333 -12.5 -70s-19.833 -38.834 -34.5 -54.501s-32 -28.5 -52 -38.5s-41.667 -17.333 -65 -22l187 -242v-15h-108l-189 246h-91v-246h-94zM446.001 816.001l-158 -115
l-163 115l35 54l128 -76l123 76z" />
    <glyph glyph-name="rcaron" unicode="&#x159;" horiz-adv-x="368" 
d="M169 0h-91v500h61l23 -88h2c10 30 29 52.833 57 68.5s58 23.5 90 23.5c3.33301 0 8.5 -0.166992 15.5 -0.5s12.167 -0.833008 15.5 -1.5v-90h-28c-33.333 0 -59.666 -4.83301 -78.999 -14.5s-33.833 -22.5 -43.5 -38.5s-15.834 -34.5 -18.501 -55.5s-4 -42.833 -4 -65.5
v-238zM371 666l-158 -115l-163 115l35 54l128 -76l123 76z" />
    <glyph glyph-name="Sacute" unicode="&#x15a;" horiz-adv-x="569" 
d="M62 486c0 28 6.16406 52.9951 18.4971 74.9951s28.5 40.5 48.5 55.5s42.833 26.333 68.5 34s51.834 11.5 78.501 11.5c30 0 58.167 -3.83301 84.5 -11.5s49.166 -19 68.499 -34s34.833 -33.667 46.5 -56s17.834 -48.166 18.501 -77.499v-8h-88
c-1.33301 14 -4.66602 27.5 -9.99902 40.5s-13.166 24.5 -23.499 34.5s-23.166 18 -38.499 24s-33.333 9 -54 9c-42 0 -72.667 -9.5 -92 -28.5s-29 -41.167 -29 -66.5c0 -14.667 2 -27 6 -37s10.667 -19.667 20 -29c11.333 -11.333 29 -20.333 53 -27s50 -13.5 78 -20.5
s55.833 -15.5 83.5 -25.5s50.834 -24.667 69.501 -44c15.333 -15.333 27.166 -33.666 35.499 -54.999s12.5 -42.666 12.5 -63.999v-10c0 -35.333 -7 -65.166 -21 -89.499s-31.833 -44.166 -53.5 -59.499s-45.834 -26.333 -72.501 -33s-52.667 -10 -78 -10
c-32 0 -62.167 4.5 -90.5 13.5s-53 22.167 -74 39.5s-37.833 38.5 -50.5 63.5s-19.334 53.5 -20.001 85.5v8h96c1.33301 -40 14.333 -71.333 39 -94s59 -34 103 -34c38 0 68.5 9 91.5 27s34.5 43.667 34.5 77c0 31.333 -9 56 -27 74
c-14.667 15.333 -34.667 26.666 -60 33.999s-51.833 14.333 -79.5 21s-54.667 14.334 -81 23.001s-48.166 21.667 -65.499 39c-15.333 15.333 -26.833 32 -34.5 50s-11.5 39.667 -11.5 65v10zM154.997 746.995l218 142l46 -81l-235 -113z" />
    <glyph glyph-name="sacute" unicode="&#x15b;" horiz-adv-x="493" 
d="M254 -15c-60.667 0 -109.168 13.6699 -145.501 41.0029s-55.5 68.666 -57.5 123.999v8h87c0 -66.667 38.333 -100 115 -100c34 0 59.333 6.5 76 19.5s25 31.167 25 54.5c0 19.333 -6.33301 35.333 -19 48c-12 12 -28.167 20.833 -48.5 26.5s-42 11 -65 16
s-45.833 11.5 -68.5 19.5s-42 20 -58 36c-9.33301 9.33301 -17.666 21.833 -24.999 37.5s-11 32.167 -11 49.5v7c0 25.333 5.16699 47 15.5 65s24 32.833 41 44.5s36.5 20.167 58.5 25.5s44.333 8 67 8c24.667 0 48 -2.83301 70 -8.5s41.333 -14.334 58 -26.001
s30 -26.167 40 -43.5s15 -38 15 -62v-8h-87c-1.33301 29.333 -10.833 49.5 -28.5 60.5s-41.167 16.5 -70.5 16.5c-28.667 0 -50.667 -5.83301 -66 -17.5s-23 -26.834 -23 -45.501c0 -17.333 6 -32 18 -44c11.333 -11.333 27.166 -19.666 47.499 -24.999s42 -10.5 65 -15.5
s45.833 -11.5 68.5 -19.5s42.334 -20.333 59.001 -37c11.333 -11.333 20.166 -24.833 26.499 -40.5s9.5 -35.167 9.5 -58.5c0 -28.667 -5.5 -52.834 -16.5 -72.501s-25.5 -35.667 -43.5 -48s-38.167 -21.333 -60.5 -27s-45.166 -8.5 -68.499 -8.5zM114.999 595.003l218 142
l46 -81l-235 -113z" />
    <glyph glyph-name="Scircumflex" unicode="&#x15c;" horiz-adv-x="569" 
d="M62 486c0 28 6.16406 52.9951 18.4971 74.9951s28.5 40.5 48.5 55.5s42.833 26.333 68.5 34s51.834 11.5 78.501 11.5c30 0 58.167 -3.83301 84.5 -11.5s49.166 -19 68.499 -34s34.833 -33.667 46.5 -56s17.834 -48.166 18.501 -77.499v-8h-88
c-1.33301 14 -4.66602 27.5 -9.99902 40.5s-13.166 24.5 -23.499 34.5s-23.166 18 -38.499 24s-33.333 9 -54 9c-42 0 -72.667 -9.5 -92 -28.5s-29 -41.167 -29 -66.5c0 -14.667 2 -27 6 -37s10.667 -19.667 20 -29c11.333 -11.333 29 -20.333 53 -27s50 -13.5 78 -20.5
s55.833 -15.5 83.5 -25.5s50.834 -24.667 69.501 -44c15.333 -15.333 27.166 -33.666 35.499 -54.999s12.5 -42.666 12.5 -63.999v-10c0 -35.333 -7 -65.166 -21 -89.499s-31.833 -44.166 -53.5 -59.499s-45.834 -26.333 -72.501 -33s-52.667 -10 -78 -10
c-32 0 -62.167 4.5 -90.5 13.5s-53 22.167 -74 39.5s-37.833 38.5 -50.5 63.5s-19.334 53.5 -20.001 85.5v8h96c1.33301 -40 14.333 -71.333 39 -94s59 -34 103 -34c38 0 68.5 9 91.5 27s34.5 43.667 34.5 77c0 31.333 -9 56 -27 74
c-14.667 15.333 -34.667 26.666 -60 33.999s-51.833 14.333 -79.5 21s-54.667 14.334 -81 23.001s-48.166 21.667 -65.499 39c-15.333 15.333 -26.833 32 -34.5 50s-11.5 39.667 -11.5 65v10zM127.997 754.995l158 115l163 -115l-35 -54l-128 76l-123 -76z" />
    <glyph glyph-name="scircumflex" unicode="&#x15d;" horiz-adv-x="493" 
d="M254 -15c-60.667 0 -109.168 13.6699 -145.501 41.0029s-55.5 68.666 -57.5 123.999v8h87c0 -66.667 38.333 -100 115 -100c34 0 59.333 6.5 76 19.5s25 31.167 25 54.5c0 19.333 -6.33301 35.333 -19 48c-12 12 -28.167 20.833 -48.5 26.5s-42 11 -65 16
s-45.833 11.5 -68.5 19.5s-42 20 -58 36c-9.33301 9.33301 -17.666 21.833 -24.999 37.5s-11 32.167 -11 49.5v7c0 25.333 5.16699 47 15.5 65s24 32.833 41 44.5s36.5 20.167 58.5 25.5s44.333 8 67 8c24.667 0 48 -2.83301 70 -8.5s41.333 -14.334 58 -26.001
s30 -26.167 40 -43.5s15 -38 15 -62v-8h-87c-1.33301 29.333 -10.833 49.5 -28.5 60.5s-41.167 16.5 -70.5 16.5c-28.667 0 -50.667 -5.83301 -66 -17.5s-23 -26.834 -23 -45.501c0 -17.333 6 -32 18 -44c11.333 -11.333 27.166 -19.666 47.499 -24.999s42 -10.5 65 -15.5
s45.833 -11.5 68.5 -19.5s42.334 -20.333 59.001 -37c11.333 -11.333 20.166 -24.833 26.499 -40.5s9.5 -35.167 9.5 -58.5c0 -28.667 -5.5 -52.834 -16.5 -72.501s-25.5 -35.667 -43.5 -48s-38.167 -21.333 -60.5 -27s-45.166 -8.5 -68.499 -8.5zM87.999 605.003l158 115
l163 -115l-35 -54l-128 76l-123 -76z" />
    <glyph glyph-name="uni015E" unicode="&#x15e;" horiz-adv-x="569" 
d="M247 -185c-30.667 0 -56.6689 4.00195 -78.002 12.002v57h10c12 -4.66699 23.667 -7.83398 35 -9.50098s20.666 -2.5 27.999 -2.5c17.333 0 30 2.83301 38 8.5s12 12.167 12 19.5c0 19.333 -15 29.666 -45 30.999l-4 7l20 47
c-28.667 2.66699 -55.334 9.16699 -80.001 19.5s-46.334 24 -65.001 41s-33.334 37.333 -44.001 61s-16.334 50.167 -17.001 79.5v8h96c1.33301 -40 14.333 -71.333 39 -94s59 -34 103 -34c38 0 68.5 9 91.5 27s34.5 43.667 34.5 77c0 31.333 -9 56 -27 74
c-14.667 15.333 -34.667 26.666 -60 33.999s-51.833 14.333 -79.5 21s-54.667 14.334 -81 23.001s-48.166 21.667 -65.499 39c-15.333 15.333 -26.833 32 -34.5 50s-11.5 39.667 -11.5 65v10c0 28 6.16699 53 18.5 75s28.5 40.5 48.5 55.5s42.833 26.333 68.5 34
s51.834 11.5 78.501 11.5c30 0 58.167 -3.83301 84.5 -11.5s49.166 -19 68.499 -34s34.833 -33.667 46.5 -56s17.834 -48.166 18.501 -77.499v-8h-88c-1.33301 14 -4.66602 27.5 -9.99902 40.5s-13.166 24.5 -23.499 34.5s-23.166 18 -38.499 24s-33.333 9 -54 9
c-42 0 -72.667 -9.5 -92 -28.5s-29 -41.167 -29 -66.5c0 -14.667 2 -27 6 -37s10.667 -19.667 20 -29c11.333 -11.333 29 -20.333 53 -27s50 -13.5 78 -20.5s55.833 -15.5 83.5 -25.5s50.834 -24.667 69.501 -44c15.333 -15.333 27.166 -33.666 35.499 -54.999
s12.5 -42.666 12.5 -63.999v-10c0 -30.667 -5.5 -57.334 -16.5 -80.001s-25.333 -41.667 -43 -57s-37.667 -27.333 -60 -36s-45.166 -14.334 -68.499 -17.001l-11 -30c14.667 -4.66699 26.334 -11.834 35.001 -21.501s13 -21.5 13 -35.5s-3.5 -26.333 -10.5 -37
s-16 -19.5 -27 -26.5s-23.667 -12.167 -38 -15.5s-28.833 -5 -43.5 -5z" />
    <glyph glyph-name="uni015F" unicode="&#x15f;" horiz-adv-x="493" 
d="M200 -185c-30.667 0 -56.667 4.00391 -78 12.0039v57h10c12 -4.66699 23.667 -7.83398 35 -9.50098s20.666 -2.5 27.999 -2.5c17.333 0 30 2.83301 38 8.5s12 12.167 12 19.5c0 19.333 -15 29.666 -45 30.999l-4 7l21 49c-50 5.33301 -89.667 21.5 -119 48.5
s-45 65.167 -47 114.5v8h87c0 -66.667 38.333 -100 115 -100c34 0 59.333 6.5 76 19.5s25 31.167 25 54.5c0 19.333 -6.33301 35.333 -19 48c-12 12 -28.167 20.833 -48.5 26.5s-42 11 -65 16s-45.833 11.5 -68.5 19.5s-42 20 -58 36
c-9.33301 9.33301 -17.666 21.833 -24.999 37.5s-11 32.167 -11 49.5v7c0 25.333 5.16699 47 15.5 65s24 32.833 41 44.5s36.5 20.167 58.5 25.5s44.333 8 67 8c24.667 0 48 -2.83301 70 -8.5s41.333 -14.334 58 -26.001s30 -26.167 40 -43.5s15 -38 15 -62v-8h-87
c-1.33301 29.333 -10.833 49.5 -28.5 60.5s-41.167 16.5 -70.5 16.5c-28.667 0 -50.667 -5.83301 -66 -17.5s-23 -26.834 -23 -45.501c0 -17.333 6 -32 18 -44c11.333 -11.333 27.166 -19.666 47.499 -24.999s42 -10.5 65 -15.5s45.833 -11.5 68.5 -19.5
s42.334 -20.333 59.001 -37c11.333 -11.333 20.166 -24.833 26.499 -40.5s9.5 -35.167 9.5 -58.5c-0.666992 -25.333 -5.5 -47.333 -14.5 -66s-21 -34.167 -36 -46.5s-32 -22 -51 -29s-38.833 -11.5 -59.5 -13.5l-11 -30c14.667 -4.66699 26.334 -11.834 35.001 -21.501
s13 -21.5 13 -35.5s-3.5 -26.333 -10.5 -37s-16 -19.5 -27 -26.5s-23.667 -12.167 -38 -15.5s-28.833 -5 -43.5 -5z" />
    <glyph glyph-name="Scaron" unicode="&#x160;" horiz-adv-x="569" 
d="M62 486c0 28 6.16406 52.9951 18.4971 74.9951s28.5 40.5 48.5 55.5s42.833 26.333 68.5 34s51.834 11.5 78.501 11.5c30 0 58.167 -3.83301 84.5 -11.5s49.166 -19 68.499 -34s34.833 -33.667 46.5 -56s17.834 -48.166 18.501 -77.499v-8h-88
c-1.33301 14 -4.66602 27.5 -9.99902 40.5s-13.166 24.5 -23.499 34.5s-23.166 18 -38.499 24s-33.333 9 -54 9c-42 0 -72.667 -9.5 -92 -28.5s-29 -41.167 -29 -66.5c0 -14.667 2 -27 6 -37s10.667 -19.667 20 -29c11.333 -11.333 29 -20.333 53 -27s50 -13.5 78 -20.5
s55.833 -15.5 83.5 -25.5s50.834 -24.667 69.501 -44c15.333 -15.333 27.166 -33.666 35.499 -54.999s12.5 -42.666 12.5 -63.999v-10c0 -35.333 -7 -65.166 -21 -89.499s-31.833 -44.166 -53.5 -59.499s-45.834 -26.333 -72.501 -33s-52.667 -10 -78 -10
c-32 0 -62.167 4.5 -90.5 13.5s-53 22.167 -74 39.5s-37.833 38.5 -50.5 63.5s-19.334 53.5 -20.001 85.5v8h96c1.33301 -40 14.333 -71.333 39 -94s59 -34 103 -34c38 0 68.5 9 91.5 27s34.5 43.667 34.5 77c0 31.333 -9 56 -27 74
c-14.667 15.333 -34.667 26.666 -60 33.999s-51.833 14.333 -79.5 21s-54.667 14.334 -81 23.001s-48.166 21.667 -65.499 39c-15.333 15.333 -26.833 32 -34.5 50s-11.5 39.667 -11.5 65v10zM446.997 815.995l-158 -115l-163 115l35 54l128 -76l123 76z" />
    <glyph glyph-name="scaron" unicode="&#x161;" horiz-adv-x="493" 
d="M254 -15c-60.667 0 -109.168 13.6699 -145.501 41.0029s-55.5 68.666 -57.5 123.999v8h87c0 -66.667 38.333 -100 115 -100c34 0 59.333 6.5 76 19.5s25 31.167 25 54.5c0 19.333 -6.33301 35.333 -19 48c-12 12 -28.167 20.833 -48.5 26.5s-42 11 -65 16
s-45.833 11.5 -68.5 19.5s-42 20 -58 36c-9.33301 9.33301 -17.666 21.833 -24.999 37.5s-11 32.167 -11 49.5v7c0 25.333 5.16699 47 15.5 65s24 32.833 41 44.5s36.5 20.167 58.5 25.5s44.333 8 67 8c24.667 0 48 -2.83301 70 -8.5s41.333 -14.334 58 -26.001
s30 -26.167 40 -43.5s15 -38 15 -62v-8h-87c-1.33301 29.333 -10.833 49.5 -28.5 60.5s-41.167 16.5 -70.5 16.5c-28.667 0 -50.667 -5.83301 -66 -17.5s-23 -26.834 -23 -45.501c0 -17.333 6 -32 18 -44c11.333 -11.333 27.166 -19.666 47.499 -24.999s42 -10.5 65 -15.5
s45.833 -11.5 68.5 -19.5s42.334 -20.333 59.001 -37c11.333 -11.333 20.166 -24.833 26.499 -40.5s9.5 -35.167 9.5 -58.5c0 -28.667 -5.5 -52.834 -16.5 -72.501s-25.5 -35.667 -43.5 -48s-38.167 -21.333 -60.5 -27s-45.166 -8.5 -68.499 -8.5zM406.999 666.003
l-158 -115l-163 115l35 54l128 -76l123 76z" />
    <glyph glyph-name="uni0162" unicode="&#x162;" horiz-adv-x="566" 
d="M240 0v566.003h-197v84h480v-84h-188v-566h-15l-16 -44c14.667 -4.66699 26.334 -11.834 35.001 -21.501s13 -21.5 13 -35.5s-3.5 -26.333 -10.5 -37s-16 -19.5 -27 -26.5s-23.667 -12.167 -38 -15.5s-28.833 -5 -43.5 -5c-30.667 0 -56.667 4 -78 12v57h10
c12 -4.66699 23.667 -7.83398 35 -9.50098s20.666 -2.5 27.999 -2.5c17.333 0 30 2.83301 38 8.5s12 12.167 12 19.5c0 19.333 -15 29.666 -45 30.999l-4 7l26 62h-15z" />
    <glyph glyph-name="uni0163" unicode="&#x163;" horiz-adv-x="391" 
d="M192 -185c-30.667 0 -56.665 4 -77.998 12v57h10c12 -4.66699 23.667 -7.83398 35 -9.50098s20.666 -2.5 27.999 -2.5c17.333 0 30 2.83301 38 8.5s12 12.167 12 19.5c0 19.333 -15 29.666 -45 30.999l-4 7l24 58c-36.667 8 -63.334 24.667 -80.001 50s-25 57.333 -25 96
v284h-72v44c19.333 6.66699 35.666 15.334 48.999 26.001s24.5 22.334 33.5 35.001s16.333 26.167 22 40.5s10.167 28.166 13.5 41.499h46v-113h139v-74h-139v-281c0 -30 7 -50.167 21 -60.5s30.333 -15.5 49 -15.5c27.333 0 51.333 7.66699 72 23h16v-77
c-10 -5.33301 -22.5 -10.166 -37.5 -14.499s-29.5 -7.16602 -43.5 -8.49902l-13 -36c14.667 -4.66699 26.334 -11.834 35.001 -21.501s13 -21.5 13 -35.5s-3.5 -26.333 -10.5 -37s-16 -19.5 -27 -26.5s-23.667 -12.167 -38 -15.5s-28.833 -5 -43.5 -5z" />
    <glyph glyph-name="Tcaron" unicode="&#x164;" horiz-adv-x="566" 
d="M43 650h480v-84h-188v-566h-95v566h-197v84zM448 816l-158 -115l-163 115l35 54l128 -76l123 76z" />
    <glyph glyph-name="tcaron" unicode="&#x165;" horiz-adv-x="427" 
d="M338 500v-74h-139v-281c0 -30 7 -50.167 21 -60.5s30.333 -15.5 49 -15.5c27.333 0 51.333 7.66699 72 23h16v-77c-12 -6.66699 -27.167 -12.334 -45.5 -17.001s-35.166 -7 -50.499 -7c-54 0 -93.167 13.667 -117.5 41s-36.5 64 -36.5 110v284h-72v44
c19.333 6.66699 35.666 15.334 48.999 26.001s24.5 22.334 33.5 35.001s16.333 26.167 22 40.5s10.167 28.166 13.5 41.499h46v-113h139zM422 690h97v-12l-75 -194h-65z" />
    <glyph glyph-name="Tbar" unicode="&#x166;" horiz-adv-x="566" 
d="M335 292v-292h-95v292h-149v78h149v196h-197v84h480v-84h-188v-196h156v-78h-156z" />
    <glyph glyph-name="tbar" unicode="&#x167;" horiz-adv-x="391" 
d="M357 15c-12 -6.66699 -27.167 -12.334 -45.5 -17.001s-35.166 -7 -50.499 -7c-54 0 -93.167 13.667 -117.5 41s-36.5 64 -36.5 110v109h-70v77h70v98h-72v44c19.333 6.66699 35.666 15.334 48.999 26.001s24.5 22.334 33.5 35.001s16.333 26.167 22 40.5
s10.167 28.166 13.5 41.499h46v-113h139v-74h-139v-98h134v-77h-134v-106c0 -30 7 -50.167 21 -60.5s30.333 -15.5 49 -15.5c27.333 0 51.333 7.66699 72 23h16v-77z" />
    <glyph glyph-name="Utilde" unicode="&#x168;" horiz-adv-x="671" 
d="M588 650l0.000976562 -422.999c0 -83.333 -21.833 -144.5 -65.5 -183.5s-105.834 -58.5 -186.501 -58.5c-81.333 0 -143.833 19.5 -187.5 58.5s-65.5 100.167 -65.5 183.5v423h94v-435c0 -52.667 14.333 -90.334 43 -113.001s68 -34 118 -34
c45.333 0 82.833 11.5 112.5 34.5s44.5 60.5 44.5 112.5v435h93zM172.001 700.001c0 15.333 2.16699 30.1689 6.5 44.502s10.666 27.333 18.999 39s19 21 32 28s27.833 10.5 44.5 10.5c15.333 0 28.5 -2.33301 39.5 -7s21.333 -9.83398 31 -15.501
s19.167 -10.834 28.5 -15.501s19.333 -7 30 -7c9.33301 0 18.5 2.66699 27.5 8s13.5 18.666 13.5 39.999h66c0 -14.667 -2.16699 -29.334 -6.5 -44.001s-10.666 -27.834 -18.999 -39.501s-18.833 -21 -31.5 -28s-27.667 -10.5 -45 -10.5c-14.667 0 -27.667 2.33301 -39 7
s-22 9.83398 -32 15.501s-19.5 10.834 -28.5 15.501s-19.167 7 -30.5 7c-9.33301 0 -18.333 -2.66699 -27 -8s-13 -18.666 -13 -39.999h-66z" />
    <glyph glyph-name="utilde" unicode="&#x169;" horiz-adv-x="546" 
d="M155 500v-307c0 -24.667 3.33301 -45.334 10 -62.001s15.5 -30 26.5 -40s23.667 -17 38 -21s28.833 -6 43.5 -6s29.167 2 43.5 6s27 11 38 21s19.833 23.333 26.5 40s10 37.334 10 62.001v307h90v-311c0 -36 -5.83301 -67 -17.5 -93s-27.167 -47.167 -46.5 -63.5
s-41.5 -28.5 -66.5 -36.5s-50.833 -12 -77.5 -12s-52.5 4 -77.5 12s-47.167 20.167 -66.5 36.5s-34.833 37.5 -46.5 63.5s-17.5 57 -17.5 93v311h90zM104 560c0 15.333 2.16699 30.1689 6.5 44.502s10.666 27.333 18.999 39s19 21 32 28s27.833 10.5 44.5 10.5
c15.333 0 28.5 -2.33301 39.5 -7s21.333 -9.83398 31 -15.501s19.167 -10.834 28.5 -15.501s19.333 -7 30 -7c9.33301 0 18.5 2.66699 27.5 8s13.5 18.666 13.5 39.999h66c0 -14.667 -2.16699 -29.334 -6.5 -44.001s-10.666 -27.834 -18.999 -39.501s-18.833 -21 -31.5 -28
s-27.667 -10.5 -45 -10.5c-14.667 0 -27.667 2.33301 -39 7s-22 9.83398 -32 15.501s-19.5 10.834 -28.5 15.501s-19.167 7 -30.5 7c-9.33301 0 -18.333 -2.66699 -27 -8s-13 -18.666 -13 -39.999h-66z" />
    <glyph glyph-name="Umacron" unicode="&#x16a;" horiz-adv-x="671" 
d="M588 650l0.000976562 -422.999c0 -83.333 -21.833 -144.5 -65.5 -183.5s-105.834 -58.5 -186.501 -58.5c-81.333 0 -143.833 19.5 -187.5 58.5s-65.5 100.167 -65.5 183.5v423h94v-435c0 -52.667 14.333 -90.334 43 -113.001s68 -34 118 -34
c45.333 0 82.833 11.5 112.5 34.5s44.5 60.5 44.5 112.5v435h93zM191.001 784.001h296v-77h-296v77z" />
    <glyph glyph-name="umacron" unicode="&#x16b;" horiz-adv-x="546" 
d="M155 500v-307c0 -24.667 3.33301 -45.334 10 -62.001s15.5 -30 26.5 -40s23.667 -17 38 -21s28.833 -6 43.5 -6s29.167 2 43.5 6s27 11 38 21s19.833 23.333 26.5 40s10 37.334 10 62.001v307h90v-311c0 -36 -5.83301 -67 -17.5 -93s-27.167 -47.167 -46.5 -63.5
s-41.5 -28.5 -66.5 -36.5s-50.833 -12 -77.5 -12s-52.5 4 -77.5 12s-47.167 20.167 -66.5 36.5s-34.833 37.5 -46.5 63.5s-17.5 57 -17.5 93v311h90zM125 657h296v-77h-296v77z" />
    <glyph glyph-name="Ubreve" unicode="&#x16c;" horiz-adv-x="671" 
d="M588 650l0.000976562 -422.999c0 -83.333 -21.833 -144.5 -65.5 -183.5s-105.834 -58.5 -186.501 -58.5c-81.333 0 -143.833 19.5 -187.5 58.5s-65.5 100.167 -65.5 183.5v423h94v-435c0 -52.667 14.333 -90.334 43 -113.001s68 -34 118 -34
c45.333 0 82.833 11.5 112.5 34.5s44.5 60.5 44.5 112.5v435h93zM262.001 821.001c4.66699 -21.333 13.665 -36.666 26.998 -45.999s30 -14 50 -14s36.667 4.66699 50 14s22.333 24.666 27 45.999h92c-2.66699 -20 -9 -37.833 -19 -53.5s-22.5 -28.834 -37.5 -39.501
s-32.167 -18.834 -51.5 -24.501s-39.666 -8.5 -60.999 -8.5s-41.666 2.83301 -60.999 8.5s-36.5 13.834 -51.5 24.501s-27.5 23.834 -37.5 39.501s-16.333 33.5 -19 53.5h92z" />
    <glyph glyph-name="ubreve" unicode="&#x16d;" horiz-adv-x="546" 
d="M155 500v-307c0 -24.667 3.33301 -45.334 10 -62.001s15.5 -30 26.5 -40s23.667 -17 38 -21s28.833 -6 43.5 -6s29.167 2 43.5 6s27 11 38 21s19.833 23.333 26.5 40s10 37.334 10 62.001v307h90v-311c0 -36 -5.83301 -67 -17.5 -93s-27.167 -47.167 -46.5 -63.5
s-41.5 -28.5 -66.5 -36.5s-50.833 -12 -77.5 -12s-52.5 4 -77.5 12s-47.167 20.167 -66.5 36.5s-34.833 37.5 -46.5 63.5s-17.5 57 -17.5 93v311h90zM196 683c4.66699 -21.333 13.665 -36.666 26.998 -45.999s30 -14 50 -14s36.667 4.66699 50 14s22.333 24.666 27 45.999
h92c-2.66699 -20 -9 -37.833 -19 -53.5s-22.5 -28.834 -37.5 -39.501s-32.167 -18.834 -51.5 -24.501s-39.666 -8.5 -60.999 -8.5s-41.666 2.83301 -60.999 8.5s-36.5 13.834 -51.5 24.501s-27.5 23.834 -37.5 39.501s-16.333 33.5 -19 53.5h92z" />
    <glyph glyph-name="Uring" unicode="&#x16e;" horiz-adv-x="671" 
d="M588 650l0.000976562 -422.999c0 -83.333 -21.833 -144.5 -65.5 -183.5s-105.834 -58.5 -186.501 -58.5c-81.333 0 -143.833 19.5 -187.5 58.5s-65.5 100.167 -65.5 183.5v423h94v-435c0 -52.667 14.333 -90.334 43 -113.001s68 -34 118 -34
c45.333 0 82.833 11.5 112.5 34.5s44.5 60.5 44.5 112.5v435h93zM240.001 778.001c0 26.667 9.5 49.167 28.5 67.5s42.5 27.5 70.5 27.5s51.5 -9.16699 70.5 -27.5s28.5 -40.833 28.5 -67.5c0 -27.333 -9.5 -50.333 -28.5 -69s-42.5 -28 -70.5 -28s-51.5 9.33301 -70.5 28
s-28.5 41.667 -28.5 69zM382.001 778.001c0 12.667 -4 23.167 -12 31.5s-18.333 12.5 -31 12.5c-12 0 -22.167 -4.33301 -30.5 -13s-12.5 -19 -12.5 -31c0 -12.667 4.16699 -23.334 12.5 -32.001s18.5 -13 30.5 -13s22.167 4.33301 30.5 13s12.5 19.334 12.5 32.001z" />
    <glyph glyph-name="uring" unicode="&#x16f;" horiz-adv-x="546" 
d="M155 500v-307c0 -24.667 3.33301 -45.334 10 -62.001s15.5 -30 26.5 -40s23.667 -17 38 -21s28.833 -6 43.5 -6s29.167 2 43.5 6s27 11 38 21s19.833 23.333 26.5 40s10 37.334 10 62.001v307h90v-311c0 -36 -5.83301 -67 -17.5 -93s-27.167 -47.167 -46.5 -63.5
s-41.5 -28.5 -66.5 -36.5s-50.833 -12 -77.5 -12s-52.5 4 -77.5 12s-47.167 20.167 -66.5 36.5s-34.833 37.5 -46.5 63.5s-17.5 57 -17.5 93v311h90zM174 630c0 26.667 9.5 49.167 28.5 67.5s42.5 27.5 70.5 27.5s51.5 -9.16699 70.5 -27.5s28.5 -40.833 28.5 -67.5
c0 -27.333 -9.5 -50.333 -28.5 -69s-42.5 -28 -70.5 -28s-51.5 9.33301 -70.5 28s-28.5 41.667 -28.5 69zM316 630c0 12.667 -4 23.167 -12 31.5s-18.333 12.5 -31 12.5c-12 0 -22.167 -4.33301 -30.5 -13s-12.5 -19 -12.5 -31c0 -12.667 4.16699 -23.334 12.5 -32.001
s18.5 -13 30.5 -13s22.167 4.33301 30.5 13s12.5 19.334 12.5 32.001z" />
    <glyph glyph-name="Uhungarumlaut" unicode="&#x170;" horiz-adv-x="671" 
d="M588 650l0.000976562 -422.999c0 -83.333 -21.833 -144.5 -65.5 -183.5s-105.834 -58.5 -186.501 -58.5c-81.333 0 -143.833 19.5 -187.5 58.5s-65.5 100.167 -65.5 183.5v423h94v-435c0 -52.667 14.333 -90.334 43 -113.001s68 -34 118 -34
c45.333 0 82.833 11.5 112.5 34.5s44.5 60.5 44.5 112.5v435h93zM188.001 741.001l144 147l61 -70l-167 -123zM378.001 741.001l144 147l61 -70l-167 -123z" />
    <glyph glyph-name="uhungarumlaut" unicode="&#x171;" horiz-adv-x="546" 
d="M155 500v-307c0 -24.667 3.33301 -45.334 10 -62.001s15.5 -30 26.5 -40s23.667 -17 38 -21s28.833 -6 43.5 -6s29.167 2 43.5 6s27 11 38 21s19.833 23.333 26.5 40s10 37.334 10 62.001v307h90v-311c0 -36 -5.83301 -67 -17.5 -93s-27.167 -47.167 -46.5 -63.5
s-41.5 -28.5 -66.5 -36.5s-50.833 -12 -77.5 -12s-52.5 4 -77.5 12s-47.167 20.167 -66.5 36.5s-34.833 37.5 -46.5 63.5s-17.5 57 -17.5 93v311h90zM126 590l144 147l61 -70l-167 -123zM316 590l144 147l61 -70l-167 -123z" />
    <glyph glyph-name="Uogonek" unicode="&#x172;" horiz-adv-x="671" 
d="M348 -185c-35.333 0 -61.3311 8.66797 -77.998 26.001s-25 37.333 -25 60c0 15.333 3.66699 30.666 11 45.999s18.666 28.666 33.999 39.999c-66.667 7.33301 -117.834 30.5 -153.501 69.5s-53.5 95.833 -53.5 170.5v423h94v-435c0 -52.667 14.333 -90.334 43 -113.001
s68 -34 118 -34c45.333 0 82.833 11.5 112.5 34.5s44.5 60.5 44.5 112.5v435h93v-423c0 -76.667 -18.667 -134.667 -56 -174s-90.666 -61.666 -159.999 -66.999c-19.333 -11.333 -32.5 -23.5 -39.5 -36.5s-10.5 -26.167 -10.5 -39.5c0 -22.667 13.333 -34 40 -34
c9.33301 0 17.833 0.833008 25.5 2.5s17.167 4.83398 28.5 9.50098h10v-60c-10.667 -4.66699 -23.334 -8 -38.001 -10s-28 -3 -40 -3z" />
    <glyph glyph-name="uogonek" unicode="&#x173;" horiz-adv-x="546" 
d="M297 -185c-35.333 0 -61.3311 8.66602 -77.998 25.999s-25 37.333 -25 60c0 15.333 3.66699 30.5 11 45.5s18.333 28.167 33 39.5c-23.333 3.33301 -45.5 9.83301 -66.5 19.5s-39.333 22.667 -55 39s-28.167 36.5 -37.5 60.5s-14 52 -14 84v311h90v-307
c0 -24.667 3.33301 -45.334 10 -62.001s15.5 -30 26.5 -40s23.667 -17 38 -21s28.833 -6 43.5 -6s29.167 2 43.5 6s27 11 38 21s19.833 23.333 26.5 40s10 37.334 10 62.001v307h90v-311c0 -30 -4.16699 -56.5 -12.5 -79.5s-19.5 -42.667 -33.5 -59s-30.5 -29.5 -49.5 -39.5
s-39.167 -17.333 -60.5 -22c-20.667 -12 -34.834 -24.833 -42.501 -38.5s-11.5 -27.167 -11.5 -40.5c0 -22.667 13.333 -34 40 -34c9.33301 0 17.833 0.833008 25.5 2.5s17.167 4.83398 28.5 9.50098h10v-60c-10.667 -4.66699 -23.334 -8 -38.001 -10s-28 -3 -40 -3z" />
    <glyph glyph-name="Wcircumflex" unicode="&#x174;" horiz-adv-x="906" 
d="M506 650l117.002 -444c1.33301 -4.66699 3 -11.167 5 -19.5s4 -16.833 6 -25.5s4 -16.834 6 -24.501s3.33301 -13.834 4 -18.501h2c1.33301 4.66699 2.83301 10.834 4.5 18.501s3.5 15.834 5.5 24.501s4.16699 17.167 6.5 25.5s4.16602 14.833 5.49902 19.5l128 444h94
v-15l-191 -635h-102l-144 527h-2l-142 -527h-102l-191 635v15h94l128 -444c1.33301 -4.66699 3.16602 -11.167 5.49902 -19.5s4.5 -16.833 6.5 -25.5s4 -16.834 6 -24.501s3.33301 -13.834 4 -18.501h2c1.33301 4.66699 2.83301 10.834 4.5 18.501s3.5 15.834 5.5 24.501
s4 17.167 6 25.5s3.66699 14.833 5 19.5l117 444h106zM295.002 755l158 115l163 -115l-35 -54l-128 76l-123 -76z" />
    <glyph glyph-name="wcircumflex" unicode="&#x175;" horiz-adv-x="805" 
d="M403 385l-1.00195 1.99805l-124 -387h-94l-155 487v13h90l96 -317c1.33301 -4 3 -9.16699 5 -15.5s4 -13.166 6 -20.499s3.83301 -14.166 5.5 -20.499s2.83398 -11.5 3.50098 -15.5h2c0.666992 4 1.66699 9.16699 3 15.5s3 13 5 20s3.83301 13.667 5.5 20
s3.16699 11.5 4.5 15.5l98 318h103l99 -319c1.33301 -4 2.83301 -9.16699 4.5 -15.5s3.5 -12.833 5.5 -19.5s3.83301 -13.167 5.5 -19.5s2.83398 -11.5 3.50098 -15.5h2c0.666992 4 1.66699 9 3 15s3 12.5 5 19.5s3.83301 13.5 5.5 19.5s3.16699 11 4.5 15l97 320h85v-13
l-156 -487h-94zM242.998 604.998l158 115l163 -115l-35 -54l-128 76l-123 -76z" />
    <glyph glyph-name="Ycircumflex" unicode="&#x176;" horiz-adv-x="608" 
d="M257 0v254l-239 381v15h104l185 -307l186 307h97v-15l-238 -381v-254h-95zM144 755l158 115l163 -115l-35 -54l-128 76l-123 -76z" />
    <glyph glyph-name="ycircumflex" unicode="&#x177;" horiz-adv-x="504" 
d="M203 23l-192.999 463.999v13h95l122 -317c1.33301 -3.33301 3.33301 -8.5 6 -15.5s5.33398 -14.167 8.00098 -21.5s5.16699 -14.666 7.5 -21.999s4.16602 -13 5.49902 -17h2c1.33301 4 3 9.5 5 16.5s4.33301 14.167 7 21.5s5.16699 14.333 7.5 21s4.16602 12 5.49902 16
l122 318h91v-13l-276 -667h-95v13zM101.001 604.999l158 115l163 -115l-35 -54l-128 76l-123 -76z" />
    <glyph glyph-name="Ydieresis" unicode="&#x178;" horiz-adv-x="608" 
d="M257 0v254l-239 381v15h104l185 -307l186 307h97v-15l-238 -381v-254h-95zM210 829c17.333 0 32.332 -5.5 44.999 -16.5s19 -25.5 19 -43.5c0 -17.333 -6.33301 -31.666 -19 -42.999s-27.667 -17 -45 -17s-32.166 5.5 -44.499 16.5s-18.5 25.5 -18.5 43.5
c0 17.333 6 31.666 18 42.999s27 17 45 17zM397.999 829c17.333 0 32.166 -5.5 44.499 -16.5s18.5 -25.5 18.5 -43.5c0 -17.333 -6.16699 -31.666 -18.5 -42.999s-27.166 -17 -44.499 -17c-18 0 -33.167 5.5 -45.5 16.5s-18.5 25.5 -18.5 43.5
c0 17.333 6.16699 31.666 18.5 42.999s27.5 17 45.5 17z" />
    <glyph glyph-name="Zacute" unicode="&#x179;" horiz-adv-x="596" 
d="M84 650h460v-58l-350 -506v-2h341v-84h-468v59l349 505v2h-332v84zM173 747l218 142l46 -81l-235 -113z" />
    <glyph glyph-name="zacute" unicode="&#x17a;" horiz-adv-x="488" 
d="M62 500h364v-58l-256 -366v-2h258v-74h-375v56l256 368v2h-247v74zM119 595l218 142l46 -81l-235 -113z" />
    <glyph glyph-name="Zdotaccent" unicode="&#x17b;" horiz-adv-x="596" 
d="M84 650h460v-58l-350 -506v-2h341v-84h-468v59l349 505v2h-332v84zM305 834c18 0 33.499 -5.5 46.499 -16.5s19.5 -25.833 19.5 -44.5c0 -19.333 -6.5 -34.666 -19.5 -45.999s-28.5 -17 -46.5 -17s-33.5 5.66699 -46.5 17s-19.5 26.666 -19.5 45.999
c0 18 6.33301 32.667 19 44s28.334 17 47.001 17z" />
    <glyph glyph-name="zdotaccent" unicode="&#x17c;" horiz-adv-x="488" 
d="M62 500h364v-58l-256 -366v-2h258v-74h-375v56l256 368v2h-247v74zM249 687c18 0 33.499 -5.5 46.499 -16.5s19.5 -25.833 19.5 -44.5c0 -19.333 -6.5 -34.666 -19.5 -45.999s-28.5 -17 -46.5 -17s-33.5 5.66699 -46.5 17s-19.5 26.666 -19.5 45.999
c0 18 6.33301 32.667 19 44s28.334 17 47.001 17z" />
    <glyph glyph-name="Zcaron" unicode="&#x17d;" horiz-adv-x="596" 
d="M84 650h460v-58l-350 -506v-2h341v-84h-468v59l349 505v2h-332v84zM465 816l-158 -115l-163 115l35 54l128 -76l123 76z" />
    <glyph glyph-name="zcaron" unicode="&#x17e;" horiz-adv-x="488" 
d="M62 500h364v-58l-256 -366v-2h258v-74h-375v56l256 368v2h-247v74zM408 666l-158 -115l-163 115l35 54l128 -76l123 76z" />
    <glyph glyph-name="uni0192" unicode="&#x192;" horiz-adv-x="376" 
d="M4 401l75.998 0.000976562l9 90c5.33301 57.333 23 100.666 53 129.999s71.333 44 124 44c30 0 59.333 -4.33301 88 -13l-8 -75h-16c-9.33301 4 -20.666 6.83301 -33.999 8.5s-24.666 2.5 -33.999 2.5c-26 0 -45 -6.66699 -57 -20s-19.667 -35 -23 -65l-11 -102h154
l-8 -74h-154l-44 -417h-91l44 417h-75z" />
    <glyph glyph-name="Aringacute" unicode="&#x1fa;" horiz-adv-x="663" 
d="M374 697c0 12.667 -4 23.167 -12 31.5s-18.333 12.5 -31 12.5c-12 0 -22.167 -4.33301 -30.5 -13s-12.5 -19 -12.5 -31c0 -12.667 4.16699 -23.334 12.5 -32.001s18.5 -13 30.5 -13s22.167 4.33301 30.5 13s12.5 19.334 12.5 32.001zM328 533l-5.50098 -16.502l-7 -21
c-2.33301 -7 -4.5 -13.333 -6.5 -19s-3.66699 -9.83398 -5 -12.501l-91 -226h232l-92 228c-0.666992 2.66699 -2.16699 6.83398 -4.5 12.501s-4.66602 11.834 -6.99902 18.501s-4.5 13.334 -6.5 20.001s-3.66699 12 -5 16h-2zM117.999 -0.00195312h-96v15l254 601
c-13.333 9.33301 -24 20.833 -32 34.5s-12 29.167 -12 46.5c0 26.667 9.5 49.167 28.5 67.5s42.5 27.5 70.5 27.5s51.5 -9.16699 70.5 -27.5s28.5 -40.833 28.5 -67.5c0 -17.333 -4 -33 -12 -47s-18.667 -25.333 -32 -34l255 -601v-15h-100l-62 154h-299zM198.999 830.998
l218 142l46 -81l-235 -113z" />
    </font>
</defs>
</svg>
