<?xml version="1.0" encoding="utf-8"?>
<!-- Generator: Adobe Illustrator 21.1.0, SVG Export Plug-In . SVG Version: 6.00 Build 0)  -->
<svg version="1.1" id="Layer_1" xmlns="http://www.w3.org/2000/svg" xmlns:xlink="http://www.w3.org/1999/xlink" x="0px" y="0px"
	 viewBox="0 0 23 23" style="enable-background:new 0 0 23 23;" xml:space="preserve">
<style type="text/css">
	.Drop_x0020_Shadow{fill:none;}
	.Outer_x0020_Glow_x0020_5_x0020_pt{fill:none;}
	.Blue_x0020_Neon{fill:none;stroke:#8AACDA;stroke-width:7;stroke-linecap:round;stroke-linejoin:round;}
	.Chrome_x0020_Highlight{fill:url(#SVGID_1_);stroke:#FFFFFF;stroke-width:0.3629;stroke-miterlimit:1;}
	.Jive_GS{fill:#FFDD00;}
	.Alyssa_GS{fill:#A6D0E4;}
	.st0{fill:#FFFFFF;}
</style>
<linearGradient id="SVGID_1_" gradientUnits="userSpaceOnUse" x1="-630" y1="-502" x2="-630" y2="-503">
	<stop  offset="0" style="stop-color:#656565"/>
	<stop  offset="0.618" style="stop-color:#1B1B1B"/>
	<stop  offset="0.6292" style="stop-color:#545454"/>
	<stop  offset="0.9831" style="stop-color:#3E3E3E"/>
</linearGradient>
<g>
	<path class="st0" d="M1.5,10c0.1,0,0.2,0,0.2,0c1.6,0,3.1,0,4.7,0c0.4,0,0.5-0.1,0.5-0.5c0-1.7,0-3.4,0-5.1c0-0.8,0-1.5,0-2.3
		c1.5,0,3,0,4.5,0c0,0,0,0.1,0,0.1c0,0.9,0,1.9,0,2.8c0,0.3,0.1,0.4,0.4,0.5c0.5,0.2,1,0.4,1.5,0.5c1,0.1,2,0.4,2.9,0.6
		c0.2,0,0.4,0,0.6-0.1c1.1-0.1,2.1-0.1,3.2,0.4c0.3,0.1,0.4,0.2,0.4,0.5c0,0.7,0,1.4,0,2c0,0.2,0.1,0.4,0.1,0.6
		c0.2,0.4,0.4,0.7,0.6,1c0,0.1,0,0.1,0,0.2c0,0.5-0.1,0.9-0.1,1.4c0,0.2-0.1,0.4-0.1,0.7c-0.1,0.3-0.3,0.6-0.6,0.7
		c-0.4,0.1-0.8,0.3-1.1,0.6c-0.7,0.7-1.6,1-2.4,1.4c0,0,0,0,0,0c-0.3,0.1-0.4,0.2-0.6,0.5c-0.1,0.3-0.3,0.5-0.5,0.8
		c-0.2,0.2-0.3,0.5-0.3,0.8c0,0.1,0,0.1,0,0.2c-0.3,0.5,0,1,0.1,1.5c0,0.1,0.1,0.2,0.2,0.3c0,0.1,0.1,0.2,0.1,0.2
		c-0.1,0-0.1,0.1-0.2,0.1c-0.3,0-0.5,0-0.8-0.1c-0.5-0.1-1-0.3-1.4-0.4c-0.4-0.1-0.6-0.4-0.8-0.8c-0.1-0.3-0.3-0.7-0.5-1
		c-0.5-0.8-0.9-1.6-1.3-2.4c-0.2-0.5-0.7-1-1.1-1.4c-0.5-0.5-0.5-0.5-1.2-0.6c-0.4-0.1-0.8,0-1.1,0.2c-0.1,0.1-0.2,0.2-0.2,0.4
		c-0.1,0.1-0.1,0.3-0.1,0.4c-0.1,0.4-0.4,0.5-0.8,0.3C6,15,5.7,14.8,5.3,14.6c-0.4-0.2-0.6-0.5-0.8-0.9c-0.1-0.3-0.2-0.6-0.3-0.9
		c-0.1-0.3-0.3-0.4-0.5-0.6c-0.4-0.2-0.6-0.4-0.9-0.7c-0.2-0.2-0.3-0.4-0.6-0.5c-0.3-0.1-0.5-0.4-0.7-0.7C1.4,10.2,1.5,10.1,1.5,10z
		"/>
</g>
</svg>
