<?xml version="1.0" encoding="utf-8"?>
<!-- Generator: Adobe Illustrator 21.1.0, SVG Export Plug-In . SVG Version: 6.00 Build 0)  -->
<svg version="1.1" id="Layer_1" xmlns="http://www.w3.org/2000/svg" xmlns:xlink="http://www.w3.org/1999/xlink" x="0px" y="0px"
	 viewBox="0 0 40 23" style="enable-background:new 0 0 40 23;" xml:space="preserve">
<style type="text/css">
	.Drop_x0020_Shadow{fill:none;}
	.Outer_x0020_Glow_x0020_5_x0020_pt{fill:none;}
	.Blue_x0020_Neon{fill:none;stroke:#8AACDA;stroke-width:7;stroke-linecap:round;stroke-linejoin:round;}
	.Chrome_x0020_Highlight{fill:url(#SVGID_1_);stroke:#FFFFFF;stroke-width:0.3629;stroke-miterlimit:1;}
	.Jive_GS{fill:#FFDD00;}
	.Alyssa_GS{fill:#A6D0E4;}
	.st0{fill:#FFFFFF;}
</style>
<linearGradient id="SVGID_1_" gradientUnits="userSpaceOnUse" x1="-622" y1="-351" x2="-622" y2="-352">
	<stop  offset="0" style="stop-color:#656565"/>
	<stop  offset="0.618" style="stop-color:#1B1B1B"/>
	<stop  offset="0.6292" style="stop-color:#545454"/>
	<stop  offset="0.9831" style="stop-color:#3E3E3E"/>
</linearGradient>
<g>
	<path class="st0" d="M14.3,4.2c0-0.1,0-0.2,0.1-0.4C14.8,3.9,15.3,4,15.7,4c0,0,0.1,0,0.1,0.1c0.2,0.3,0.5,0.6,0.7,0.9
		c0,0,0,0,0.1,0C16.9,5.1,17,5.4,17,5.7c0,0.3,0,0.5,0.3,0.6c0.2,0.1,0.4,0.3,0.6,0.5c0.2,0.1,0.4,0.1,0.5-0.1
		c0.1-0.1,0.1-0.2,0.1-0.3c0.1-0.2,0.3-0.2,0.5-0.2c0,0,0,0,0,0c0.4,0,0.7,0.3,0.9,0.6c0.1,0.1,0.2,0.3,0.3,0.5
		c0.1,0.1,0.1,0.3,0.2,0.5c0.1,0.2,0.2,0.4,0.4,0.6C21,8.4,21,8.5,21,8.8c0.1,0.4,0.2,0.8,0.7,0.9c0.2,0.1,0.4,0.2,0.6,0.2
		c0.1,0,0.2,0.1,0.3,0.2c0.1,0,0.1,0,0.2-0.1c0,0,0,0,0.1,0c-0.1,0.2-0.2,0.4-0.3,0.7c0,0,0,0,0,0c0-0.1,0-0.2,0.1-0.3
		c0,0,0,0-0.1-0.1c0,0.1-0.1,0.1-0.1,0.2c0,0-0.1-0.1-0.2-0.1c0,0.1,0,0.3,0,0.4c0,0,0.1,0,0.2,0c0,0,0,0-0.1,0
		c-0.2,0.1-0.2,0.3-0.2,0.5c-0.1,0.4-0.1,0.9-0.1,1.3c0,0,0,0.1,0,0.1c-0.2,0.3-0.1,0.6,0,0.9c0.1,0.6,0.3,1.1,0.7,1.6
		c0.2,0.2,0.2,0.4,0.3,0.6c0.1,0.2,0.2,0.4,0.4,0.6c0,0.1,0,0.1,0.1,0.2c0.2,0,0.5-0.1,0.7,0.1c0.1,0.1,0.3,0.2,0.3,0.4
		c0,0,0.3,0.1,0.4,0c0.3-0.1,0.7-0.2,1-0.2c0.1,0,0.1-0.1,0.2-0.1c0.2-0.1,0.4-0.1,0.7-0.1c0,0,0,0.1,0,0.1c0,0-0.1,0-0.1,0.1
		c0.1,0,0.2,0.1,0.3,0.1c0.1,0,0.1,0,0.2,0c0.1,0,0.2-0.1,0.3-0.2c0,0,0-0.2-0.1-0.3c0.1-0.1,0.3-0.2,0.4-0.3c0,0,0.1,0,0.1-0.1
		c0-0.4,0.4-0.6,0.3-1c0-0.1,0-0.4,0.1-0.4c0.2-0.1,0.4-0.2,0.6-0.3c0.3-0.1,0.5,0,0.8-0.1c0.2-0.1,0.4-0.1,0.6-0.1
		c0.1,0,0.3,0.1,0.4,0.1c0.1,0,0.2,0,0.4-0.1c0.3,0.2,0.3,0.5,0,0.8c-0.1,0.1-0.2,0.2-0.3,0.4c0,0,0,0.1,0,0.1
		c0,0.2-0.1,0.3-0.3,0.4c0,0,0,0,0,0.1c0.1,0,0.2,0,0.3,0c-0.1,0.1-0.2,0.2-0.3,0.3c0,0,0,0,0,0c0,0,0.1-0.1,0.2-0.1
		c-0.1,0.4-0.2,0.7-0.3,1.1c-0.1-0.2-0.1-0.4-0.2-0.6c0,0.1-0.1,0.1-0.1,0.2c0,0,0,0.1-0.1,0.1c-0.2,0-0.3,0.2-0.4,0.4
		c-0.1,0.1-0.2,0.3-0.4,0.1c0,0.2-0.2,0.2-0.3,0.2c-0.4,0-0.9,0-1.3,0c0,0.2,0,0.3,0,0.5c-0.1,0-0.2,0-0.3,0
		c0.3,0.3,0.5,0.5,0.8,0.8c0,0.1,0,0.2-0.1,0.3c-0.3,0-0.5,0-0.8,0c-0.2,0-0.4,0-0.5,0.3c0,0.1-0.1,0.2-0.2,0.3
		c-0.1,0.1-0.1,0.2,0,0.3c0.1,0.1,0,0.3-0.1,0.4c0,0-0.1,0-0.1,0c-0.1-0.1-0.1-0.2-0.2-0.2c-0.4-0.4-0.7-0.7-1.1-1.1
		c-0.2-0.2-0.3-0.2-0.5-0.3c0,0-0.1,0.1-0.1,0.1c0,0,0-0.1-0.1-0.1c0,0-0.1-0.1-0.1-0.1c-0.1,0-0.1,0-0.2-0.1c0,0-0.1,0.1-0.1,0.1
		c0,0,0.1,0,0.1,0c0,0,0,0,0,0c-0.3,0.1-0.7,0.3-1,0.4c-0.3,0.1-0.5,0-0.8-0.1c-0.1-0.1-0.2-0.1-0.3-0.1c-0.2,0-0.3-0.1-0.5-0.2
		c-0.1-0.1-0.2-0.1-0.3-0.2c0,0-0.1,0-0.1-0.1c-0.2-0.3-0.6-0.3-0.9-0.4c0,0-0.1,0-0.1,0c-0.3-0.2-0.7-0.3-1-0.6
		c-0.2-0.1-0.4-0.3-0.6-0.5c-0.1-0.1-0.2-0.3-0.4-0.2c-0.1,0-0.2-0.1-0.2-0.1c-0.3-0.1-0.5-0.2-0.8-0.3c-0.1-0.1-0.2-0.2-0.2-0.3
		c-0.2-0.3-0.3-0.4-0.6-0.5c-0.2-0.1-0.4-0.2-0.5-0.4c-0.1-0.1-0.2-0.2-0.2-0.3c-0.1-0.2-0.2-0.4-0.2-0.6c0.2,0,0.3-0.1,0.5-0.1
		c-0.1-0.1-0.2-0.1-0.3-0.2c0,0,0.1-0.1,0.1-0.1c0.1-0.1,0.1-0.2,0.2-0.3c0.1-0.1,0-0.2-0.1-0.3c-0.1-0.1-0.2-0.3-0.2-0.4
		c0-0.4-0.2-0.7-0.5-1c-0.1-0.2-0.3-0.4-0.4-0.6c0-0.1-0.1-0.1-0.1-0.2c-0.2-0.2-0.5-0.5-0.7-0.7c0-0.1,0-0.2,0-0.3c0,0-0.1,0-0.2,0
		c0.1-0.1,0.1-0.1,0.2-0.1c-0.2-0.2-0.4-0.3-0.6-0.5c-0.1,0.1-0.3-0.1-0.4-0.2c-0.1-0.2,0-0.4,0.2-0.5c0,0,0,0.1,0,0.1c0,0,0,0,0,0
		c-0.1-0.2-0.2-0.4-0.2-0.5c-0.3,0-0.3,0-0.3-0.3c0-0.1,0-0.1-0.1-0.2C12,7.8,11.9,7.5,12,7.2c-0.1,0-0.2-0.2-0.3-0.1
		c0,0-0.2-0.1-0.3-0.2c-0.2-0.3-0.3-0.5-0.5-0.8c0-0.1,0-0.2-0.1-0.2c0-0.1-0.1-0.2-0.1-0.3c0-0.1-0.1-0.2-0.1-0.3
		c0-0.1-0.1-0.2-0.1-0.3c0-0.2-0.1-0.3-0.1-0.5c-0.1-0.2-0.1-0.4,0.1-0.6C10.2,3.8,10,3.6,9.9,3.3c-0.1,0.2-0.2,0.1-0.3,0
		C9.4,3.3,9.3,3.2,9.2,3.1c0,0.1-0.1,0.2-0.1,0.3c-0.1,0.2-0.1,0.3,0,0.5c0.1,0.2,0,0.4,0,0.6c0,0.2,0,0.4,0.2,0.6
		c0.2,0.2,0.5,0.4,0.5,0.8c0,0.1,0.1,0.1,0.1,0.2C10,6.1,10,6.1,10.1,6.2c0,0,0,0.1,0,0.1c0.3,0.1,0.1,0.4,0.2,0.6
		c0,0.1,0,0.2,0.1,0.2c0.2,0.1,0.2,0.3,0.3,0.4c0.1,0.2,0.2,0.5,0.3,0.7c0-0.1,0-0.2-0.1-0.3c0.2,0.1,0.4,0.5,0.3,0.8
		c0,0.2,0,0.4,0.1,0.5c0,0,0,0.1,0.1,0.2c0,0.1,0.1,0.2,0.1,0.3c0,0.1,0.1,0.2,0.1,0.3c-0.1,0.3-0.1,0.4,0.2,0.6
		c0-0.1,0-0.1,0.1-0.2c0.1,0.1,0.1,0.3,0.2,0.3c0.2,0.1,0.1,0.4,0.4,0.6c0.2,0.1,0,0.4-0.2,0.4c-0.1,0-0.1,0.1-0.2,0.1
		c-0.1,0.1-0.2,0-0.2-0.1c0-0.1,0-0.2,0-0.2c0-0.1-0.1-0.3-0.2-0.4c-0.3-0.3-0.5-0.6-0.8-0.9c-0.1-0.1-0.2-0.2-0.3-0.3
		c-0.2-0.1-0.2-0.3-0.1-0.4c0.2-0.3,0.1-0.5,0-0.8C10.3,8.4,10,8.3,9.9,8.1C9.9,8,9.8,8,9.8,8C9.8,7.8,9.6,7.7,9.4,7.8
		C9.3,7.7,9.2,7.6,9.1,7.5c0,0-0.1,0-0.1-0.1c0,0-0.1-0.1-0.1-0.1c0-0.3-0.3-0.4-0.4-0.6c0.2,0,0.4,0.1,0.6,0.1c0,0,0,0.1,0,0.1
		c0,0,0,0,0.1,0c0-0.1,0-0.1,0-0.2c0,0,0,0,0-0.1c0.2,0,0.1-0.2,0.2-0.3c0-0.1,0-0.2,0-0.2C9.1,5.8,8.9,5.6,8.7,5.3
		C8.7,5.2,8.5,5.1,8.4,5C8.2,4.9,8.1,4.7,8.2,4.4c0,0,0-0.1,0-0.1C8.1,4.2,8,4,8.1,3.9C7.8,3.7,7.9,3.4,7.8,3.2
		C7.7,3.1,7.7,3,7.8,2.9C7.7,2.6,7.6,2.4,7.5,2.2c0.7,0,1.3,0.1,1.8,0.1c0.1,0.1,0.2,0.2,0.2,0.3c0.8,0.4,1.6,0.9,2.3,1.3
		C12,3.9,12.2,4,12.4,4c0.6,0.1,1.2,0.2,1.8,0.2C14.2,4.2,14.3,4.2,14.3,4.2z"/>
	<path class="st0" d="M10.7,6.2c0-0.1-0.1-0.2-0.1-0.2c0-0.1,0-0.2,0.2-0.2c0,0.1,0,0.3,0,0.4C10.8,6.2,10.7,6.2,10.7,6.2z"/>
	<path class="st0" d="M9.9,5.3c0.1,0.2,0.2,0.3,0.2,0.5c0,0,0,0-0.1,0C10,5.6,9.8,5.5,9.9,5.3C9.9,5.3,9.9,5.3,9.9,5.3z"/>
</g>
</svg>
