<svg xmlns="http://www.w3.org/2000/svg" width="40" height="40" viewBox="0 0 43.51 25.56"><defs><style>.cls-1{fill:#ff1dba;}</style></defs><title>Asset 1</title><g id="Layer_2" data-name="Layer 2"><g id="Layer_1-2" data-name="Layer 1"><path class="cls-1" d="M21.75,25.56a21.79,21.79,0,0,1-10.21-2.71,38.29,38.29,0,0,1-11.1-9,1.53,1.53,0,0,1-.06-2.08A36.37,36.37,0,0,1,14.08,1.55,20,20,0,0,1,22.6,0,21.5,21.5,0,0,1,31,2.22a37.1,37.1,0,0,1,12,9.42,1.58,1.58,0,0,1,0,2.3,37.22,37.22,0,0,1-12.54,9.64A20.77,20.77,0,0,1,21.75,25.56Zm0-20.11c-.45.06-.91.08-1.35.18a7.32,7.32,0,0,0-5.28,9.56,7,7,0,0,0,9,4.47,7.37,7.37,0,0,0,4.53-8.25A7.19,7.19,0,0,0,21.74,5.45ZM39.8,12.81c-2.26-3-9.34-8-12.12-8.51a10.66,10.66,0,0,1,0,17A33,33,0,0,0,39.8,12.81Zm-24-8.57a32.64,32.64,0,0,0-12.08,8.5c2,2.86,9.16,7.86,12.11,8.52C10.27,17.35,10,8.62,15.81,4.24Z"/></g></g></svg>