<?xml version="1.0" encoding="utf-8"?>
<!-- Generator: Adobe Illustrator 21.1.0, SVG Export Plug-In . SVG Version: 6.00 Build 0)  -->
<svg version="1.1" id="Layer_1" xmlns="http://www.w3.org/2000/svg" xmlns:xlink="http://www.w3.org/1999/xlink" x="0px" y="0px"
	 viewBox="0 0 45 27" style="enable-background:new 0 0 45 27;" xml:space="preserve">
<style type="text/css">
	.Drop_x0020_Shadow{fill:none;}
	.Outer_x0020_Glow_x0020_5_x0020_pt{fill:none;}
	.Blue_x0020_Neon{fill:none;stroke:#8AACDA;stroke-width:7;stroke-linecap:round;stroke-linejoin:round;}
	.Chrome_x0020_Highlight{fill:url(#SVGID_1_);stroke:#FFFFFF;stroke-width:0.3629;stroke-miterlimit:1;}
	.Jive_GS{fill:#FFDD00;}
	.Alyssa_GS{fill:#A6D0E4;}
	.st0{fill:#6924d0;}
</style>
<linearGradient id="SVGID_1_" gradientUnits="userSpaceOnUse" x1="-619" y1="-499" x2="-619" y2="-500">
	<stop  offset="0" style="stop-color:#656565"/>
	<stop  offset="0.618" style="stop-color:#1B1B1B"/>
	<stop  offset="0.6292" style="stop-color:#545454"/>
	<stop  offset="0.9831" style="stop-color:#3E3E3E"/>
</linearGradient>
<g>
	<g>
		<path class="st0" d="M22.4,26.3c-3.6,0-7-1-10.2-2.7c-4.3-2.3-7.9-5.3-11.1-9c-0.6-0.6-0.6-1.5-0.1-2.1c3.8-4.4,8.2-8,13.7-10.2
			c2.7-1.1,5.6-1.7,8.5-1.5c3,0.1,5.7,0.9,8.4,2.2c4.7,2.3,8.6,5.5,12,9.4c0.7,0.8,0.7,1.5,0,2.3c-3.5,4-7.6,7.4-12.5,9.6
			C28.4,25.6,25.5,26.4,22.4,26.3z M22.4,6.2c-0.5,0.1-0.9,0.1-1.3,0.2c-4.2,0.9-6.7,5.4-5.3,9.6c1.3,3.8,5.4,5.8,9,4.5
			c3.3-1.2,5.2-4.8,4.5-8.3C28.7,8.7,25.8,6.3,22.4,6.2z M40.5,13.6c-2.3-3-9.3-8-12.1-8.5c5.6,4.1,5.7,12.7,0,17
			C33.1,20.3,37,17.2,40.5,13.6z M16.5,5c-4.8,1.8-8.6,4.8-12.1,8.5c2,2.9,9.2,7.9,12.1,8.5C11,18.1,10.7,9.4,16.5,5z"/>
	</g>
</g>
</svg>
