<?xml version="1.0" encoding="utf-8"?>
<!-- Generator: Adobe Illustrator 21.1.0, SVG Export Plug-In . SVG Version: 6.00 Build 0)  -->
<svg version="1.1" id="Layer_1" xmlns="http://www.w3.org/2000/svg" xmlns:xlink="http://www.w3.org/1999/xlink" x="0px" y="0px"
	 viewBox="0 0 99 39" style="enable-background:new 0 0 99 39;" xml:space="preserve">
<style type="text/css">
	.Drop_x0020_Shadow{fill:none;}
	.Outer_x0020_Glow_x0020_5_x0020_pt{fill:none;}
	.Blue_x0020_Neon{fill:none;stroke:#8AACDA;stroke-width:7;stroke-linecap:round;stroke-linejoin:round;}
	.Chrome_x0020_Highlight{fill:url(#SVGID_1_);stroke:#FFFFFF;stroke-width:0.3629;stroke-miterlimit:1;}
	.Jive_GS{fill:#FFDD00;}
	.Alyssa_GS{fill:#A6D0E4;}
</style>
<linearGradient id="SVGID_1_" gradientUnits="userSpaceOnUse" x1="-591" y1="-494" x2="-591" y2="-495">
	<stop  offset="0" style="stop-color:#656565"/>
	<stop  offset="0.618" style="stop-color:#1B1B1B"/>
	<stop  offset="0.6292" style="stop-color:#545454"/>
	<stop  offset="0.9831" style="stop-color:#3E3E3E"/>
</linearGradient>
<g>
	<g>
		<g>
			<path d="M38,16.3v0.3C38,16.4,38,16.4,38,16.3L38,16.3z"/>
			<path d="M63.3,7.4v24.1h-7.3c-0.2,0-0.4,0-0.5,0c-1.2-0.1-1.9-0.7-2.2-3.1c-1.4,1.3-3,2.5-5,3.1l0,0c0,0-0.1,0-0.2,0
				c-0.9,0.3-1.9,0.4-3,0.4c-1.1,0-2.1-0.1-3-0.4c-1.7-0.5-3-1.6-3.7-3.5c-0.1,0.1-0.2,0.1-0.3,0.2c-0.1,0.1-0.2,0.1-0.2,0.2
				c-1.4,1.2-2.9,2.4-4.9,3c0,0-0.1,0-0.2,0c-0.9,0.3-1.9,0.4-3,0.4c-1.1,0-2.1-0.1-3-0.4c-2.4-0.7-4-2.6-4.2-6.5v-8.4
				c0-0.1,0-0.2,0-0.3c-0.1-1.5-1-1.8-2.7-1.8c-0.8,0-1.6,0.1-2.2,0.3v16.7H7.5V7.4h7.3c1.5,0,2.4,0.5,2.8,3.4
				c1.4-1.3,3-2.6,5.1-3.3c0.1,0,0.2-0.1,0.3-0.1c1-0.3,2.1-0.5,3.2-0.5c1.1,0,2.1,0.1,3,0.5c2.1,0.7,3.6,2.5,3.7,6v9
				c0,0.1,0,0.2,0,0.3c0.1,1.5,1.1,1.9,2.9,1.9c0.7,0,1.5-0.1,2.1-0.3V7.4h10.3v15.4c0.1,1.2,0.7,1.6,1.9,1.8c0.3,0,0.6,0.1,1,0.1
				c0.7,0,1.5-0.1,2.1-0.3V7.4H63.3z"/>
		</g>
	</g>
	<g>
		<g>
			<path d="M92.6,7.4v24.1h-7.3c-1.6,0-2.4-0.4-2.8-3.3c-2.1,1.9-4.5,3.7-8.3,3.7c-4,0-7.2-1.7-7.2-7.4V7.4h10.3v15
				c0,1.8,1,2.2,2.9,2.2c0.7,0,1.5-0.1,2.1-0.3V7.4H92.6z"/>
		</g>
	</g>
</g>
</svg>
